<svg width="641" height="524" viewBox="0 0 641 524" fill="none" xmlns="http://www.w3.org/2000/svg">
<path d="M226.297 30.238C226.297 28.3447 227.135 26.5289 228.628 25.1901C230.121 23.8514 232.145 23.0993 234.257 23.0993C235.028 23.0965 235.795 23.2012 236.531 23.4096C236.412 22.6804 236.351 21.9444 236.349 21.2074C236.349 17.1974 238.126 13.3515 241.287 10.516C244.449 7.68046 248.737 6.08748 253.209 6.08748C254.254 6.09259 255.296 6.18161 256.323 6.35351C257.984 3.90213 260.488 2.00184 263.459 0.939594C266.429 -0.122652 269.705 -0.289152 272.79 0.465236C275.876 1.21962 278.604 2.85393 280.562 5.12134C282.521 7.38876 283.604 10.1662 283.647 13.0341H283.878C287.479 13.0341 290.933 14.3172 293.48 16.6011C296.027 18.8851 297.457 21.9828 297.457 25.2128C297.457 28.4428 296.027 31.5405 293.48 33.8245C290.933 36.1084 287.479 37.3915 283.878 37.3915H234.026C231.953 37.3339 229.988 36.5549 228.545 35.2195C227.102 33.8842 226.296 32.0974 226.297 30.238Z" fill="#F5F5F5"/>
<path d="M343.288 84.4954C343.288 84.0264 343.391 83.562 343.592 83.1289C343.793 82.6957 344.087 82.3024 344.457 81.9715C344.828 81.6405 345.268 81.3784 345.751 81.2003C346.235 81.0222 346.753 80.9315 347.276 80.9334C347.661 80.9369 348.044 80.9866 348.413 81.0812C348.361 80.7185 348.333 80.3533 348.331 79.9875C348.331 77.9844 349.218 76.0634 350.798 74.647C352.377 73.2306 354.519 72.4349 356.752 72.4349C357.271 72.4364 357.79 72.4759 358.301 72.5532C359.132 71.3275 360.384 70.3773 361.869 69.8462C363.355 69.3151 364.992 69.2318 366.535 69.609C368.078 69.9862 369.442 70.8034 370.421 71.9371C371.4 73.0708 371.942 74.4595 371.963 75.8934H372.112C373.003 75.8934 373.886 76.0509 374.71 76.357C375.534 76.663 376.282 77.1115 376.913 77.677C377.543 78.2424 378.043 78.9137 378.385 79.6525C378.726 80.3913 378.901 81.1831 378.901 81.9828C378.901 82.7825 378.726 83.5743 378.385 84.3131C378.043 85.0519 377.543 85.7232 376.913 86.2886C376.282 86.8541 375.534 87.3026 374.71 87.6086C373.886 87.9147 373.003 88.0722 372.112 88.0722H347.161C346.123 88.0452 345.138 87.6565 344.415 86.9887C343.692 86.3208 343.288 85.4264 343.288 84.4954Z" fill="#F5F5F5"/>
<path d="M563.28 187.054C563.28 186.105 563.7 185.195 564.448 184.525C565.196 183.854 566.21 183.477 567.268 183.477C567.653 183.48 568.035 183.53 568.405 183.625C568.38 183.261 568.38 182.895 568.405 182.531C568.405 181.539 568.623 180.557 569.046 179.641C569.469 178.725 570.09 177.892 570.871 177.191C571.653 176.489 572.582 175.933 573.604 175.553C574.625 175.174 575.72 174.979 576.826 174.979C577.346 174.977 577.865 175.022 578.375 175.112C579.206 173.886 580.458 172.936 581.943 172.405C583.428 171.873 585.066 171.79 586.609 172.167C588.152 172.545 589.516 173.362 590.495 174.495C591.474 175.629 592.016 177.018 592.037 178.452H592.169C593.97 178.452 595.697 179.093 596.97 180.235C598.243 181.377 598.959 182.926 598.959 184.541C598.959 186.156 598.243 187.705 596.97 188.847C595.697 189.989 593.97 190.631 592.169 190.631H567.119C566.088 190.596 565.111 190.204 564.395 189.537C563.679 188.87 563.279 187.98 563.28 187.054Z" fill="#F5F5F5"/>
<path d="M25.6856 188.487C25.6856 188.018 25.7889 187.554 25.9895 187.121C26.1902 186.688 26.4842 186.294 26.8547 185.964C27.2253 185.633 27.6651 185.371 28.1488 185.192C28.6326 185.014 29.1508 184.924 29.6738 184.926C30.0585 184.929 30.441 184.979 30.8109 185.073C30.7502 184.711 30.7226 184.346 30.7285 183.98C30.7285 182.983 30.9485 181.996 31.3758 181.076C31.8031 180.155 32.4293 179.32 33.2183 178.618C34.0073 177.916 34.9435 177.361 35.9728 176.985C37.0021 176.609 38.1043 176.419 39.2157 176.427C39.7348 176.428 40.2529 176.468 40.7648 176.545C41.595 175.32 42.8473 174.369 44.3326 173.838C45.818 173.307 47.4557 173.224 48.9984 173.601C50.5412 173.978 51.9052 174.795 52.8844 175.929C53.8637 177.063 54.4051 178.452 54.4268 179.886H54.5586C56.3593 179.886 58.0864 180.527 59.3597 181.669C60.633 182.811 61.3484 184.36 61.3484 185.975C61.3484 187.59 60.633 189.139 59.3597 190.281C58.0864 191.423 56.3593 192.064 54.5586 192.064H29.5584C28.5222 192.034 27.5396 191.644 26.8173 190.977C26.095 190.31 25.6893 189.417 25.6856 188.487Z" fill="#F5F5F5"/>
<path d="M444.739 30.6075C444.739 29.9923 444.874 29.383 445.137 28.8146C445.399 28.2461 445.784 27.7296 446.269 27.2945C446.754 26.8595 447.33 26.5144 447.964 26.2789C448.598 26.0435 449.277 25.9223 449.963 25.9223C450.472 25.9237 450.977 25.9934 451.463 26.1292C451.381 25.64 451.343 25.1458 451.347 24.6512C451.347 22.0249 452.511 19.5061 454.582 17.649C456.652 15.7919 459.461 14.7486 462.389 14.7486C463.074 14.7501 463.758 14.8045 464.433 14.9112C465.523 13.2991 467.17 12.0502 469.124 11.3541C471.078 10.6581 473.232 10.5529 475.259 11.0545C477.285 11.5561 479.074 12.6372 480.353 14.1335C481.632 15.6298 482.332 17.4597 482.346 19.3452H482.528C483.73 19.2988 484.93 19.4711 486.055 19.8516C487.181 20.2322 488.209 20.8131 489.078 21.5595C489.947 22.3059 490.638 23.2022 491.111 24.1946C491.583 25.187 491.827 26.2548 491.827 27.3338C491.827 28.4127 491.583 29.4806 491.111 30.4729C490.638 31.4653 489.947 32.3616 489.078 33.108C488.209 33.8544 487.181 34.4353 486.055 34.8159C484.93 35.1965 483.73 35.3687 482.528 35.3224H449.815C448.448 35.2914 447.15 34.7796 446.2 33.8975C445.25 33.0153 444.726 31.8337 444.739 30.6075Z" fill="#F5F5F5"/>
<path d="M54.674 142.891C54.4136 141.982 54.2589 141.051 54.2125 140.113C53.8335 134.363 47.7029 135.279 42.4952 134.496C38.4247 133.875 49.2026 124.653 40.9956 121.682C39.3953 121.283 37.9943 120.408 37.0239 119.199C36.6123 118.295 36.5667 117.29 36.8948 116.358C37.2229 115.427 37.9041 114.628 38.8202 114.1C40.6846 113.058 42.8549 112.543 45.0496 112.622C46.3845 111.144 45.2968 108.971 43.9949 107.478C42.693 105.986 41.1274 104.286 41.6053 102.453C42.3469 99.6745 46.6812 99.571 49.8453 100.103C50.9989 98.433 50.966 96.3342 51.4933 94.4276C52.0207 92.5209 53.7511 90.5257 55.9264 90.7621C58.1018 90.9986 59.2224 93.0678 61.266 93.4964C63.6061 93.9842 65.6332 92.1367 67.4624 90.7326C69.2917 89.3285 72.5053 88.4712 73.7743 90.304C74.5324 91.4125 74.0874 92.9348 74.862 94.0137C76.2298 95.8908 79.4599 94.738 81.454 93.4078C83.448 92.0776 86.6616 90.8656 88.046 92.7131C88.3989 93.3196 88.6594 93.9658 88.8205 94.6345C89.7764 97.1028 92.7428 98.3295 95.05 99.8962C97.3572 101.463 99.1864 104.611 97.2253 106.532C96.2695 107.493 94.572 107.877 94.0941 109.075C93.5008 110.553 95.2148 111.942 96.5826 112.991C98.8568 114.721 99.2524 119.894 96.253 121.312C95.0005 121.904 93.1548 122.096 92.8416 123.337C92.5285 124.579 93.8304 125.318 94.6709 126.175C95.1969 126.786 95.5695 127.492 95.7633 128.245C95.9571 128.997 95.9675 129.778 95.7938 130.535C95.6202 131.291 95.2665 132.005 94.757 132.627C94.2475 133.25 93.5942 133.766 92.8416 134.141C92.1165 134.452 91.1936 134.703 90.9629 135.368C90.8655 135.866 90.9284 136.379 91.1442 136.846C91.4533 137.805 91.5485 138.81 91.4244 139.802C91.4331 140.135 91.2972 140.459 91.0453 140.704C90.7673 140.882 90.4306 140.97 90.0895 140.955C85.7552 141.118 83.6623 139.743 81.0255 143.128C80.7941 143.468 80.4852 143.76 80.1191 143.985C79.7516 144.154 79.3456 144.245 78.9325 144.251C75.9496 144.473 73.9885 142.773 71.2858 142.492C67.5119 142.064 66.7044 143.808 63.3754 145.212C58.2007 147.443 55.6957 146.084 54.674 142.891Z" fill="#F5F5F5"/>
<path d="M104.559 138.132C104.299 137.223 104.144 136.291 104.097 135.353C103.718 129.604 97.5055 130.52 92.3802 129.737C88.3096 129.116 99.0875 119.893 90.8805 116.923C89.2802 116.524 87.8793 115.648 86.9088 114.44C86.4973 113.535 86.4516 112.53 86.7797 111.599C87.1078 110.668 87.789 109.869 88.7051 109.341C90.5794 108.327 92.7485 107.838 94.9346 107.936C96.2695 106.458 95.1818 104.271 93.8963 102.793C92.6109 101.315 91.0123 99.6005 91.4903 97.753C92.2319 94.9892 96.5661 94.8857 99.7303 95.4178C100.884 93.7477 100.851 91.6489 101.378 89.7423C101.906 87.8356 103.636 85.8403 105.811 86.0768C107.987 86.3133 109.107 88.3825 111.151 88.8111C113.491 89.2989 115.518 87.4366 117.347 86.0473C119.177 84.6579 122.407 83.7859 123.659 85.6187C124.417 86.7271 123.972 88.2495 124.747 89.3284C126.115 91.2055 129.361 90.0379 131.339 88.7225C133.316 87.407 136.547 86.1803 137.931 88.0278C138.284 88.6343 138.544 89.2805 138.705 89.9492C139.661 92.4174 142.628 93.6294 144.935 95.2109C147.242 96.7923 149.071 99.9257 147.11 101.847C146.154 102.793 144.457 103.192 143.979 104.389C143.386 105.867 145.1 107.257 146.468 108.306C148.742 110.035 149.154 115.208 146.154 116.627C144.885 117.218 143.04 117.41 142.727 118.652C142.413 119.893 143.715 120.632 144.556 121.49C145.082 122.1 145.454 122.805 145.648 123.556C145.841 124.307 145.852 125.087 145.678 125.842C145.504 126.598 145.151 127.31 144.641 127.931C144.132 128.553 143.479 129.068 142.727 129.441C142.001 129.752 141.079 130.018 140.864 130.683C140.753 131.179 140.81 131.694 141.029 132.161C141.325 133.097 141.425 134.074 141.326 135.043C141.32 135.377 141.18 135.697 140.93 135.945C140.654 136.124 140.314 136.208 139.974 136.181C135.64 136.358 133.547 134.984 130.91 138.368C130.684 138.712 130.374 139.005 130.004 139.226C129.637 139.397 129.231 139.488 128.817 139.492C125.835 139.713 123.873 138.014 121.171 137.733C117.397 137.304 116.589 139.048 113.26 140.452C108.086 142.566 105.548 141.251 104.559 138.132Z" fill="#F5F5F5"/>
<path d="M142.232 123.751C141.973 122.846 141.818 121.92 141.771 120.987C141.392 115.223 135.261 116.139 130.053 115.356C125.966 114.75 136.761 105.527 128.537 102.542C126.94 102.154 125.543 101.282 124.582 100.073C124.166 99.1674 124.118 98.1591 124.446 97.2245C124.775 96.2899 125.459 95.4883 126.378 94.9596C128.255 93.9508 130.422 93.4622 132.608 93.5555C133.943 92.0775 132.855 89.9049 131.553 88.4121C130.251 86.9193 128.669 85.2196 129.164 83.3869C129.905 80.6082 134.239 80.4309 137.404 81.0516C138.574 79.3667 138.541 77.268 139.052 75.3613C139.562 73.4547 141.309 71.4594 143.485 71.6959C145.66 71.9324 146.781 74.0016 148.808 74.4302C151.164 74.9179 153.191 73.0704 155.021 71.6811C156.85 70.2918 160.064 69.4198 161.333 71.2525C162.091 72.3462 161.629 73.8833 162.42 74.9623C163.788 76.8393 167.018 75.6717 169.012 74.3415C171.006 73.0113 174.22 71.8141 175.604 73.6469C175.955 74.2595 176.215 74.9103 176.379 75.583C177.335 78.0365 180.301 79.2633 182.608 80.8447C184.915 82.4262 186.745 85.5448 184.784 87.4809C183.828 88.4269 182.13 88.8111 181.652 90.0231C181.043 91.5011 182.773 92.8904 184.141 93.925C186.399 95.6543 186.811 100.842 183.811 102.246C182.559 102.852 180.713 103.029 180.4 104.271C180.087 105.513 181.389 106.252 182.229 107.109C182.755 107.72 183.128 108.426 183.322 109.179C183.515 109.931 183.526 110.712 183.352 111.468C183.178 112.225 182.825 112.938 182.315 113.561C181.806 114.183 181.152 114.7 180.4 115.075C179.675 115.386 178.752 115.637 178.521 116.317C178.413 116.814 178.476 117.33 178.702 117.795C178.984 118.733 179.079 119.709 178.983 120.677C178.99 121.014 178.855 121.342 178.604 121.593C178.32 121.758 177.986 121.841 177.648 121.83C173.313 122.007 171.221 120.632 168.584 124.002C168.352 124.342 168.043 124.634 167.677 124.86C167.308 125.027 166.904 125.122 166.491 125.14C163.508 125.347 161.547 123.662 158.844 123.382C155.07 122.938 154.263 124.697 150.934 126.086C145.759 128.318 143.221 126.958 142.232 123.751Z" fill="#F5F5F5"/>
<path d="M175.439 117.203C175.179 116.294 175.024 115.363 174.978 114.425C174.599 108.675 168.468 109.577 163.261 108.808C159.19 108.188 169.968 98.965 161.761 95.9942C160.161 95.5958 158.76 94.7199 157.789 93.5112C157.378 92.6068 157.332 91.6019 157.66 90.6705C157.988 89.7392 158.669 88.9402 159.586 88.4121C161.448 87.3655 163.62 86.8502 165.815 86.9341C167.15 85.4561 166.062 83.2686 164.777 81.7758C163.491 80.2831 161.893 78.5981 162.387 76.7506C163.129 73.9868 167.447 73.8833 170.627 74.4154C171.781 72.7453 171.748 70.6465 172.275 68.7399C172.803 66.8333 174.533 64.8232 176.708 65.0744C178.884 65.3257 180.004 67.3801 182.048 67.794C184.388 68.2965 186.415 66.4342 188.244 65.0449C190.074 63.6556 193.304 62.7835 194.556 64.6163C195.314 65.71 194.869 67.2471 195.66 68.326C197.012 70.2031 200.258 69.0355 202.252 67.7053C204.246 66.3751 207.46 65.1779 208.844 67.0254C209.197 67.6319 209.458 68.2781 209.619 68.9468C210.575 71.4151 213.541 72.627 215.848 74.2085C218.156 75.7899 219.985 78.9233 218.024 80.8447C217.068 81.7906 215.37 82.1749 214.893 83.3869C214.299 84.8649 216.013 86.2542 217.381 87.3036C219.655 89.0328 220.067 94.2058 217.068 95.6247C215.799 96.2159 213.953 96.3933 213.64 97.6496C213.327 98.9059 214.629 99.6301 215.469 100.487C215.998 101.097 216.373 101.801 216.568 102.553C216.763 103.305 216.774 104.086 216.6 104.842C216.426 105.598 216.072 106.311 215.56 106.932C215.049 107.553 214.394 108.067 213.64 108.439C212.931 108.749 211.992 109.015 211.778 109.68C211.666 110.177 211.724 110.692 211.943 111.158C212.249 112.118 212.349 113.121 212.239 114.114C212.234 114.448 212.093 114.769 211.844 115.016C211.565 115.191 211.227 115.274 210.888 115.253C206.554 115.43 204.477 114.055 201.824 117.44C201.598 117.783 201.288 118.076 200.917 118.297C200.551 118.468 200.144 118.559 199.731 118.563C196.748 118.785 194.787 117.085 192.084 116.804C188.31 116.376 187.503 118.12 184.174 119.524C178.966 121.756 176.428 120.396 175.439 117.203Z" fill="#F5F5F5"/>
<path d="M194.49 138.132C194.23 137.223 194.075 136.291 194.029 135.353C193.633 129.604 187.519 130.52 182.295 129.737C178.225 129.116 189.019 119.893 180.795 116.923C179.2 116.523 177.805 115.647 176.84 114.44C176.427 113.537 176.379 112.533 176.704 111.602C177.029 110.671 177.707 109.871 178.62 109.341C180.5 108.326 182.675 107.838 184.866 107.936C186.201 106.458 185.113 104.271 183.811 102.793C182.509 101.315 180.927 99.6005 181.422 97.753C182.163 94.9892 186.497 94.8857 189.662 95.4178C190.815 93.7477 190.799 91.6489 191.31 89.7423C191.82 87.8356 193.567 85.8403 195.743 86.0768C197.918 86.3133 199.039 88.3825 201.066 88.8111C203.406 89.2989 205.433 87.4366 207.279 86.0473C209.125 84.6579 212.322 83.7859 213.591 85.6187C214.349 86.7271 213.887 88.2495 214.678 89.3284C216.046 91.2055 219.276 90.0379 221.27 88.7225C223.264 87.407 226.478 86.1803 227.862 88.0278C228.215 88.6343 228.476 89.2805 228.637 89.9492C229.593 92.4174 232.543 93.6294 234.866 95.2109C237.19 96.7923 239.003 99.9257 237.042 101.847C236.086 102.793 234.388 103.192 233.91 104.389C233.301 105.867 235.031 107.257 236.399 108.306C238.657 110.035 239.069 115.208 236.069 116.627C234.817 117.218 232.971 117.41 232.658 118.652C232.345 119.893 233.647 120.632 234.471 121.49C235 122.098 235.376 122.802 235.572 123.553C235.769 124.304 235.781 125.085 235.609 125.84C235.436 126.596 235.083 127.31 234.574 127.931C234.065 128.553 233.411 129.068 232.658 129.441C231.933 129.752 231.01 130.018 230.779 130.683C230.674 131.181 230.737 131.695 230.961 132.161C231.243 133.099 231.337 134.075 231.241 135.043C231.243 135.378 231.102 135.701 230.845 135.945C230.576 136.126 230.241 136.21 229.906 136.181C225.572 136.358 223.479 134.984 220.842 138.368C220.61 138.708 220.302 139 219.935 139.226C219.562 139.395 219.151 139.486 218.732 139.492C215.766 139.713 213.788 138.014 211.086 137.733C207.312 137.304 206.521 139.048 203.192 140.452C198.001 142.566 195.479 141.251 194.49 138.132Z" fill="#F5F5F5"/>
<path d="M142.232 88.7077C141.972 87.7982 141.817 86.867 141.771 85.929C141.392 80.1796 135.261 81.096 130.053 80.3126C125.966 79.7066 136.761 70.4691 128.537 67.4984C126.939 67.1046 125.542 66.2274 124.582 65.0153C124.167 64.1114 124.12 63.1054 124.448 62.1734C124.777 61.2413 125.46 60.4423 126.378 59.9162C128.246 58.8815 130.414 58.3671 132.608 58.4382C133.943 56.9602 132.855 54.7876 131.553 53.2948C130.251 51.802 128.669 50.1023 129.164 48.2696C129.905 45.4909 134.239 45.3136 137.404 45.9196C138.574 44.2494 138.541 42.1507 139.052 40.244C139.562 38.3374 141.309 36.3421 143.485 36.5786C145.66 36.8151 146.781 38.8843 148.808 39.3129C151.164 39.8006 153.191 37.9531 155.021 36.549C156.85 35.1449 160.064 34.2877 161.333 36.1204C162.091 37.2289 161.629 38.7513 162.42 39.8302C163.788 41.7073 167.018 40.5544 169.012 39.2242C171.006 37.894 174.22 36.6821 175.604 38.5296C175.955 39.137 176.215 39.783 176.379 40.451C177.335 42.9192 180.301 44.146 182.608 45.7126C184.915 47.2793 186.745 50.4275 184.784 52.3489C183.828 53.3096 182.13 53.6938 181.652 54.9058C181.043 56.3838 182.773 57.7583 184.141 58.8077C186.399 60.537 186.811 65.71 183.811 67.1289C182.559 67.7201 180.713 67.9122 180.4 69.1537C180.087 70.3952 181.389 71.1342 182.229 71.9915C182.755 72.6029 183.128 73.3089 183.322 74.0613C183.515 74.8136 183.526 75.5947 183.352 76.351C183.178 77.1073 182.825 77.8211 182.315 78.4436C181.806 79.0661 181.152 79.5826 180.4 79.9579C179.675 80.2683 178.752 80.5195 178.521 81.1846C178.416 81.6825 178.479 82.1972 178.702 82.6626C178.994 83.6247 179.089 84.6262 178.983 85.6186C178.989 85.7839 178.958 85.9486 178.893 86.1033C178.828 86.258 178.73 86.3997 178.604 86.5202C178.326 86.6981 177.989 86.7867 177.648 86.7715C173.313 86.9341 171.221 85.5595 168.584 88.9441C168.352 89.284 168.043 89.5762 167.677 89.8014C167.31 89.9707 166.904 90.0617 166.491 90.0674C163.508 90.2891 161.547 88.5894 158.844 88.3086C155.07 87.88 154.263 89.624 150.934 91.0281C145.759 93.2599 143.221 91.9001 142.232 88.7077Z" fill="#F5F5F5"/>
<path d="M99.5655 90.6734C99.3076 89.7635 99.153 88.8326 99.104 87.8948C98.725 82.1306 92.512 83.0469 87.3868 82.2636C83.2997 81.6576 94.0941 72.4349 85.8706 69.4493C84.2735 69.0616 82.8758 68.1894 81.9154 66.9811C81.5028 66.0746 81.4565 65.0673 81.7845 64.1334C82.1125 63.1995 82.7943 62.3979 83.7117 61.8672C85.5793 60.8325 87.7473 60.3181 89.9411 60.3892C91.276 58.9112 90.1883 56.7385 88.8864 55.2458C87.5845 53.753 86.0024 52.0533 86.4968 50.2206C87.2384 47.4419 91.5727 47.3385 94.7368 47.8853C95.9069 46.2004 95.874 44.1016 96.3848 42.195C96.8957 40.2884 98.6426 38.2931 100.818 38.5296C102.993 38.7661 104.114 40.8353 106.141 41.2639C108.498 41.7664 110.525 39.9041 112.354 38.5148C114.183 37.1255 117.397 36.2535 118.666 38.0862C119.424 39.1799 118.962 40.717 119.753 41.796C121.121 43.673 124.351 42.5054 126.345 41.1752C128.34 39.845 131.553 38.6478 132.937 40.4953C133.29 41.1018 133.551 41.748 133.712 42.4167C134.668 44.8702 137.634 46.0969 139.941 47.6784C142.249 49.2599 144.078 52.3932 142.117 54.3146C141.161 55.2605 139.464 55.6448 138.986 56.8568C138.376 58.3348 140.106 59.7241 141.474 60.7587C143.732 62.488 144.144 67.6757 141.145 69.0798C139.892 69.6858 138.046 69.8632 137.733 71.1047C137.42 72.3462 138.722 73.0852 139.562 73.9425C140.088 74.5538 140.461 75.2598 140.655 76.0122C140.849 76.7646 140.859 77.5457 140.685 78.302C140.512 79.0583 140.158 79.7721 139.649 80.3946C139.139 81.0171 138.486 81.5336 137.733 81.9089C137.008 82.2193 136.085 82.4705 135.854 83.1504C135.75 83.6483 135.813 84.1627 136.036 84.6284C136.327 85.5654 136.422 86.5425 136.316 87.5105C136.321 87.8432 136.186 88.1654 135.937 88.4121C135.653 88.577 135.319 88.6596 134.981 88.6486C130.647 88.8259 128.554 87.4514 125.917 90.8212C125.682 91.1624 125.374 91.4587 125.011 91.6932C124.64 91.8557 124.236 91.9463 123.824 91.9593C120.841 92.181 118.88 90.4813 116.177 90.2005C112.403 89.7719 111.596 91.5159 108.267 92.92C103.092 95.27 100.554 93.8659 99.5655 90.6734Z" fill="#F5F5F5"/>
<path d="M73.6589 106.325C73.3846 105.418 73.2243 104.486 73.181 103.547C72.802 97.7974 66.589 98.7138 61.4637 97.9304C57.3932 97.3097 68.1711 88.0869 59.964 85.1162C58.3638 84.7177 56.9628 83.8418 55.9924 82.6331C55.5808 81.7288 55.5352 80.7238 55.8633 79.7925C56.1914 78.8611 56.8725 78.0621 57.7887 77.534C59.6539 76.4943 61.8236 75.9795 64.0181 76.056C65.3695 74.578 64.2653 72.3906 62.9799 70.9126C61.6944 69.4346 60.0959 67.7201 60.5903 65.8726C61.3319 63.1087 65.6496 63.0053 68.8303 63.5373C69.9839 61.8672 69.9674 59.7685 70.4783 57.8618C70.9892 55.9552 72.7196 53.9599 74.9114 54.1964C77.1032 54.4329 78.2074 56.5021 80.2344 56.9307C82.5746 57.4184 84.6016 55.5562 86.4309 54.1668C88.2602 52.7775 91.4903 51.9055 92.7428 53.7382C93.5008 54.8467 93.0559 56.3691 93.8469 57.448C95.1983 59.3251 98.4448 58.1574 100.439 56.842C102.433 55.5266 105.647 54.2998 107.031 56.1473C107.389 56.7532 107.655 57.3995 107.822 58.0688C108.761 60.537 111.728 61.7638 114.035 63.3304C116.342 64.8971 118.171 68.0452 116.227 69.9666C115.254 70.9273 113.557 71.3116 113.079 72.5088C112.486 73.9868 114.2 75.3761 115.568 76.4255C117.842 78.1548 118.254 83.3278 115.254 84.7467C113.985 85.3379 112.14 85.53 111.843 86.7715C111.546 88.013 112.815 88.752 113.656 89.6093C114.187 90.2188 114.565 90.9247 114.761 91.6781C114.958 92.4314 114.97 93.2142 114.796 93.972C114.622 94.7299 114.266 95.4447 113.754 96.067C113.241 96.6893 112.583 97.2041 111.827 97.5757C111.118 97.8713 110.179 98.1373 109.964 98.8024C109.853 99.2988 109.91 99.8137 110.129 100.28C110.425 101.217 110.525 102.194 110.426 103.163C110.443 103.323 110.419 103.485 110.356 103.635C110.293 103.786 110.192 103.922 110.062 104.033C109.932 104.144 109.776 104.227 109.605 104.276C109.433 104.325 109.252 104.338 109.074 104.315C104.74 104.478 102.664 103.103 100.01 106.488C99.7886 106.834 99.4778 107.128 99.104 107.345C98.7372 107.516 98.3308 107.607 97.9175 107.611C94.9346 107.833 92.9735 106.133 90.2708 105.852C86.4968 105.424 85.6893 107.168 82.3768 108.572C77.1197 110.878 74.6312 109.518 73.6589 106.325Z" fill="#F5F5F5"/>
<path d="M81.5034 126.116C81.5034 126.116 92.3472 139.861 96.0882 144.221C99.8292 148.581 118.501 175.732 121.055 193.69C121.319 195.597 121.583 197.252 121.846 198.686C113.821 246.277 115.073 427.923 115.353 442.822H148.313C142.034 331.188 143.205 177.802 143.996 173.116C144.853 168.15 155.532 149.247 171.929 141.487C188.327 133.728 202.598 108.025 202.598 108.025H197.424C197.424 108.025 187.701 123.766 173.874 132.486C171.886 133.718 169.804 134.824 167.644 135.797C167.682 126.32 165.823 116.914 162.157 108.025L159.322 110.36C163.145 124.401 162.618 133.388 161.481 138.546C156.251 140.736 151.427 143.632 147.176 147.133C132.839 130.402 124.78 92.1367 124.78 92.1367L121.105 93.9398C122.129 101.853 123.697 109.701 125.802 117.44C128.488 127.328 136.398 145.98 140.073 154.39C135.665 160.062 132.025 166.185 129.229 172.629C128.844 172.082 128.379 171.585 127.845 171.151C118.501 163.568 100.95 127.786 100.95 127.786C96.6979 119.465 103.191 97.62 103.191 97.62H98.2471L96.0552 116.716L83.7117 104.67L81.4704 106.34L94.5556 121.431L101.279 140.541L83.7117 123.101L81.5034 126.116Z" fill="#F5F5F5"/>
<path d="M577.222 153.37C577.462 152.513 577.605 151.637 577.65 150.754C578.013 145.33 583.781 146.187 588.692 145.463C592.532 144.886 582.38 136.196 590.109 133.388C591.618 133.017 592.938 132.192 593.85 131.052C594.241 130.205 594.29 129.262 593.989 128.385C593.688 127.508 593.056 126.753 592.202 126.249C590.436 125.295 588.394 124.832 586.335 124.919C585.066 123.544 586.104 121.475 587.324 120.071C588.543 118.667 590.043 117.115 589.582 115.341C588.873 112.725 584.803 112.636 581.853 113.139C580.765 111.558 580.781 109.577 580.205 107.789C579.628 106 578.095 104.108 576.035 104.33C573.975 104.552 572.92 106.503 571.009 106.902C568.817 107.375 566.905 105.631 565.175 104.315C563.444 103 560.412 102.187 559.226 103.901C558.517 104.936 558.945 106.385 558.204 107.404C556.918 109.163 553.87 108.069 551.974 106.828C550.079 105.586 547.03 104.434 545.745 106.178C545.406 106.745 545.156 107.352 545.003 107.981C544.113 110.301 541.312 111.454 539.153 112.947C536.994 114.44 535.247 117.381 537.093 119.199C537.999 120.086 539.598 120.455 540.043 121.593C540.603 123.071 538.988 124.298 537.703 125.273C535.56 126.899 535.181 131.777 537.999 133.107C539.186 133.668 540.933 133.846 541.213 135.013C541.493 136.181 540.29 136.89 539.565 137.689C539.066 138.26 538.71 138.922 538.521 139.628C538.333 140.334 538.316 141.069 538.473 141.781C538.629 142.493 538.955 143.167 539.428 143.757C539.9 144.346 540.509 144.837 541.213 145.197C541.905 145.478 542.729 145.714 542.976 146.35C543.097 146.844 543.045 147.36 542.828 147.828C542.547 148.711 542.452 149.633 542.548 150.547C542.543 150.867 542.679 151.175 542.927 151.404C543.19 151.561 543.501 151.639 543.817 151.626C547.887 151.789 549.865 150.488 552.353 153.681C552.572 154.002 552.864 154.279 553.21 154.493C553.561 154.646 553.942 154.731 554.331 154.745C557.133 154.952 558.962 153.37 561.533 153.089C565.092 152.675 565.834 154.316 568.965 155.646C573.909 157.656 576.282 156.385 577.222 153.37Z" fill="#F5F5F5"/>
<path d="M494.739 135.339C494.993 134.489 495.142 133.616 495.184 132.737C495.547 127.313 501.315 128.17 506.226 127.431C510.066 126.855 499.898 118.164 507.643 115.371C509.151 114.99 510.467 114.155 511.368 113.006C511.759 112.156 511.809 111.211 511.508 110.331C511.208 109.452 510.575 108.694 509.72 108.188C507.951 107.241 505.91 106.783 503.853 106.872C502.584 105.498 503.606 103.429 504.825 102.024C506.045 100.62 507.544 99.0684 507.083 97.2948C506.391 94.6788 502.304 94.5753 499.37 95.0926C498.283 93.5112 498.299 91.5306 497.722 89.7275C497.145 87.9243 495.596 86.0473 493.553 86.2837C491.509 86.5202 490.422 88.4564 488.526 88.8555C486.318 89.3137 484.406 87.5696 482.676 86.2542C480.946 84.9388 477.93 84.1259 476.743 85.8551C476.018 86.8897 476.447 88.3382 475.705 89.358C474.419 91.1168 471.371 90.0231 469.492 88.7668C467.613 87.5105 464.548 86.3872 463.246 88.1165C462.919 88.6924 462.676 89.3033 462.521 89.9344C461.615 92.2549 458.829 93.4077 456.654 94.8857C454.479 96.3637 452.765 99.3197 454.594 101.138C455.5 102.039 457.099 102.394 457.56 103.532C458.121 105.01 456.489 106.237 455.22 107.212C453.078 108.853 452.682 113.73 455.517 115.06C456.703 115.622 458.434 115.785 458.731 116.967C459.027 118.149 457.808 118.829 457.083 119.642C456.581 120.212 456.223 120.872 456.033 121.578C455.843 122.283 455.826 123.017 455.982 123.729C456.139 124.441 456.466 125.115 456.94 125.703C457.415 126.291 458.025 126.78 458.731 127.136C459.406 127.431 460.247 127.668 460.494 128.303C460.616 128.799 460.558 129.317 460.329 129.781C460.06 130.661 459.971 131.578 460.065 132.486C460.058 132.803 460.188 133.11 460.428 133.343C460.685 133.511 461.001 133.59 461.318 133.565C465.405 133.742 467.383 132.442 469.871 135.619C470.079 135.944 470.367 136.222 470.711 136.432C471.06 136.588 471.443 136.674 471.832 136.684C474.65 136.89 476.48 135.324 479.034 135.028C482.594 134.629 483.352 136.27 486.483 137.585C491.427 139.61 493.816 138.354 494.739 135.339Z" fill="#F5F5F5"/>
<path d="M463.46 129.175C463.705 128.319 463.854 127.442 463.905 126.559C464.268 121.135 470.036 121.992 474.947 121.253C478.77 120.677 468.619 112.001 476.348 109.193C477.859 108.826 479.181 108.001 480.089 106.858C480.482 106.01 480.533 105.066 480.232 104.189C479.931 103.311 479.297 102.556 478.441 102.054C476.669 101.1 474.622 100.637 472.557 100.724C471.305 99.3493 472.327 97.2801 473.546 95.876C474.766 94.4719 476.265 92.92 475.804 91.1464C475.095 88.5304 471.025 88.4269 468.091 88.9442C466.987 87.3627 467.02 85.3822 466.443 83.5938C465.866 81.8055 464.317 79.9136 462.257 80.1353C460.197 80.357 459.143 82.308 457.313 82.707C455.105 83.18 453.193 81.4212 451.463 80.1057C449.733 78.7903 446.717 77.9774 445.514 79.7067C444.805 80.7413 445.234 82.1897 444.492 83.2095C443.206 84.9684 440.158 83.8747 438.262 82.6184C436.367 81.3621 433.318 80.2388 432.033 81.9828C431.701 82.5529 431.452 83.1589 431.291 83.786C430.401 86.1064 427.616 87.2593 425.441 88.7373C423.266 90.2153 421.535 93.1713 423.381 94.9892C424.287 95.8908 425.886 96.2455 426.331 97.3984C426.908 98.8764 425.276 100.088 423.991 101.079C421.865 102.704 421.469 107.582 424.287 108.912C425.474 109.474 427.221 109.651 427.583 110.819C427.946 111.986 426.644 112.681 425.935 113.494C425.434 114.063 425.076 114.724 424.886 115.429C424.696 116.135 424.679 116.869 424.835 117.581C424.992 118.293 425.319 118.966 425.793 119.554C426.267 120.142 426.878 120.631 427.583 120.987C428.259 121.283 429.1 121.519 429.347 122.155C429.47 122.651 429.412 123.169 429.182 123.633C428.908 124.517 428.813 125.438 428.902 126.352C428.902 126.667 429.037 126.969 429.281 127.195C429.538 127.363 429.853 127.447 430.171 127.431C434.258 127.594 436.219 126.293 438.707 129.486C438.927 129.803 439.219 130.075 439.564 130.284C439.912 130.441 440.295 130.527 440.685 130.535C443.487 130.742 445.332 129.175 447.887 128.88C451.446 128.481 452.205 130.121 455.336 131.437C460.148 133.462 462.537 132.22 463.46 129.175Z" fill="#F5F5F5"/>
<path d="M445.53 148.818C445.769 147.961 445.912 147.084 445.959 146.202C446.321 140.778 452.089 141.635 457 140.911C460.84 140.334 450.688 131.644 458.417 128.835C459.924 128.468 461.24 127.643 462.142 126.5C462.536 125.653 462.586 124.709 462.285 123.831C461.984 122.954 461.351 122.199 460.494 121.697C458.728 120.743 456.686 120.28 454.627 120.366C453.358 118.992 454.396 116.923 455.616 115.519C456.835 114.115 458.335 112.563 457.857 110.789C457.165 108.173 453.094 108.084 450.145 108.587C449.057 107.005 449.073 105.025 448.497 103.236C447.92 101.448 446.387 99.5562 444.327 99.7779C442.267 99.9996 441.212 101.951 439.301 102.35C437.109 102.823 435.197 101.064 433.467 99.7631C431.736 98.4625 428.704 97.62 427.517 99.3493C426.809 100.384 427.237 101.832 426.496 102.852C425.21 104.611 422.161 103.517 420.266 102.261C418.371 101.005 415.322 99.8814 414.037 101.625C413.698 102.193 413.448 102.8 413.295 103.429C412.405 105.749 409.604 106.902 407.428 108.395C405.253 109.887 403.539 112.829 405.385 114.647C406.291 115.533 407.89 115.903 408.335 117.041C408.895 118.519 407.28 119.731 405.995 120.721C403.852 122.347 403.473 127.224 406.291 128.555C407.478 129.116 409.225 129.294 409.505 130.461C409.785 131.629 408.582 132.323 407.857 133.136C407.358 133.707 407.002 134.367 406.814 135.072C406.625 135.777 406.609 136.511 406.765 137.222C406.922 137.933 407.248 138.606 407.72 139.194C408.193 139.782 408.802 140.272 409.505 140.63C410.197 140.925 411.021 141.162 411.268 141.797C411.389 142.292 411.337 142.808 411.12 143.275C410.839 144.158 410.744 145.081 410.84 145.995C410.836 146.311 410.965 146.618 411.202 146.852C411.474 147.003 411.789 147.08 412.109 147.074C416.179 147.236 418.157 145.936 420.645 149.128C420.859 149.445 421.146 149.717 421.486 149.926C421.837 150.091 422.227 150.177 422.623 150.178C425.425 150.399 427.254 148.818 429.825 148.522C433.384 148.123 434.126 149.764 437.257 151.094C442.201 153.104 444.624 151.833 445.53 148.818Z" fill="#F5F5F5"/>
<path d="M494.739 102.335C494.992 101.48 495.141 100.603 495.184 99.7188C495.547 94.2945 501.315 95.1518 506.226 94.4275C510.066 93.8511 499.898 85.1605 507.643 82.3523C509.149 81.9851 510.466 81.1595 511.368 80.0171C511.758 79.1694 511.807 78.2262 511.507 77.3496C511.206 76.473 510.574 75.7177 509.72 75.2136C507.953 74.2617 505.912 73.7989 503.853 73.8834C502.584 72.5088 503.606 70.4396 504.825 69.0355C506.045 67.6314 507.544 66.0795 507.083 64.3059C506.391 61.6899 502.304 61.6012 499.37 62.1037C498.283 60.5222 498.299 58.5417 497.722 56.7533C497.145 54.965 495.596 53.0731 493.553 53.2948C491.509 53.5165 490.422 55.4675 488.526 55.8665C486.318 56.3395 484.406 54.5807 482.676 53.28C480.946 51.9794 477.93 51.1369 476.743 52.8662C476.018 53.9008 476.447 55.3492 475.705 56.3691C474.419 58.1279 471.371 57.0342 469.492 55.7926C467.613 54.5511 464.548 53.3983 463.246 55.1423C462.919 55.7131 462.676 56.3191 462.521 56.9455C461.615 59.2659 458.829 60.4188 456.654 61.9116C454.479 63.4043 452.765 66.3456 454.594 68.1635C455.5 69.0503 457.099 69.4198 457.56 70.5579C458.121 72.0359 456.489 73.2478 455.22 74.2381C453.078 75.8639 452.682 80.7413 455.517 82.0715C456.703 82.6331 458.434 82.8105 458.731 83.9781C459.027 85.1457 457.808 85.8404 457.083 86.6533C456.581 87.2229 456.223 87.8831 456.033 88.5887C455.843 89.2942 455.826 90.0283 455.982 90.7404C456.139 91.4525 456.466 92.1257 456.94 92.7137C457.415 93.3017 458.025 93.7906 458.731 94.1467C459.406 94.4423 460.247 94.6788 460.494 95.3144C460.617 95.8101 460.56 96.3284 460.329 96.7924C460.061 97.6774 459.971 98.5985 460.065 99.5119C460.062 99.8284 460.191 100.135 460.428 100.369C460.692 100.524 461.003 100.602 461.318 100.591C465.405 100.753 467.383 99.4528 469.871 102.645C470.08 102.965 470.367 103.238 470.711 103.443C471.057 103.606 471.442 103.692 471.832 103.695C474.65 103.916 476.48 102.335 479.034 102.039C482.594 101.64 483.352 103.281 486.483 104.611C491.427 106.621 493.816 105.35 494.739 102.335Z" fill="#F5F5F5"/>
<path d="M534.934 104.138C535.179 103.281 535.328 102.405 535.379 101.522C535.725 96.0977 541.51 96.9549 546.421 96.2159C550.244 95.6395 540.092 86.9488 547.822 84.1554C549.327 83.7792 550.646 82.9559 551.563 81.8202C551.954 80.9703 552.004 80.0248 551.703 79.1457C551.402 78.2665 550.77 77.5086 549.915 77.0019C548.141 76.0532 546.094 75.5955 544.031 75.6865C542.779 74.312 543.8 72.2428 545.02 70.8387C546.239 69.4346 547.739 67.8827 547.278 66.1091C546.569 63.493 542.498 63.3895 539.549 63.9068C538.461 62.3254 538.494 60.3449 537.901 58.5565C537.307 56.7681 535.775 54.8763 533.715 55.098C531.655 55.3197 530.6 57.2706 528.771 57.6697C526.562 58.1279 524.651 56.3838 522.92 55.0684C521.19 53.753 518.174 52.9401 516.971 54.6693C516.262 55.7039 516.691 57.1524 515.949 58.1722C514.664 59.931 511.615 58.8373 509.72 57.581C507.825 56.3247 504.776 55.2014 503.49 56.9307C503.158 57.506 502.909 58.1169 502.749 58.7486C501.859 61.0691 499.074 62.2219 496.898 63.6999C494.723 65.1779 492.993 68.1339 494.838 69.9519C495.745 70.8534 497.343 71.2082 497.788 72.3462C498.365 73.8242 496.734 75.051 495.448 76.0264C493.306 77.667 492.927 82.5444 495.745 83.8746C496.931 84.4362 498.678 84.6136 499.041 85.7812C499.403 86.9489 498.101 87.6435 497.393 88.4564C496.894 89.0269 496.538 89.6873 496.35 90.3923C496.161 91.0974 496.145 91.8306 496.301 92.542C496.458 93.2533 496.783 93.926 497.256 94.5141C497.729 95.1023 498.338 95.592 499.041 95.9499C499.716 96.2455 500.557 96.482 500.804 97.1175C500.926 97.6133 500.869 98.1312 500.639 98.5955C500.365 99.4796 500.27 100.401 500.359 101.315C500.359 101.629 500.495 101.931 500.738 102.157C500.996 102.326 501.31 102.409 501.628 102.394C505.715 102.557 507.676 101.256 510.165 104.434C510.384 104.755 510.676 105.032 511.022 105.246C511.37 105.404 511.753 105.49 512.142 105.498C514.944 105.705 516.79 104.138 519.344 103.842C522.904 103.443 523.662 105.084 526.793 106.399C531.622 108.469 534.011 107.183 534.934 104.138Z" fill="#F5F5F5"/>
<path d="M559.341 118.918C559.594 118.063 559.743 117.186 559.786 116.302C560.148 110.878 565.916 111.735 570.827 110.996C574.667 110.42 564.499 101.729 572.245 98.9355C573.746 98.5584 575.059 97.7349 575.969 96.6002C576.361 95.7504 576.411 94.8048 576.11 93.9257C575.809 93.0466 575.177 92.2887 574.321 91.7819C572.553 90.8352 570.512 90.3776 568.454 90.4665C567.185 89.092 568.207 87.0228 569.427 85.6187C570.646 84.2146 572.146 82.6627 571.684 80.8891C570.992 78.273 566.905 78.1696 563.972 78.6869C562.884 77.1054 562.901 75.1249 562.324 73.3365C561.747 71.5481 560.198 69.6563 558.154 69.878C556.111 70.0997 555.023 72.0506 553.21 72.4497C551.002 72.9079 549.09 71.1638 547.36 69.8484C545.63 68.533 542.614 67.7201 541.427 69.4494C540.702 70.484 541.131 71.9324 540.389 72.9522C539.103 74.711 536.055 73.6173 534.176 72.361C532.297 71.1047 529.232 69.9814 527.93 71.7107C527.596 72.2838 527.352 72.8956 527.205 73.5286C526.299 75.8491 523.513 77.0019 521.338 78.4799C519.163 79.9579 517.449 82.9139 519.278 84.7319C520.184 85.6335 521.783 85.9882 522.244 87.1263C522.805 88.6043 521.173 89.831 519.888 90.8065C517.762 92.447 517.366 97.3244 520.201 98.6546C521.387 99.2163 523.118 99.3936 523.415 100.561C523.711 101.729 522.492 102.424 521.767 103.236C521.265 103.806 520.907 104.466 520.717 105.172C520.527 105.877 520.51 106.611 520.666 107.324C520.823 108.036 521.15 108.709 521.624 109.297C522.099 109.885 522.709 110.374 523.415 110.73C524.09 111.026 524.931 111.262 525.178 111.898C525.3 112.393 525.242 112.911 525.013 113.376C524.738 114.259 524.648 115.182 524.749 116.095C524.746 116.407 524.876 116.708 525.112 116.938C525.371 117.104 525.684 117.187 526.002 117.174C530.089 117.337 532.05 116.036 534.555 119.214C534.763 119.538 535.051 119.816 535.395 120.027C535.744 120.182 536.127 120.268 536.516 120.278C539.334 120.485 541.164 118.918 543.718 118.622C547.278 118.223 548.036 119.864 551.167 121.179C556.028 123.219 558.418 121.874 559.341 118.918Z" fill="#F5F5F5"/>
<path d="M551.942 137.57C551.942 137.57 541.74 150.518 538.214 154.612C534.687 158.706 517.136 184.29 514.697 201.213C514.433 203.016 514.186 204.568 513.939 205.928C521.519 250.741 520.333 431.766 520.053 445.807H486.186C489.894 307.141 493.817 186.256 493.058 181.837C492.267 177.151 482.248 159.356 466.69 152.04C451.133 144.724 437.818 120.514 437.818 120.514H442.762C442.762 120.514 451.924 135.294 464.944 143.571C466.817 144.722 468.771 145.763 470.794 146.69C470.765 137.756 472.523 128.891 475.985 120.514L478.638 122.731C475.046 135.945 475.524 144.414 476.611 149.335C481.529 151.405 486.068 154.131 490.076 157.42C503.589 141.664 511.187 105.69 511.187 105.69L514.647 107.375C513.667 114.84 512.175 122.244 510.181 129.545C507.643 138.871 500.194 156.43 496.734 164.396C500.882 169.743 504.307 175.513 506.935 181.585C507.296 181.067 507.734 180.594 508.237 180.181C517.136 172.865 533.616 139.152 533.616 139.152C537.62 131.304 531.506 110.73 531.506 110.73H536.121L538.197 128.732L549.733 117.366L551.843 118.948L539.516 133.151L533.187 151.153L549.667 134.733L551.942 137.57Z" fill="#F5F5F5"/>
<path d="M616.362 323.222H25.6856V341.18H616.362V323.222Z" fill="#E0E0E0"/>
<path d="M39.5948 434.737H11.7765V277.241L25.6856 268.373L39.5948 277.241V434.737Z" fill="#E6E6E6"/>
<path d="M88.8205 434.737H61.0023V277.241L74.9114 268.373L88.8205 277.241V434.737Z" fill="#E6E6E6"/>
<path d="M285.707 434.737H257.889V277.241L271.798 268.373L285.707 277.241V434.737Z" fill="#E6E6E6"/>
<path d="M581.045 434.737H553.227V277.241L567.136 268.373L581.045 277.241V434.737Z" fill="#E6E6E6"/>
<path d="M630.271 434.737H602.453V277.241L616.362 268.373L630.271 277.241V434.737Z" fill="#E6E6E6"/>
<path d="M609.111 436.451C609.111 436.451 613.725 422.617 604.397 419.868C595.07 417.119 589.565 410.646 589.878 403.33C590.192 396.013 580.386 388.889 573.036 395.747C565.686 402.605 566.658 390.471 556.852 387.53C547.047 384.588 538.724 391.727 541.427 398.26C544.13 404.793 534.423 408.887 522.838 403.33C511.252 397.772 498.513 407.882 500.969 415.789C503.424 423.696 501.414 424.583 494.08 421.952C486.747 419.321 473.628 426.785 478.226 436.451C482.824 446.118 609.111 436.451 609.111 436.451Z" fill="#E0E0E0"/>
<path d="M114.167 434.471C114.167 434.471 117.743 423.726 110.508 421.598C103.273 419.469 98.9722 414.429 99.2359 408.754C99.4995 403.078 91.8693 397.551 86.1507 402.842C80.4322 408.133 81.2067 398.748 73.593 396.457C65.9792 394.166 59.5355 399.723 61.612 404.793C63.6885 409.862 56.1901 413.04 47.192 408.754C38.1939 404.468 28.3059 412.286 30.2176 418.435C32.1293 424.583 30.5637 425.263 24.8616 423.209C19.1595 421.154 8.99138 426.963 12.5675 434.471C16.1437 441.979 114.167 434.471 114.167 434.471Z" fill="#E0E0E0"/>
<path d="M0.00979499 436.186V456.434H636.138V436.186C636.187 435.377 636.053 434.567 635.746 433.805C635.438 433.044 634.962 432.345 634.347 431.752C633.732 431.159 632.989 430.683 632.165 430.353C631.34 430.023 630.449 429.845 629.546 429.83H6.66772C5.75894 429.837 4.86112 430.009 4.02852 430.336C3.19592 430.662 2.44582 431.137 1.82353 431.731C1.20124 432.325 0.719676 433.026 0.407939 433.792C0.0962024 434.557 -0.0392413 435.372 0.00979499 436.186Z" fill="#EBEBEB"/>
<path d="M599.882 429.83H560.33V456.434H599.882V429.83Z" fill="#F5F5F5"/>
<path d="M75.8178 429.83H36.2658V456.434H75.8178V429.83Z" fill="#F5F5F5"/>
<path d="M147.077 259.609C211.827 263.097 276.857 263.23 341.541 258.397C375.869 255.825 410.098 251.849 443.997 246.292C474.864 241.222 507.248 236.286 535.429 223.324C541.935 220.354 548.168 216.924 554.067 213.067C562.505 207.554 570.366 200.829 574.486 192.242C598.745 141.768 470.168 160.538 446.733 161.558C379.61 164.514 312.487 168.712 245.331 171.121C205.68 172.599 147.325 160.346 128.208 125.48C125.521 120.559 123.725 115.016 124.78 109.607C126.021 104.612 128.842 100.045 132.905 96.4524C153.439 76.5733 189.81 70.9421 218.238 64.8527C248.336 58.4141 279.009 54.3684 309.9 52.7627" stroke="#E0E0E0" stroke-linecap="round" stroke-linejoin="round" stroke-dasharray="4.98 4.98"/>
<path d="M320.447 48.9347L390.817 44.8554L328.638 53.7382L351.215 62.5471L390.817 44.8554L311.152 42.5054L320.447 48.9347Z" fill="#F5F5F5"/>
<path d="M321.024 523.24C497.496 523.24 640.554 515.749 640.554 506.509C640.554 497.268 497.496 489.778 321.024 489.778C144.552 489.778 1.49298 497.268 1.49298 506.509C1.49298 515.749 144.552 523.24 321.024 523.24Z" fill="#F5F5F5"/>
<path opacity="0.7" d="M515.059 425.381H309.059C311.591 423.903 313.672 421.881 315.111 419.499C316.55 417.116 317.302 414.449 317.299 411.739V134.393C317.302 131.483 318.235 128.634 319.988 126.185C321.74 123.736 324.239 121.788 327.187 120.573H533.187C530.239 121.788 527.74 123.736 525.988 126.185C524.235 128.634 523.302 131.483 523.299 134.393V411.739C523.302 414.449 522.55 417.116 521.111 419.499C519.672 421.881 517.591 423.903 515.059 425.381Z" fill="white"/>
<path d="M509.028 203.563C506.111 202.262 497.36 203.681 495.069 203.918C492.778 204.154 491.691 204.036 489.598 204.258C487.505 204.479 487.291 204.258 486.928 203.563C486.565 202.868 482.907 203.327 481.984 203.016C481.061 202.706 472.838 204.272 464.037 204.258C455.237 204.243 461.137 204.391 459.868 203.016C458.599 201.642 454.363 204.036 453.441 204.184C452.518 204.332 450.342 204.391 450.013 202.972C449.683 201.553 447.409 204.45 445.184 204.154C442.959 203.859 447.771 200.74 444.723 202.144C441.674 203.548 434.653 204.154 434.653 204.154L436.878 205.632C428.473 205.75 421.156 205.869 419.69 205.987C418.223 206.105 417.316 206.105 415.668 203.726C414.02 201.346 414.202 204.332 407.989 205.75C401.776 207.169 400.309 206.815 397.376 205.514C394.442 204.213 392.992 205.632 390.784 205.869C388.575 206.105 387.405 205.987 385.312 206.209C383.219 206.43 383.022 206.209 382.643 205.514C382.263 204.819 378.621 205.278 377.699 204.967C376.776 204.657 368.552 206.223 359.752 206.209C350.951 206.194 356.851 206.342 355.582 204.967C354.313 203.593 350.078 205.987 349.172 206.135C348.265 206.283 346.057 206.342 345.744 204.923C345.431 203.504 343.123 206.401 340.915 206.105C338.707 205.81 343.502 202.691 340.437 204.095C337.372 205.499 330.368 206.105 330.368 206.105" stroke="#263238" stroke-linecap="round" stroke-linejoin="round"/>
<path d="M384.752 148.271C383.829 147.961 375.606 149.527 366.805 149.513C358.005 149.498 363.905 149.646 362.652 148.271C361.4 146.897 357.131 149.291 356.225 149.439C355.319 149.587 353.11 149.646 352.797 148.227C352.484 146.808 350.193 149.705 347.969 149.409C345.744 149.114 350.556 145.995 347.507 147.414C344.458 148.833 337.421 149.409 337.421 149.409" stroke="#263238" stroke-linecap="round" stroke-linejoin="round"/>
<path d="M509.027 356.019C508.121 355.708 499.898 357.275 491.097 357.26C482.297 357.246 488.18 357.393 486.928 356.019C485.675 354.644 481.423 357.039 480.501 357.186C479.578 357.334 477.402 357.393 477.073 355.974C476.743 354.556 474.469 357.452 472.244 357.157C470.019 356.861 474.832 353.743 471.783 355.147C468.734 356.551 461.697 357.157 461.697 357.157" stroke="#263238" stroke-linecap="round" stroke-linejoin="round"/>
<path d="M330.187 220.471C330.773 220.248 331.404 220.133 332.041 220.133C332.678 220.133 333.308 220.248 333.895 220.471L335.378 219.525C336.235 220.457 337.866 220.205 339.053 219.673C340.13 218.967 341.412 218.556 342.744 218.491C342.662 218.993 342.563 219.511 342.481 219.969C344.236 219.761 345.95 219.333 347.573 218.698C347.451 218.912 347.427 219.16 347.507 219.39C347.587 219.619 347.765 219.811 348.002 219.925C348.478 220.128 349.012 220.2 349.534 220.131L364.762 219.644L367.448 219.555C367.598 219.602 367.722 219.699 367.795 219.825C367.869 219.951 367.886 220.098 367.843 220.235C369.802 219.93 371.593 219.051 372.936 217.737C372.855 218.242 372.987 218.755 373.308 219.177C373.628 219.598 374.113 219.896 374.666 220.013C375.8 220.208 376.975 220.018 377.962 219.481C378.397 219.242 378.878 219.076 379.379 218.993C379.635 218.967 379.892 219.022 380.106 219.149C380.32 219.276 380.477 219.467 380.55 219.688C381.489 219.304 382.494 219.969 383.499 220.205C384.122 220.322 384.761 220.357 385.395 220.309L405.962 219.555L410.988 220.427C410.988 220.427 418.025 219.836 421.074 218.432C424.123 217.028 419.327 220.072 421.535 220.427C423.744 220.782 426.051 217.826 426.364 219.245C426.677 220.664 428.885 220.604 429.792 220.457C430.698 220.309 434.966 217.929 436.219 219.304C437.471 220.678 431.588 220.516 440.388 220.53C449.189 220.545 457.412 219.052 458.319 219.304C459.225 219.555 462.9 219.141 463.263 219.836C463.625 220.53 463.823 220.752 465.932 220.53C468.042 220.309 469.113 220.427 471.404 220.191C473.694 219.954 475.145 218.55 478.078 219.836C481.012 221.122 482.462 221.491 488.691 220.072C494.921 218.653 494.723 215.638 496.371 218.062C498.019 220.486 507.643 220.427 509.094 220.309" stroke="#263238" stroke-linecap="round" stroke-linejoin="round"/>
<path d="M508.764 191.473C508.138 191.473 509.39 191.473 508.764 191.37C507.775 191.133 509.703 190.468 508.764 190.852C508.682 190.394 499.469 190.128 498.958 190.172C498.456 190.246 497.975 190.406 497.541 190.645C496.554 191.183 495.379 191.372 494.245 191.177C493.707 191.045 493.242 190.741 492.938 190.321C492.634 189.901 492.513 189.396 492.597 188.901C491.251 190.215 489.462 191.097 487.505 191.414C487.548 191.275 487.531 191.126 487.458 190.997C487.385 190.869 487.26 190.77 487.109 190.719L484.423 190.808L469.195 191.31C468.671 191.366 468.141 191.289 467.663 191.089C467.426 190.976 467.249 190.784 467.168 190.554C467.088 190.325 467.112 190.076 467.234 189.862C465.612 190.498 463.897 190.926 462.142 191.133C462.241 190.616 462.323 190.098 462.406 189.655C461.075 189.728 459.795 190.138 458.714 190.837C457.528 191.37 455.896 191.621 455.039 190.69L453.556 191.65C452.97 191.424 452.34 191.307 451.702 191.307C451.064 191.307 450.433 191.424 449.848 191.65L435.016 190.35C435.016 190.35 428.16 190.483 427.073 189.936C425.985 189.389 422.129 191.31 422.129 191.31H417.185L410.873 191.517V190.438C408.435 190.898 405.961 191.19 403.473 191.31C399.913 191.429 399.089 191.887 398.925 190.438C398.76 188.99 394.145 190.837 390.487 191.517C386.828 192.197 387.57 192.064 386.466 190.438C385.362 188.813 383.994 190.66 382.082 191.325C381.088 191.72 380.013 191.924 378.926 191.924C377.839 191.924 376.764 191.72 375.77 191.325C374.122 190.424 366.986 191.887 364.086 191.916C361.186 191.946 363.971 191.192 363.361 189.936C362.751 188.68 360.675 192.064 358.713 191.916C356.752 191.769 360.362 188.532 357.609 188.783C355.003 189.325 352.514 190.249 350.243 191.517" stroke="#263238" stroke-linecap="round" stroke-linejoin="round"/>
<path d="M496.42 233.611C495.333 233.611 493.849 232.857 493.932 230.729C493.19 230.078 492.383 231.246 491.674 232.059C490.965 232.872 489.779 232.961 489.581 231.394C489.358 231.611 489.083 231.781 488.776 231.889C488.47 231.998 488.14 232.042 487.811 232.019C487.483 231.996 487.164 231.907 486.88 231.758C486.596 231.608 486.353 231.403 486.17 231.157C485.987 231.76 485.559 232.28 484.97 232.614C484.382 232.947 483.675 233.071 482.989 232.961L453.885 231.867C453.159 231.901 452.441 231.719 451.842 231.35C451.413 231.054 451.034 230.581 450.589 230.418C449.403 229.945 448.332 231.778 447.293 232.872C446.255 233.966 444.459 233.744 444.278 231.394C443.042 233.537 441.179 234.158 439.647 232.872C438.955 233.389 438.213 233.906 437.488 233.67C437 233.325 436.625 232.868 436.401 232.348C436.178 231.828 436.115 231.263 436.219 230.714C436.095 231.567 435.726 232.376 435.148 233.063C434.57 233.749 433.803 234.29 432.923 234.631C431.541 234.812 430.131 234.573 428.918 233.951L417.234 234.365C413.363 234.647 409.467 234.362 405.698 233.522C405.797 234.246 404.561 234.527 403.654 234.542L395.975 234.66C395.417 234.696 394.856 234.631 394.327 234.468C394.071 234.393 393.854 234.239 393.715 234.033C393.576 233.827 393.524 233.582 393.569 233.345C391.989 233.714 390.335 233.744 388.74 233.433C387.834 233.005 386.845 233.818 385.905 234.187C385.045 234.463 384.129 234.569 383.219 234.498L369.953 234.306C368.766 234.306 367.365 234.187 366.739 233.374C364.788 234.033 363.005 235.038 361.499 236.33C361.762 235.484 361.762 234.59 361.499 233.744C360.114 234.193 358.826 234.853 357.692 235.695C357.543 234.084 357.379 232.473 357.214 230.877C354.577 231.143 352.748 233.389 350.094 233.626C348.604 233.508 347.107 233.478 345.612 233.537C344.442 233.773 343.024 234.512 342.2 233.788C341.97 233.596 341.854 233.3 341.558 233.167C341.362 233.112 341.157 233.092 340.953 233.11C340.749 233.128 340.551 233.183 340.371 233.271C336.972 234.386 333.272 234.535 329.775 233.7" stroke="#263238" stroke-linecap="round" stroke-linejoin="round"/>
<path d="M328.44 263.91C328.44 263.91 334.059 263.319 336.498 261.9C338.937 260.481 335.098 263.555 336.877 263.91C338.657 264.265 340.487 261.294 340.75 262.713C341.014 264.132 342.761 264.087 343.486 263.939C344.211 263.792 347.622 261.397 348.628 262.772C349.633 264.146 344.92 263.999 351.924 264.013C358.928 264.028 365.553 262.535 366.278 262.772C367.003 263.008 369.936 262.609 370.233 263.319C370.53 264.028 370.678 264.22 372.359 264.013C374.04 263.806 374.913 263.91 376.743 263.673C378.572 263.437 379.742 262.018 382.099 263.319C384.455 264.619 385.609 264.959 390.586 263.555C395.563 262.151 395.414 259.121 396.733 261.53C398.051 263.939 398.776 263.91 399.946 263.792C401.117 263.673 406.983 263.555 413.707 263.437L425.869 263.067C429.36 263.909 433.054 263.764 436.45 262.654C436.629 262.565 436.827 262.511 437.031 262.493C437.235 262.475 437.441 262.495 437.636 262.55C437.933 262.683 438.065 262.964 438.295 263.171C439.103 263.88 440.52 263.171 441.707 262.905C443.202 262.859 444.699 262.893 446.189 263.008C448.826 262.772 450.655 260.525 453.309 260.244C453.457 261.855 453.622 263.466 453.787 265.063C454.916 264.225 456.198 263.57 457.577 263.127C457.848 263.971 457.848 264.868 457.577 265.713C459.077 264.413 460.861 263.406 462.818 262.757C463.444 263.57 464.828 263.673 466.015 263.688L479.298 263.88C480.207 263.95 481.123 263.844 481.984 263.57C482.923 263.2 483.912 262.388 484.818 262.801C486.411 263.124 488.067 263.099 489.647 262.727C489.602 262.965 489.654 263.209 489.793 263.415C489.932 263.622 490.15 263.776 490.405 263.851C490.936 264.009 491.496 264.069 492.053 264.028L499.733 263.91C500.639 263.91 501.859 263.629 501.776 262.905C505.517 263.732 505.072 264.028 508.863 263.747" stroke="#263238" stroke-linecap="round" stroke-linejoin="round"/>
<path d="M509.027 247.874C504.083 249.278 506.144 248.923 503.803 247.637C501.463 246.351 500.293 247.755 498.464 247.992C496.635 248.228 495.745 248.11 494.064 248.332C492.383 248.553 492.234 248.332 491.938 247.637C491.641 246.942 488.724 247.401 487.983 247.09C487.241 246.78 480.665 248.346 473.628 248.332C466.592 248.317 471.305 248.465 470.332 247.09C469.36 245.716 465.932 248.11 465.191 248.258C464.449 248.406 462.702 248.465 462.455 247.031C462.208 245.597 460.362 248.509 458.582 248.228C456.802 247.947 460.659 244.814 458.22 246.218C455.781 247.622 450.144 248.228 450.144 248.228L436.219 247.844L425.754 247.947C424.666 247.947 423.2 247.194 423.282 244.991C422.524 244.341 421.733 245.509 421.008 246.322C420.283 247.135 419.113 247.223 418.931 245.657C418.707 245.874 418.43 246.044 418.122 246.152C417.815 246.261 417.483 246.305 417.154 246.282C416.824 246.259 416.504 246.17 416.218 246.021C415.933 245.871 415.688 245.666 415.503 245.42C415.321 246.02 414.895 246.537 414.31 246.871C413.725 247.204 413.022 247.33 412.339 247.223L383.236 246.13C382.504 246.167 381.779 245.985 381.176 245.612C380.805 245.26 380.39 244.948 379.94 244.681C378.737 244.208 377.665 246.041 376.644 247.135C375.622 248.228 373.793 248.021 373.628 245.657C372.375 247.8 370.513 248.42 368.98 247.135C368.288 247.652 367.563 248.184 366.838 247.933C366.35 247.587 365.973 247.131 365.747 246.611C365.521 246.092 365.454 245.527 365.553 244.977C365.425 245.829 365.055 246.637 364.478 247.323C363.9 248.009 363.135 248.55 362.257 248.893C360.869 249.073 359.454 248.834 358.235 248.213" stroke="#263238" stroke-linecap="round" stroke-linejoin="round"/>
<path d="M509.028 150.902L479.924 149.793C479.197 149.836 478.475 149.653 477.88 149.276C477.503 148.924 477.083 148.612 476.628 148.345C475.441 147.887 474.37 149.705 473.332 150.813C472.294 151.922 470.481 151.685 470.316 149.335C469.064 151.478 467.201 152.099 465.669 150.813C464.976 151.331 464.251 151.863 463.51 151.626C463.026 151.278 462.653 150.821 462.431 150.302C462.208 149.782 462.142 149.219 462.241 148.67C462.114 149.522 461.743 150.33 461.166 151.016C460.589 151.703 459.824 152.243 458.945 152.587C457.558 152.755 456.147 152.516 454.924 151.907" stroke="#263238" stroke-linecap="round" stroke-linejoin="round"/>
<path d="M509.028 368.523L479.924 367.429C479.198 367.463 478.479 367.281 477.88 366.912C477.504 366.555 477.083 366.238 476.628 365.966C475.441 365.507 474.37 367.34 473.332 368.434C472.294 369.528 470.481 369.306 470.316 366.956C469.064 369.099 467.201 369.72 465.669 368.434C464.976 368.951 464.251 369.469 463.51 369.232C463.026 368.884 462.653 368.427 462.431 367.908C462.208 367.388 462.142 366.825 462.241 366.276C462.114 367.128 461.743 367.936 461.166 368.622C460.589 369.308 459.824 369.849 458.945 370.193C457.557 370.375 456.142 370.136 454.924 369.513" stroke="#263238" stroke-linecap="round" stroke-linejoin="round"/>
<path d="M328.44 291.578C332.806 292.414 337.336 292.267 341.624 291.149C342.092 290.97 342.613 290.934 343.107 291.046C343.469 291.179 343.618 291.46 343.914 291.667C344.936 292.376 346.683 291.667 348.15 291.401C349.946 291.105 351.858 291.637 353.704 291.504C357 291.268 359.257 289.021 362.553 288.74L363.147 293.559C364.603 292.708 366.191 292.056 367.86 291.622C368.197 292.458 368.197 293.373 367.86 294.209C369.808 292.872 372.015 291.87 374.369 291.253C375.519 292.005 376.945 292.338 378.358 292.184L394.838 292.376C395.948 292.444 397.063 292.339 398.134 292.066C399.304 291.696 400.523 290.883 401.66 291.312C403.648 291.623 405.684 291.592 407.659 291.223C407.445 291.667 407.939 292.14 408.582 292.347C409.27 292.508 409.981 292.573 410.691 292.539L420.233 292.406C421.354 292.406 422.887 292.125 422.771 291.401C427.49 292.237 432.309 292.52 437.109 292.243L448.876 292.805C450.591 292.347 452.417 292.347 454.133 292.805L456.226 291.844C457.445 292.775 459.769 292.539 461.45 291.992C463.087 291.277 464.871 290.875 466.69 290.809C466.575 291.327 466.443 291.829 466.328 292.287C468.776 292.085 471.195 291.659 473.546 291.016C473.101 291.415 473.546 292.007 474.139 292.243C474.847 292.445 475.591 292.52 476.331 292.465L497.92 291.962L501.743 291.874C502.172 291.947 502.452 292.287 502.304 292.568C504.745 292.31 507.056 291.445 508.978 290.07C508.583 291.061 507.445 292.081 508.978 292.332" stroke="#263238" stroke-linecap="round" stroke-linejoin="round"/>
<path d="M508.698 276.813C507.561 276.399 509.868 277.197 508.698 277.581C507.528 277.966 509.819 277.892 508.698 277.892L490.306 277.685C488.896 277.835 487.474 277.509 486.318 276.768C483.966 277.391 481.76 278.393 479.809 279.724C480.146 278.894 480.146 277.983 479.809 277.153C478.134 277.574 476.544 278.227 475.095 279.089L474.502 274.271C471.206 274.551 468.948 276.798 465.652 277.034C463.806 277.167 461.895 276.621 460.098 276.931C458.632 277.182 456.802 277.906 455.863 277.182C455.566 276.99 455.418 276.694 455.056 276.561C454.561 276.457 454.043 276.493 453.572 276.665C449.287 277.797 444.754 277.945 440.388 277.093L435.56 277.478L406.374 278.232C405.471 278.279 404.566 278.244 403.671 278.128C402.254 277.892 400.82 277.227 399.485 277.611C399.353 277.153 398.546 276.887 397.837 276.916C397.149 276.988 396.476 277.152 395.843 277.404C394.387 277.933 392.803 278.116 391.245 277.936C389.696 277.685 388.394 276.65 388.789 275.66C386.672 277.051 384.181 277.912 381.571 278.158C381.703 277.892 381.439 277.552 380.994 277.463L377.188 277.566L355.599 278.054C354.86 278.116 354.115 278.045 353.407 277.847C352.764 277.596 352.369 277.005 352.797 276.621C350.446 277.266 348.027 277.692 345.579 277.892C345.711 277.374 345.826 276.857 345.958 276.34C344.136 276.401 342.35 276.809 340.717 277.537C339.069 278.069 336.696 278.32 335.493 277.389L333.384 278.335C331.667 277.884 329.843 277.884 328.127 278.335" stroke="#263238" stroke-linecap="round" stroke-linejoin="round"/>
<path d="M328.094 306.757C329.455 307.064 330.863 307.174 332.263 307.082C332.975 307.032 333.664 306.831 334.272 306.494C334.879 306.157 335.389 305.695 335.757 305.146C335.749 305.492 335.877 305.829 336.118 306.099C336.359 306.369 336.697 306.555 337.075 306.624C337.849 306.674 338.623 306.536 339.317 306.225C340.12 306.519 341 306.602 341.855 306.466C342.709 306.33 343.503 305.98 344.145 305.456C344.326 306.639 346.156 306.757 347.276 306.21C348.397 305.663 349.518 304.732 350.754 304.983C351.199 305.108 351.634 305.261 352.056 305.442C352.742 305.64 353.461 305.73 354.181 305.708L384.455 306.254C385.045 306.341 385.649 306.305 386.221 306.149C386.792 305.993 387.316 305.72 387.751 305.353C388.295 305.615 388.899 305.763 389.516 305.783C390.133 305.804 390.747 305.697 391.311 305.471C391.509 306.254 392.745 306.195 393.486 305.796C394.228 305.397 395.052 304.821 395.826 305.146C395.744 306.195 397.277 306.624 398.414 306.624H409.291L413.147 306.447C414.862 305.989 416.689 305.989 418.404 306.447L420.513 305.486C421.733 306.417 424.057 306.166 425.738 305.634C427.371 304.91 429.158 304.507 430.978 304.451C430.846 304.969 430.731 305.471 430.599 305.929C433.053 305.729 435.477 305.303 437.834 304.658C437.389 305.057 437.834 305.648 438.427 305.885C439.134 306.088 439.879 306.163 440.619 306.107L462.208 305.604L466.015 305.515C466.46 305.589 466.723 305.929 466.592 306.21C469.201 305.952 471.689 305.085 473.81 303.698C473.414 304.703 474.733 305.722 476.265 305.974C477.823 306.163 479.41 305.979 480.863 305.442C481.503 305.193 482.181 305.033 482.874 304.969C483.582 304.969 484.39 305.19 484.522 305.648C485.943 305.526 487.376 305.703 488.708 306.166C489.602 306.289 490.508 306.324 491.41 306.269" stroke="#263238" stroke-linecap="round" stroke-linejoin="round"/>
<path d="M573.167 324.803V503.774C573.153 505.223 572.545 506.616 571.461 507.69C570.376 508.763 568.89 509.442 567.284 509.598H566.625H275.605H274.929C273.329 509.435 271.851 508.753 270.773 507.681C269.695 506.608 269.092 505.218 269.078 503.774V324.803L398.628 405L405.714 409.434L417.085 416.484L429.099 409.434L436.581 405L573.167 324.803Z" fill="#407BFF"/>
<path d="M82.7064 509.627H95.1323L95.1323 271.196H82.7064L82.7064 509.627Z" fill="#263238"/>
<path d="M72.6042 233.108H110.508C115.163 233.108 119.627 234.767 122.919 237.719C126.21 240.671 128.059 244.674 128.059 248.849V274.463H55.053V248.849C55.053 244.674 56.9021 240.671 60.1936 237.719C63.4851 234.767 67.9493 233.108 72.6042 233.108Z" fill="#407BFF"/>
<path opacity="0.4" d="M110.937 233.108H112.173C116.369 233.108 120.393 234.603 123.36 237.264C126.327 239.925 127.993 243.534 127.993 247.297V274.463H95.1323V247.282C95.1367 243.524 96.8032 239.921 99.7661 237.264C102.729 234.607 106.746 233.112 110.937 233.108Z" fill="black"/>
<path d="M95.1323 273.724H127.993L138.788 290.233C142.084 295.288 137.42 299.382 128.34 299.382C119.276 299.382 109.239 295.288 105.927 290.233L95.1323 273.724Z" fill="#407BFF"/>
<path opacity="0.2" d="M95.1323 273.724H127.993L138.788 290.233C142.084 295.288 137.42 299.382 128.34 299.382C119.276 299.382 109.239 295.288 105.927 290.233L95.1323 273.724Z" fill="black"/>
<path opacity="0.4" d="M95.1323 249.839H100.67L106.471 272.246H95.1323V249.839Z" fill="white"/>
<path opacity="0.4" d="M102.664 254.362H106.471L116.194 272.246H113.145L102.664 254.362Z" fill="white"/>
<path opacity="0.4" d="M110.179 258.914H112.634L125.653 272.246H123.725L110.179 258.914Z" fill="white"/>
<path d="M83.7117 253.992V224.758H79.6741V227.817H81.8824V253.992C81.2027 254.386 80.6541 254.938 80.2945 255.588C79.9348 256.238 79.7774 256.964 79.8389 257.687C79.8389 259.845 81.1738 261.589 82.7888 261.589C84.4039 261.589 85.7387 259.845 85.7387 257.687C85.7984 256.965 85.642 256.242 85.2856 255.593C84.9292 254.943 84.3859 254.391 83.7117 253.992Z" fill="#407BFF"/>
<path opacity="0.7" d="M83.7117 253.992V224.758H79.6741V227.817H81.8824V253.992C81.2027 254.386 80.6541 254.938 80.2945 255.588C79.9348 256.238 79.7774 256.964 79.8389 257.687C79.8389 259.845 81.1738 261.589 82.7888 261.589C84.4039 261.589 85.7387 259.845 85.7387 257.687C85.7984 256.965 85.642 256.242 85.2856 255.593C84.9292 254.943 84.3859 254.391 83.7117 253.992Z" fill="white"/>
<path opacity="0.2" d="M95.1323 301.643L82.7064 294.726V509.627H95.1323V301.643Z" fill="white"/>
<path d="M51.6911 509.627H134.651C134.651 509.627 137.75 505.918 117.924 505.548C117.924 505.548 135.871 491.404 133.152 487.339C130.433 483.275 116.194 498.143 116.194 498.143C116.194 498.143 124.945 482.063 121.879 477.451C118.814 472.84 109.421 492.852 109.421 492.852C109.421 492.852 106.619 481.235 102.664 480.097C98.7085 478.959 88.9194 493.281 88.9194 493.281C88.9194 493.281 76.1144 463.1 69.3906 465.287C62.6668 467.475 73.6589 488.255 73.6589 488.255C73.6589 488.255 62.1229 478.915 55.053 482.225C47.9831 485.536 59.6344 499.074 59.6344 499.074C59.6344 499.074 51.0813 501.484 51.6911 509.627Z" fill="#407BFF"/>
<path opacity="0.4" d="M51.6911 509.627H134.651C134.651 509.627 137.75 505.918 117.924 505.548C117.924 505.548 135.871 491.404 133.152 487.339C130.433 483.275 116.194 498.143 116.194 498.143C116.194 498.143 124.945 482.063 121.879 477.451C118.814 472.84 109.421 492.852 109.421 492.852C109.421 492.852 106.619 481.235 102.664 480.097C98.7085 478.959 88.9194 493.281 88.9194 493.281C88.9194 493.281 76.1144 463.1 69.3906 465.287C62.6668 467.475 73.6589 488.255 73.6589 488.255C73.6589 488.255 62.1229 478.915 55.053 482.225C47.9831 485.536 59.6344 499.074 59.6344 499.074C59.6344 499.074 51.0813 501.484 51.6911 509.627Z" fill="white"/>
<path d="M223.792 135.575C225.326 134.041 227.277 132.891 229.455 132.235C231.633 131.58 233.963 131.442 236.218 131.836C244.458 133.003 260.938 145.892 259.405 159.814C257.872 173.737 253.093 186.418 248.215 186.98C248.215 186.98 243.881 182.029 221.105 182.649C198.33 183.27 202.467 170.352 206.175 160.051C209.883 149.749 208.795 130.742 223.792 135.575Z" fill="#263238"/>
<path d="M254.214 192.936C258.746 196.735 273.462 219.097 275.193 220.072C276.923 221.048 277.665 210.864 277.665 210.864L285.691 209.593C285.691 209.593 290.025 234.261 278.39 232.015C265.338 229.472 248.199 208.13 248.199 208.13C248.199 208.13 249.435 201.213 250.061 198.686C250.687 196.158 254.214 192.936 254.214 192.936Z" fill="#407BFF"/>
<path opacity="0.4" d="M278.39 232.015C268.304 230.049 255.796 216.88 250.621 210.983C249.089 209.239 248.199 208.13 248.199 208.13C248.199 208.13 248.858 204.479 249.435 201.523C249.665 200.4 249.896 199.38 250.061 198.686C250.704 196.144 254.214 192.936 254.214 192.936C258.746 196.735 273.462 219.097 275.193 220.072C276.923 221.048 277.665 210.864 277.665 210.864L285.691 209.593C285.691 209.593 290.025 234.202 278.39 232.015Z" fill="white"/>
<path opacity="0.2" d="M250.621 210.983C249.089 209.239 248.199 208.13 248.199 208.13C248.199 208.13 248.858 204.479 249.435 201.523C250.751 204.528 251.16 207.791 250.621 210.983Z" fill="black"/>
<path d="M247.061 211.175C244.952 216.85 243.304 221.757 241.969 226.162C238.384 237.192 236.07 248.524 235.064 259.978L184.322 255.086C182.987 222.57 184.322 204.642 185.426 195.715C186.662 186.211 188.31 185.886 188.31 185.886C188.31 185.886 199.846 185.088 209.866 185.339C217.616 185.705 225.326 186.569 232.938 187.926C240.157 189.129 247.267 190.804 254.214 192.936C252.978 195.892 251.857 198.73 250.819 201.376C249.435 204.893 248.182 208.145 247.061 211.175Z" fill="#407BFF"/>
<path opacity="0.4" d="M254.214 192.936C252.978 195.892 251.857 198.73 250.819 201.376C249.435 204.893 248.182 208.145 247.061 211.175C244.952 216.85 243.304 221.757 241.969 226.162C238.384 237.192 236.07 248.524 235.064 259.978L184.322 255.086C184.157 251.081 184.042 247.312 183.943 243.735C183.745 235.695 183.712 228.733 183.811 222.718C183.811 221.654 183.811 220.619 183.811 219.614C184.042 209.682 184.586 202.588 185.13 197.681C185.229 196.971 185.294 196.321 185.377 195.715C186.613 186.211 188.261 185.886 188.261 185.886C188.261 185.886 199.797 185.088 209.817 185.325C217.566 185.702 225.276 186.571 232.889 187.926C240.124 189.127 247.251 190.802 254.214 192.936Z" fill="white"/>
<path opacity="0.2" d="M190.123 199.306C190.123 199.306 188.92 211.308 183.861 219.614C184.091 209.682 184.635 202.588 185.179 197.681C186.893 198.045 188.553 198.591 190.123 199.306Z" fill="black"/>
<path opacity="0.2" d="M232.51 241.843L217.48 240.218C217.48 240.218 215.222 244.238 211.646 244.652C208.07 245.065 199.731 239.331 199.731 239.331C194.836 241.706 189.475 243.212 183.943 243.765C183.745 235.724 183.712 228.763 183.811 222.748C188.409 223.043 200.291 224.506 217.084 231.305C219.144 232.103 232.51 241.843 232.51 241.843Z" fill="black"/>
<path d="M280.45 496.636L270.051 498.276L265.783 485.565L261.893 473.904L273.874 470.135L277.368 484.161L280.45 496.636Z" fill="#E4897B"/>
<path opacity="0.2" d="M277.418 484.457L265.832 485.817L261.926 474.022L273.891 470.209L277.418 484.457Z" fill="black"/>
<path d="M211.053 500.922H200.489L198.759 487.59L197.193 475.426L209.718 473.549L210.426 488.034L211.053 500.922Z" fill="#E4897B"/>
<path opacity="0.2" d="M210.426 488.167L198.759 487.694L197.193 475.471L209.718 473.579L210.426 488.167Z" fill="black"/>
<path d="M278.39 477.052L261.3 479.757C244.062 441.226 231.801 409.064 223.133 382.372C218.469 367.976 214.579 355.162 211.778 343.796L212.305 385.741V480.23H195.463C153.257 299.914 183.449 254.894 183.449 254.894L233.68 251.288C235.685 259.678 237.1 268.174 237.915 276.724L240.189 291.755L259.965 383.199L278.39 477.052Z" fill="#263238"/>
<path opacity="0.2" d="M223.133 382.372C218.469 367.976 214.893 355.162 212.041 343.796C212.289 330.345 213.39 316.918 215.337 303.579C215.337 303.579 222.704 355.398 223.133 382.372Z" fill="black"/>
<path d="M184.174 247.667L236.201 250.401L235.377 258.441L182.954 255.603L184.174 247.667Z" fill="black"/>
<path d="M220.067 249.869C219.442 249.248 218.575 248.867 217.645 248.805L211.25 248.435C210.873 248.403 210.493 248.444 210.135 248.555C209.777 248.666 209.449 248.844 209.175 249.078C208.9 249.312 208.684 249.596 208.542 249.911C208.4 250.225 208.334 250.564 208.35 250.903V254.598C208.369 255.392 208.698 256.155 209.279 256.755C209.86 257.354 210.657 257.752 211.531 257.88H211.811L218.205 258.234C218.581 258.264 218.959 258.221 219.315 258.11C219.671 257.998 219.997 257.819 220.27 257.585C220.543 257.352 220.757 257.069 220.898 256.755C221.039 256.441 221.105 256.104 221.089 255.766V252.086C221.069 251.258 220.705 250.467 220.067 249.869ZM218.057 256.771L211.662 256.416C211.206 256.391 210.78 256.205 210.476 255.899C210.166 255.602 209.989 255.212 209.981 254.805V251.125C209.976 250.96 210.01 250.796 210.08 250.644C210.151 250.491 210.256 250.354 210.39 250.241C210.524 250.128 210.683 250.041 210.857 249.987C211.031 249.933 211.216 249.913 211.399 249.928L217.793 250.283H217.925C218.324 250.35 218.688 250.531 218.963 250.8C219.274 251.091 219.45 251.476 219.457 251.879V252.44C219.376 252.427 219.292 252.427 219.21 252.44L217.414 252.322C217.278 252.313 217.141 252.331 217.014 252.374C216.886 252.417 216.77 252.484 216.675 252.572C216.579 252.659 216.506 252.764 216.46 252.879C216.414 252.994 216.396 253.117 216.409 253.239C216.44 253.509 216.573 253.761 216.786 253.955C216.998 254.148 217.278 254.271 217.579 254.303L219.375 254.421H219.457V255.633C219.456 255.792 219.418 255.949 219.345 256.095C219.272 256.24 219.167 256.37 219.035 256.477C218.903 256.584 218.749 256.665 218.58 256.716C218.412 256.767 218.234 256.785 218.057 256.771Z" fill="white"/>
<path d="M198.017 494.463C198.017 493.488 211.597 494.256 211.597 494.256C211.597 494.256 219.919 501.853 228.077 503.568C236.234 505.282 231.653 509.627 222.605 509.627H200.159C193.732 509.627 197.753 504.676 198.017 494.463Z" fill="#263238"/>
<path d="M218.716 497.36C216.761 497.163 214.86 496.663 213.096 495.882L212.981 495.808C212.948 495.727 212.948 495.638 212.981 495.557C212.981 495.438 214.167 492.601 216.013 491.921C216.286 491.804 216.584 491.743 216.887 491.743C217.189 491.743 217.487 491.804 217.76 491.921C218.386 492.187 218.683 492.527 218.65 492.941C218.65 493.576 217.645 494.226 216.541 494.744C217.568 494.584 218.624 494.686 219.589 495.039C219.764 495.127 219.917 495.245 220.039 495.388C220.161 495.53 220.249 495.693 220.298 495.867C220.395 496.087 220.417 496.328 220.361 496.56C220.306 496.792 220.175 497.003 219.985 497.168C219.599 497.36 219.151 497.428 218.716 497.36ZM214.349 495.616C216.343 496.384 218.815 497.094 219.457 496.576C219.457 496.576 219.688 496.414 219.457 495.941C219.433 495.849 219.386 495.763 219.321 495.689C219.255 495.615 219.173 495.555 219.078 495.512C217.52 495.164 215.886 495.2 214.349 495.616ZM216.771 492.276C216.579 492.275 216.388 492.311 216.211 492.379C215.15 493.011 214.337 493.926 213.887 494.995C215.898 494.3 217.842 493.369 217.875 492.822C217.875 492.645 217.579 492.482 217.397 492.409C217.202 492.325 216.988 492.279 216.771 492.276Z" fill="#263238"/>
<path d="M267.233 494.463C267.233 493.488 280.813 494.256 280.813 494.256C280.813 494.256 289.135 501.853 297.293 503.568C305.45 505.282 300.869 509.627 291.821 509.627H269.375C262.948 509.627 266.969 504.676 267.233 494.463Z" fill="#263238"/>
<path d="M287.932 497.36C285.977 497.163 284.076 496.663 282.312 495.882L282.197 495.808C282.164 495.727 282.164 495.638 282.197 495.557C282.197 495.438 283.383 492.601 285.229 491.921C285.502 491.804 285.8 491.743 286.103 491.743C286.405 491.743 286.703 491.804 286.976 491.921C287.602 492.187 287.899 492.527 287.866 492.941C287.866 493.576 286.861 494.226 285.757 494.744C286.784 494.584 287.84 494.686 288.805 495.039C288.98 495.127 289.133 495.245 289.255 495.388C289.377 495.53 289.465 495.693 289.514 495.867C289.611 496.087 289.633 496.328 289.577 496.56C289.522 496.792 289.391 497.003 289.201 497.168C288.815 497.36 288.367 497.428 287.932 497.36ZM283.565 495.616C285.559 496.384 288.031 497.094 288.673 496.576C288.673 496.576 288.904 496.414 288.673 495.941C288.649 495.849 288.602 495.763 288.537 495.689C288.471 495.615 288.389 495.555 288.294 495.512C286.736 495.164 285.102 495.2 283.565 495.616ZM285.987 492.276C285.795 492.275 285.604 492.311 285.427 492.379C284.366 493.011 283.553 493.926 283.103 494.995C285.114 494.3 287.058 493.369 287.091 492.822C287.091 492.645 286.795 492.482 286.613 492.409C286.418 492.325 286.204 492.279 285.987 492.276Z" fill="#263238"/>
<path d="M268.996 182.723C268.996 182.723 254.543 194.754 253.95 199.129C253.357 203.504 250.061 220.072 250.061 220.072H275.193C275.193 220.072 279.115 204.199 281.06 201.376C283.004 198.553 293.453 190.66 293.453 190.66L268.996 182.723Z" fill="#407BFF"/>
<path opacity="0.7" d="M268.996 182.723C268.996 182.723 254.543 194.754 253.95 199.129C253.357 203.504 250.061 220.072 250.061 220.072H275.193C275.193 220.072 279.115 204.199 281.06 201.376C283.004 198.553 293.453 190.66 293.453 190.66L268.996 182.723Z" fill="white"/>
<path d="M196.039 185.428C198.765 189.348 202.424 192.677 206.756 195.176C211.087 197.676 215.982 199.283 221.089 199.883C238.212 201.642 244.161 190.128 244.161 190.128C244.161 190.128 221.089 182.723 196.039 185.428Z" fill="#EEC1BB"/>
<path d="M221.6 197.518C210.888 192.419 209.322 186.965 209.322 186.965C219.013 183.344 217.48 170.87 217.48 170.87L230.071 177.728C229.047 179.309 228.149 180.954 227.384 182.649C224.187 190.039 227.862 191.325 227.862 191.325C228.571 196.114 221.6 197.518 221.6 197.518Z" fill="#EEC1BB"/>
<path opacity="0.2" d="M230.071 177.728C229.047 179.309 228.149 180.954 227.384 182.649C218.238 179.56 217.496 170.825 217.496 170.825L230.071 177.728Z" fill="black"/>
<path d="M236.877 141.236C248.891 144.635 250.72 151.582 247.688 162.859C243.897 177.048 236.992 185.931 222.968 178.703C204.016 168.904 216.92 135.575 236.877 141.236Z" fill="#EEC1BB"/>
<path d="M240.123 160.051C240.518 161.937 241.166 163.773 242.052 165.519C241.543 165.863 240.938 166.073 240.304 166.128C239.67 166.183 239.032 166.079 238.459 165.83L240.123 160.051Z" fill="#D4827D"/>
<path d="M233.086 157.095C232.806 157.982 232.032 158.573 231.438 158.395C230.845 158.218 230.466 157.361 230.746 156.459C231.026 155.558 231.817 154.981 232.394 155.159C232.971 155.336 233.383 156.193 233.086 157.095Z" fill="#263238"/>
<path d="M232.114 155.129L234.537 154.937C234.537 154.937 232.922 156.282 232.114 155.129Z" fill="#263238"/>
<path d="M245.512 160.125C245.216 161.011 244.441 161.603 243.782 161.425C243.123 161.248 242.81 160.391 243.106 159.504C243.403 158.617 244.161 158.026 244.837 158.203C245.512 158.381 245.793 159.238 245.512 160.125Z" fill="#263238"/>
<path d="M244.54 158.174L246.946 157.967C246.946 157.967 245.348 159.327 244.54 158.174Z" fill="#263238"/>
<path d="M235.591 149.616C234.678 149.244 233.683 149.065 232.68 149.09C231.678 149.116 230.695 149.346 229.807 149.764" stroke="#263238" stroke-width="0.72468" stroke-linecap="round" stroke-linejoin="round"/>
<path d="M244.474 151.641C245.36 151.687 246.224 151.911 247 152.297C247.776 152.684 248.445 153.222 248.957 153.873" stroke="#263238" stroke-width="0.72468" stroke-linecap="round" stroke-linejoin="round"/>
<path d="M235.212 169.584C234.215 170.635 233.306 171.752 232.493 172.924L231.735 172.643C228.439 171.328 227.269 169.687 227.088 168.328C227.013 167.65 227.12 166.965 227.401 166.332C227.552 165.969 227.757 165.626 228.011 165.312C229.701 166.951 231.763 168.247 234.059 169.111C234.751 169.421 235.212 169.584 235.212 169.584Z" fill="#263238"/>
<path d="M234.059 169.17L233.235 170.145C230.054 168.904 227.994 167.648 227.401 166.391C227.552 166.028 227.757 165.685 228.011 165.372C229.701 167.01 231.763 168.306 234.059 169.17Z" fill="white"/>
<path d="M231.735 172.643C228.439 171.328 227.269 169.687 227.088 168.328C228.365 168.844 229.527 169.566 230.516 170.456C231.177 171.046 231.605 171.814 231.735 172.643Z" fill="#DE5753"/>
<path d="M217.348 155.676C217.348 155.676 226.082 148.419 227.632 141.339C227.632 141.339 254.51 139.359 248.05 161.366C248.05 161.366 257.164 142.788 236.663 136.506C216.161 130.225 206.702 157.346 214.513 168.431C214.513 168.431 211.91 160.302 217.348 155.676Z" fill="#263238"/>
<path d="M218.502 158.499C218.822 157.221 218.565 155.882 217.786 154.774C217.008 153.666 215.772 152.879 214.349 152.587C210.492 151.907 206.306 158.248 214.991 162.519C216.227 163.125 217.397 162.164 218.502 158.499Z" fill="#EEC1BB"/>
<path d="M285.229 209.667L284.603 204.923C284.603 204.923 285.822 201.967 285.229 200.755C284.109 198.346 276.989 195.375 275.918 194.843C274.847 194.311 269.82 201.479 270.48 202.928C271.139 204.376 279.395 207.701 279.395 207.701V210.657L285.229 209.667Z" fill="#EEC1BB"/>
<path d="M241.656 230.847L234.833 222.171C234.833 222.171 217.315 223.989 217.084 224.462L211.728 235.68C211.67 235.803 211.641 235.935 211.643 236.068C211.644 236.202 211.676 236.333 211.736 236.455C211.796 236.577 211.883 236.687 211.993 236.777C212.102 236.867 212.231 236.937 212.371 236.981L234.652 243.75C234.908 243.826 235.187 243.813 235.434 243.715C235.681 243.616 235.878 243.439 235.987 243.218L241.574 231.955C241.698 231.597 241.726 231.217 241.656 230.847Z" fill="#407BFF"/>
<path opacity="0.1" d="M241.705 231.246C238.422 232.361 234.866 232.667 231.405 232.133C225.654 230.98 217.084 224.432 217.084 224.432C217.315 223.959 234.833 222.141 234.833 222.141L241.656 230.817C241.656 230.817 241.689 231.024 241.705 231.246Z" fill="black"/>
<path opacity="0.1" d="M218.238 224.728C225.647 227.955 233.56 230.153 241.705 231.246C241.705 231.246 228.423 227.285 218.238 224.728Z" fill="black"/>
<path d="M186.382 229.664L205.713 230.921C205.713 230.921 208.762 229.088 210.41 229.443C212.058 229.798 220.858 234.113 221.04 235.355C221.221 236.596 216.541 242.183 214.448 241.917C212.355 241.651 205.334 236.892 204.856 236.212L181.784 236.596L186.382 229.664Z" fill="#EEC1BB"/>
<path d="M189.81 185.797C192.134 186.463 193.979 192.936 187.898 203.933C187.898 203.933 179.658 220.619 181.306 223.413C183.169 226.797 199.78 229.561 199.78 229.561L198.462 239.109C198.462 239.109 176.428 241.843 170.133 229.517C163.837 217.19 181.965 183.521 189.81 185.797Z" fill="#407BFF"/>
<path opacity="0.4" d="M189.81 185.797C192.134 186.463 193.979 192.936 187.898 203.933C187.898 203.933 179.658 220.619 181.306 223.413C183.169 226.797 199.78 229.561 199.78 229.561L198.462 239.109C198.462 239.109 176.428 241.843 170.133 229.517C163.837 217.19 181.965 183.521 189.81 185.797Z" fill="white"/>
<path d="M234.52 136.004C234.52 136.004 244.408 129.737 255.499 143.571C258.718 147.441 260.802 151.973 261.562 156.753C262.322 161.532 261.734 166.406 259.85 170.929" stroke="#263238" stroke-width="0.5" stroke-linecap="round" stroke-linejoin="round"/>
</svg>
