<svg width="487" height="368" viewBox="0 0 487 368" fill="none" xmlns="http://www.w3.org/2000/svg">
<path d="M198.107 278.458C196.101 279.193 194.231 279.811 192.303 280.709C190.745 281.445 184.22 284.726 183.519 285.639C182.506 286.963 183.48 288.626 185.583 288.626C195.712 288.096 207.009 289.303 217.001 288.626C222.123 288.273 223.175 285.683 223.526 282.254C223.604 281.415 223.837 277.486 222.941 277.339L221.656 277.457C223.954 276.265 227.168 272.557 229.291 271.644C230.012 271.335 230.538 271.527 231.336 271.218C232.135 270.909 233.323 269.952 234.18 269.967C240.53 273.734 247.386 277.015 254.885 279.311C254.885 281.695 251.651 282.445 249.84 283.799C248.223 285.021 246.139 287.699 249.567 288.273C251.165 288.537 256.287 288.449 258.099 288.346C262.754 288.067 266.961 286.36 269.493 283.387L270.058 283.24C286.672 286.095 303.891 286.536 320.7 284.388L313.201 312.2C313.259 315.099 316.064 317.924 319.94 318.424C352.507 318.542 385.21 318.822 417.718 318.277C422.724 316.953 422.549 314.245 422.393 310.772L416.608 259.225C416.238 258.386 414.68 257.694 413.569 257.562C409.713 257.12 404.59 257.856 400.578 257.562C399.623 256.164 398.961 255.266 396.585 255.575C396.273 253.957 397.442 252.191 397.344 250.646C397.266 249.513 395.436 247.644 395.514 247.291C395.591 246.937 398.377 243.788 398.883 243.053C411.622 224.864 415.03 206.706 411.466 186.281C408.252 167.975 398.786 146.726 370.913 144.048C363.726 143.356 355.058 143.68 348.533 146.196C346.371 144.622 344.19 143.283 341.132 142.267C338.074 141.252 331.958 140.767 329.835 139.781C329.504 139.633 329.095 139.442 328.588 138.751C328.082 138.059 326.115 129.465 326.465 129.053C326.64 128.847 326.602 129.421 327.595 128.465C328.588 127.508 327.244 125.271 327.05 123.27C326.855 121.269 327.361 119.488 327.459 117.619C327.614 114.868 325.939 112.543 321.83 113.367C320.096 113.72 319.317 115.191 317.564 115.5C317.311 115.5 316.785 113.44 314.973 113.514C313.337 113.587 308.994 117.09 307.163 117.546C305.332 118.002 304.494 116.898 302.605 118.326C300.852 119.665 300.482 122.534 301.592 124.182C302.975 126.243 305.41 124.756 307.65 124.55L307.319 129.745C307.572 130.275 308.663 130.142 309.344 130.466C311.292 131.393 309.617 136.573 312.324 136.97C313.298 137.102 314.506 136.896 315.499 136.97C315.616 138.059 315.499 138.898 314.389 139.663C312.344 141.076 305.468 140.428 302.605 140.649C294.385 141.267 289.964 149.287 287.451 154.334C285.173 158.881 283.4 163.619 282.192 168.402C282.894 169.049 285.114 169.417 285.212 170.153C285.309 170.889 283.829 174.347 283.439 175.318C280.946 181.366 276.193 188.547 270.447 193.182C267.896 195.243 266.162 196.67 262.462 194.683L250.463 167.607C249.236 165.738 247.211 165.356 244.659 165.209C231.745 164.488 217.663 165.783 204.632 165.209C202.276 165.179 200.153 166.489 200.873 168.343C206.21 180.1 211.411 191.946 215.91 203.866C216.163 204.498 216.981 205.087 217.079 205.514C217.176 205.941 218.812 197.744 213.144 213.46C207.476 229.176 211.352 247.864 223.428 261.344C222.338 263.492 220.02 265.655 220.312 268.01L213.767 274.955C209.288 274.705 204.204 276.221 200.075 277.575C199.296 277.839 198.633 278.266 198.088 278.472L198.107 278.458ZM198.107 278.458C198.107 279.37 198.555 280.474 199.062 281.283C199.315 281.695 199.003 281.989 199.977 281.842C199.977 280.93 199.529 279.826 199.023 279.017C198.516 278.207 199.081 278.325 198.107 278.458ZM316.902 120.916C313.961 119.989 311.195 120.489 308.409 121.489C308.877 124.241 308.468 126.905 307.961 129.642C309.364 129.186 310.299 130.407 311.058 130.422C311.818 130.436 316.123 129.715 316.609 129.244L316.902 120.916ZM318.81 125.109C321.459 125.536 323.193 123.785 321.44 122.137C319.064 121.475 318.694 123.77 318.81 125.109ZM334.139 141.767C334.529 141.326 329.932 140.649 329.387 140.413C325.861 138.957 326.894 132.07 325.53 129.48C325.004 128.479 324.342 128.626 323.31 129.2C321.323 130.304 322.687 131.687 322.57 133.129C322.375 135.41 319.434 136.646 316.648 136.72C316.278 140.399 314.525 140.767 310.221 141.62C315.441 144.857 321.946 146.667 328.53 144.445C335.113 142.223 332.036 142.326 334.139 141.752V141.767ZM308.624 141.296C307.513 140.943 302.235 141.355 300.852 141.62C294.171 142.944 289.438 151.994 287.315 156.527C286.594 158.072 282.699 167.475 283.361 168.284L295.067 173.125L296.002 167.754C296.976 167.637 296.781 167.887 296.762 168.461C296.723 170.197 295.729 172.154 296.002 173.964L293.392 173.405C293.275 178.143 291.795 183.088 289.341 187.429C288.231 189.386 286.594 191.196 285.543 193.168C289.828 193.55 293.042 195.934 297.151 196.964C303.053 198.45 311.974 198.186 318.265 197.98C320.018 197.921 323.349 197.832 324.887 197.612C327.926 197.2 328.608 195.007 328.9 193.021C329.737 187.223 330.146 180.527 330.4 174.671C330.653 168.814 331.218 173.228 330.4 172.684C329.582 172.287 328.121 173.022 328.121 171.58C328.121 169.932 329.893 167.298 330.01 165.503C330.692 165.473 330.789 165.356 330.75 165.915C330.633 167.637 329.348 169.579 329.134 171.212C328.919 172.846 328.725 171.61 329.25 171.86L356.169 175.951C356.753 168.299 358.837 160.235 353.987 153.172C350.812 148.551 345.339 143.783 338.522 142.267C331.705 140.752 333.984 142.827 330.361 144.445C324.887 146.873 318.966 146.491 313.571 144.195C312.246 143.636 309.091 141.458 308.624 141.311V141.296ZM391.228 245.216C391.579 245.481 391.501 246.128 392.066 246.408C392.631 246.687 394.559 247.055 394.676 246.996C412.245 226.277 415.439 201.099 408.388 177.305C402.311 156.791 385.171 139.545 353.929 145.299C353.13 145.446 349.254 146.255 349.468 146.976C349.683 147.697 353.208 150.714 353.851 151.568C355.117 153.23 356.091 155.011 357.026 156.791C358.973 163.266 357.766 169.976 356.909 176.51L354.299 176.23C354.961 184.765 354.26 193.344 351.942 201.703C350.228 207.868 348.709 212.724 342.515 217.183C341.833 217.669 340.781 217.948 340.08 218.449C337.587 220.244 337.412 221.848 333.477 223.054C323.914 225.997 307.007 227.234 296.567 227.646C291.678 227.837 286.478 227.086 281.803 228.352C274.382 230.353 271.967 236.298 268.266 241.007C266.221 243.612 263.747 246.04 261.76 248.688L265.948 259.269C266.045 259.813 265.072 259.857 265.13 260.431C265.188 261.005 267 264.846 267.195 265.037C267.487 265.331 274.207 267.127 275.804 268.201C282.329 272.586 272.142 278.413 270.584 282.725C286.945 285.447 303.871 285.727 320.427 283.814L320.972 283.372C323.115 277.236 323.797 270.158 326.173 264.14C327.478 260.814 331.14 258.047 335.853 257.606C340.567 257.164 344.735 257.797 345.281 257.532C345.826 257.267 345.845 256.076 346.839 255.752C347.715 255.457 349.196 255.825 349.663 255.34C350.481 251.219 350.773 248.571 356.188 246.717C356.733 246.525 357.513 246.672 358.058 246.437C358.603 246.202 358.701 245.201 360.201 244.951C369.569 245.304 380.048 244.274 389.281 244.877C389.865 244.921 390.8 244.921 391.228 245.245V245.216ZM264.624 201.938C260.942 193.094 257.086 184.28 253.054 175.524C252.353 174.008 249.704 167.593 248.749 166.916C247.795 166.239 247.6 166.415 247.074 166.209L202.373 166.327L201.672 167.799L216.436 201.938H264.643H264.624ZM292.594 172.89L285.932 170.3C283.03 180.925 276.213 191.49 264.409 197.98L265.792 201.894C267.058 201.864 269.103 202.173 270.214 201.791C271.324 201.408 276.193 197.097 277.888 196.008C279.543 194.963 283.653 193.55 284.432 192.976C285.212 192.402 287.627 188.724 288.211 187.723C290.879 183.147 292.418 177.893 292.574 172.89H292.594ZM352.059 175.966L331.529 172.846L329.621 194.418C328.822 197.332 326.446 198.333 322.745 198.553C315.266 198.995 303.092 199.333 296.177 197.42C292.866 196.508 287.977 193.58 284.647 193.756C281.219 193.933 274.81 199.142 272.454 201.085C275.96 200.628 279.407 199.054 283.049 199.127C287.666 199.216 290.607 201.364 294.424 202.703C304.631 206.279 328.082 212.356 338.6 209.134C343.43 207.648 345.125 203.395 346.547 199.893C349.644 192.241 350.832 183.897 352.02 175.966H352.059ZM318.81 209.56C326.017 213.975 334.607 222.937 343.839 215.344C348.378 211.621 350.345 204.646 351.591 199.731C353.52 192.064 354.143 183.985 353.189 176.23L349.274 194.595C347.501 199.157 346.138 206.912 340.061 209.384C334.256 211.768 325.024 210.576 318.791 209.56H318.81ZM263.494 197.126L265.344 196.42L263.104 195.993L263.474 197.126H263.494ZM290.042 201.938C288.25 200.157 284.043 199.76 281.238 199.951C278.433 200.143 274.421 200.746 276.388 201.938H290.022H290.042ZM274.713 201.938L274.148 201.379L273.213 201.658V201.938H274.713ZM292.457 202.497H216.767C216.183 203.424 217.682 205.323 218.832 205.323H299.742L292.457 202.497ZM224.636 205.882H218.091C208.177 220.641 209.813 241.964 220.448 256.34C231.083 270.717 223.253 260.108 224.052 260.108L233.128 244.48C228.746 237.578 223.798 230.368 221.364 222.893C219.455 217.036 218.072 210.399 224.616 205.882H224.636ZM281.063 205.896C280.284 205.838 279.582 205.896 278.823 206.029C273.544 207.029 258.644 211.297 254.417 213.563C250.755 215.535 248.749 217.757 246.743 220.759C242.828 226.586 237.764 235.018 234.803 241.11C231.843 247.202 234.102 241.537 234.745 241.905C235.388 242.273 235.31 242.037 235.524 241.655C239.458 234.841 243.412 226.998 247.873 220.479C254.339 211.032 268.071 210.326 279.875 206.544C280.342 206.397 280.985 206.397 281.082 205.911L281.063 205.896ZM358.058 247.129C352.176 247.629 351.163 251.587 350.579 255.31C353.091 255.708 352.39 253.515 352.916 252.147C353.286 251.205 354.065 250.16 355.078 249.542C356.091 248.924 358.253 248.777 358.038 247.114L358.058 247.129ZM395.377 255.266C396.546 252.132 397.461 247.57 391.715 247.129L391.345 248.335C395.299 250.175 394.715 252.264 393.936 255.296L395.377 255.251V255.266ZM358 249.424C355.643 248.379 352.332 254.104 353.208 255.59C355.331 255.325 356.441 256.046 357.006 257.518H384.353L392.456 249.792C391.092 248.556 390.177 250.69 388.541 250.498C379.522 250.013 369.374 251.131 360.493 250.498C358.038 250.322 358.701 249.704 358.019 249.41L358 249.424ZM248.925 260.108C249.353 260.417 251.885 258.327 252.294 258.003C254.515 256.223 258.391 252.853 259.988 250.822C261.585 248.791 260.806 250.454 259.949 249.954L248.925 260.108ZM388.657 257.532C388.833 257.444 389.222 256.076 390.216 255.752C391.209 255.428 392.611 255.811 393.04 255.34C393.254 254.722 394.189 250.498 393.02 250.528L385.736 257.444C386.262 257.635 388.326 257.709 388.657 257.532ZM406.265 258.136H336.555C332.776 258.136 328.043 261.241 327.127 264.007L314.428 310.61C313.785 313.259 314.74 316.011 318.09 317.291C318.46 317.424 320.661 318.027 320.856 318.027H395.416C392.728 316.467 391.014 314.701 391.034 312.038C396.468 295.277 399.175 277.31 404.941 260.696C410.706 244.083 405.583 258.974 406.246 258.165L406.265 258.136ZM408.797 258.209C406.46 258.533 406.304 259.563 405.778 261.02C399.974 277.118 397.714 294.88 392.105 311.125C391.521 313.848 393.196 316.526 396.663 317.512C399.409 318.292 413.199 318.307 416.394 317.894C420.503 317.365 422.081 314.951 421.594 311.949L415.965 260.284C415.4 257.841 411.31 257.871 408.778 258.224L408.797 258.209ZM264.624 260.681L255.333 265.655L260.416 270.791L265.383 270.85C264.974 269.216 266.591 267.068 266.513 265.626C266.455 264.14 264.682 262.256 264.624 260.667V260.681ZM247.055 262.094L235.095 269.569C241.211 273.425 248.165 276.677 255.644 278.752L258.819 270.555C256.579 269.216 255.119 264.552 252.041 267.436L251.515 267.333L247.035 262.094H247.055ZM221.481 268.039C220.448 269.599 214.566 274.352 214.215 275.573C213.709 277.383 217.975 278.722 220.331 277.633C222.688 276.545 228.59 271.688 228.707 271.262C228.824 270.835 228.415 270.791 228.103 270.614C227.402 270.217 221.87 267.98 221.481 268.054V268.039ZM250.424 286.374C256.794 285.594 262.949 286.507 267.019 282.122C270.214 278.693 272.687 274.499 275.823 270.982L274.927 270.864C271.772 274.278 269.513 278.237 266.416 281.665C262.676 285.83 257.164 284.741 251.32 285.815C250.678 285.933 250.23 285.536 250.424 286.389V286.374ZM263.864 277.898C262.364 276.721 259.248 276.471 257.144 276.206C256.969 276.927 257.281 276.721 257.884 276.898C259.54 277.398 262.091 277.781 263.864 277.898ZM204.068 277.339C203.172 277.251 203.23 277.383 203.405 277.987C203.581 278.59 204.983 281.268 205.392 281.283C206.191 281.327 205.665 280.532 205.567 280.312C205.217 279.326 204.36 278.354 204.068 277.339ZM260.884 279.605C260.397 279.635 255.995 278.296 256.034 279.179C256.969 279.649 258.917 280.076 259.988 280.15C260.767 280.209 261.02 280.341 260.884 279.605ZM220.137 284.962H186.499V285.521H220.137V284.962Z" stroke="black" stroke-width="2" stroke-miterlimit="10"/>
<path d="M157.36 289.479C156.152 292.01 154.711 305.387 157.36 306.579C160.184 306.637 163.067 307.152 164.119 309.389C166.515 314.51 153.971 313.451 151.01 311.111C146.725 307.726 146.316 293.585 143.492 288.832C142.07 286.919 132.409 285.55 129.526 285.521C123.255 285.477 120.586 289.509 116.437 292.025C115.249 292.746 110.36 294.556 110.263 295.277C110.166 295.998 112.951 301.767 113.691 302.87C114.47 304.033 116.827 306.77 118.483 307.152C120.82 307.712 125.884 306.064 126.702 309.419C127.462 312.568 123.839 312.95 120.547 312.95C118.638 312.95 116.593 312.2 115.308 312.2C112.016 312.2 110.302 313.186 106.134 312.524C103.154 312.038 101.109 309.61 99.2777 307.815C96.4145 305.048 89.9868 298 90.9218 294.497C91.8567 290.995 94.8757 291.907 96.7845 290.73C98.4012 289.73 100.213 287.714 99.2387 286.095C98.2648 284.476 93.8045 282.195 92.5189 281.003C91.2334 279.811 89.6557 277.987 89.0714 276.545C88.2338 274.44 88.8571 270.041 86.7341 268.495C86.1303 268.054 81.8062 267.2 80.248 266.538C66.2436 260.637 59.738 244.039 70.6455 234.268C74.8137 230.545 85.7602 226.042 92.1683 225.674C95.6354 225.483 97.2325 227.013 94.5251 228.867C89.5194 232.296 80.8908 232.031 75.4955 237.358C68.2108 244.524 75.7487 255.458 84.7279 259.475C92.6163 263.007 96.804 259.975 104.576 258.769C113.36 257.4 120.625 257.503 129.215 259.46C132.955 260.314 136.363 261.815 140.337 262.065C146.063 262.433 153.172 261.403 158.081 259.107C157.048 258.018 156.211 256.87 155.666 255.575C154.77 253.427 153.153 247.482 152.919 245.231C152.685 242.979 152.666 239.271 155.958 238.668C158.081 238.903 161.665 244.48 164.08 245.289L173.643 245.128L174.948 244.701C176.37 242.95 177.753 240.669 179.604 239.183C181.668 237.52 182.817 237.122 183.733 239.727C185.135 243.715 184.142 254.369 181.357 258.018C178.571 261.668 178.357 260.328 178.006 260.858C177.344 261.844 176.429 266.303 175.786 267.936C174.481 271.232 168.949 280.047 168.969 282.549C168.969 286.257 173.604 288.332 176.643 290.598C181.181 293.982 177.013 296.101 177.286 299.707C177.442 301.678 179.993 302.605 180.48 304.357C181.123 306.711 180.344 309.33 176.526 308.477C171.248 307.314 170.858 299.339 170.663 295.969C169.748 294.468 158.314 288.964 157.399 289.465L157.36 289.479ZM99.0439 260.682C83.306 266.494 65.9514 248.674 73.7035 238.285C78.534 231.81 86.2861 232.428 92.8111 229C94.7004 228.014 96.2586 226.277 92.6747 226.351C85.916 226.498 74.8332 231.457 70.6455 235.401C60.9456 244.524 67.4122 259.445 79.4884 265.42C82.1373 266.73 84.572 266.759 86.6756 267.612C88.7792 268.466 87.5911 268.481 88.0585 268.54C88.526 268.598 92.0515 267.465 93.2591 267.436C96.3171 267.377 99.1024 269.275 99.3945 271.571C99.6867 273.866 97.7779 275.117 98.4791 276.192C99.1803 277.266 105.997 276.648 107.361 279.664C108.646 282.534 103.543 285.756 99.8036 285.241C101.381 287.802 99.4919 290.009 96.7845 291.569C93.3954 293.526 90.9218 292.673 92.1294 297.117C93.337 301.561 101.479 309.845 104.692 311.346C107.887 312.833 120.255 312.362 116.067 308.403C111.88 304.445 110.36 307.462 107.848 305.578C105.881 304.106 101.42 300.207 102.862 298.117C104.303 296.028 113.107 293.173 116.243 291.275C119.379 289.376 122.573 285.389 127.676 284.947C130.87 284.668 141.934 285.992 143.882 287.949C144.602 288.67 144.933 289.98 145.245 290.877C147.154 296.337 147.582 302.605 149.939 307.947C150.913 310.154 151.984 311.685 155.373 312.038C158.178 312.332 165.697 312.788 163.067 309.316C160.457 305.887 156.951 309.198 155.627 305.342C154.594 302.355 154.945 293.614 156.075 290.583C157.126 287.787 158.412 288.803 161.139 289.877C163.866 290.951 171.54 294.453 171.949 296.396C172.514 299.059 171.676 301.104 172.981 304.077C175.611 310.007 182.369 308.653 179 303.488C178.201 302.267 176.643 301.62 176.448 300.045C176.156 297.823 178.513 294.512 177.792 292.82C177.266 291.554 173.117 289.421 171.793 288.317C170.839 287.522 169.845 285.948 168.969 285.374C168.17 284.859 166.651 284.55 165.658 283.917C161.918 281.504 165.073 280.12 164.489 277.737C164.216 276.574 161.996 275.515 161.859 274.043C161.587 271.277 165.249 269.849 168.423 269.673C169.884 269.599 173.312 270.232 174.033 269.673L176.818 261.476C170.819 263.507 163.827 262.889 158.704 259.769L152.16 261.756C160.34 267.083 155.081 275.706 146.433 278.472C138.7 280.945 134.26 275.853 128.202 273.219C121.696 270.394 116.418 271.468 109.464 270.423C102.238 269.349 96.8235 266.95 99.0829 260.623L99.0439 260.682ZM182.389 238.653C181.318 237.961 178.318 241.714 177.753 242.346C176.935 243.259 175.747 245.79 174.325 245.922H163.612C161.334 245.422 158.334 240.61 156.834 239.771C155.334 238.932 156.152 239.447 155.704 239.492C154.361 239.595 153.64 242.729 153.62 243.627C153.581 245.569 155.977 254.486 156.99 256.326C160.574 262.904 173.955 264.125 179.798 258.563C182.642 255.855 182.973 252.044 183.187 248.689C183.402 245.451 183.421 241.772 182.428 238.653H182.389ZM117.548 312.082C119.242 312.273 122.047 312.082 123.897 312.082C125.748 312.082 126.371 310.36 125.534 309.154C124.034 307.02 121.482 308.241 119.515 308.08C113.808 307.609 110.633 298.912 109.328 295.424C107.049 296.087 104.615 297.205 103.329 298.809C102.823 300.222 108.082 305.195 109.698 305.902C110.828 306.387 112.055 306.078 113.282 306.299C116.262 306.858 119.515 309.713 116.632 311.817C117.022 311.729 117.372 312.082 117.567 312.097L117.548 312.082Z" stroke="black" stroke-width="2" stroke-miterlimit="10"/>
<path d="M235.095 105.627C234.667 104.479 233.362 102.374 233.596 101.256C233.829 100.138 235.874 98.3866 236.809 98.5779L258.391 98.6221C259.189 98.7545 260.046 99.3431 260.475 99.8729C260.903 100.403 262.539 103.39 260.514 102.33C260.241 100.697 259.735 99.4314 257.319 99.1518C255.021 98.8869 238.738 98.8722 236.965 99.2695C235.193 99.6669 235.952 99.6227 235.855 99.9906H256.599C256.716 99.9906 258.274 100.682 258.469 100.829C260.416 102.213 261.137 107.79 262.481 109.806C267.058 110.306 271.46 111.719 274.538 114.397C275.414 115.162 275.979 116.192 276.797 116.928C277.615 117.664 280.323 118.399 278.842 119.636C277.868 120.445 275.823 119.532 275.531 118.723C275.239 117.914 276.291 117.664 275.96 117.046C274.44 114.206 267.097 110.365 262.773 110.733C263.474 111.616 262.871 112.631 263.338 113.543C264.331 115.442 269.512 118.959 270.934 121.078C272.356 123.197 270.486 124.859 269.493 126.125L262.656 126.199L257.241 122.108L257.904 113.838H250.054L261.176 143.43C261.858 144.372 260.494 146.609 259.209 146.609H229.875C230.499 148.89 233.381 152.436 228.921 153.363L174.364 153.392C171.442 153.186 170.196 152.245 169.163 150.273L158.568 121.681C158.704 120.96 160.457 119.783 161.314 119.783H174.208L170.079 108.334C169.65 107.51 171.715 105.656 172.533 105.656H235.134L235.095 105.627ZM240.14 113.249H257.884C258.196 110.218 252.703 110.703 249.665 109.717C244.6 108.069 243.86 106.083 240.939 103.169C238.017 100.255 238.816 102.507 238.971 100.815H236.186L236.926 103.36C235.193 103.316 235.913 101.477 234.862 100.815C234.55 100.932 234.414 101.521 234.414 101.756C234.511 102.875 237.511 110.644 238.212 111.836C238.523 112.366 239.341 113.131 240.082 113.249H240.14ZM260.884 108.731C260.494 107.304 258.917 101.55 257.436 101.035C254.748 100.094 245.594 101.3 242.205 100.829C243.159 101.845 241.854 103.066 242.107 103.552C243.821 106.848 250.6 109.879 255.196 110.085C256.716 110.041 257.319 105.671 260.884 108.731ZM239.945 101.109C239.38 101.58 241.075 103.037 241.815 102.095C241.971 101.477 240.276 100.844 239.945 101.109ZM175.299 119.753H180.538C179.759 118.149 179.039 117.134 181.824 116.913C185.447 116.634 187.102 116.84 187.648 119.753C189.401 119.9 187.102 117.723 188.368 117.046C192.011 116.781 195.205 116.177 195.536 119.724L199.237 119.753L195.867 110.438H236.615L235.271 106.465L172.533 106.495C171.501 106.642 170.819 107.481 170.916 108.246L175.318 119.768L175.299 119.753ZM261.624 111.277C263.046 110.262 258.917 108.099 257.904 108.584C256.891 109.07 256.443 110.247 256.813 110.689L258.274 110.998C258.274 110.497 258.352 109.85 259.209 109.85C260.066 109.85 260.923 111.778 261.624 111.277ZM252.294 141.502L242.146 114.294C241.776 113.573 240.627 113.941 239.867 113.764C237.881 113.308 237.764 112.145 236.79 110.998H196.978L200.328 119.636C205.684 120.577 217.098 117.914 220.312 122.034C222.26 124.536 221.422 128.921 225.24 130.451C228.901 131.923 228.863 126.199 233.323 126.581C236.4 126.846 242.575 131.908 245.574 133.174C245.73 133.865 244.912 133.644 244.464 133.453C241.542 132.188 238.095 129.127 235.095 127.817C229.096 125.198 229.817 134.086 223.896 130.481L228.181 141.502H252.294ZM260.514 111.836L262.754 117.34L261.819 117.487L259.014 111.557C258.78 114.456 258.021 117.561 257.865 120.445C257.709 123.329 260.709 123.8 262.637 125.33H268.87C268.87 125.345 270.428 121.725 270.428 121.725L260.533 111.822L260.514 111.836ZM262.364 112.41V111.851H261.994V112.41H262.364ZM248.925 113.823H242.945L253.638 141.488L253.229 142.076H228.006L229.72 146.049L259.306 145.829C259.696 145.696 260.066 145.417 260.241 145.122C261.41 143.224 249.587 117.884 248.925 113.838V113.823ZM186.499 119.753C186.674 116.884 183.655 117.502 180.889 117.487L181.259 119.753H186.499ZM193.9 117.84L188.758 117.502C188.485 120.754 191.777 119.577 194.738 119.753L193.9 117.84ZM278.063 119.179L277.888 118.326L276.563 118.046L276.739 118.9L278.063 119.179ZM160.593 120.651C158.587 121.49 159.717 123.241 160.145 124.55C163.028 133.38 167.294 142.341 170.624 151.082C171.618 152.009 173.02 152.804 174.695 152.804C191.777 151.891 210.963 153.966 227.811 152.804C229.758 152.671 230.888 152.142 230.44 150.523C226.759 142.15 224.305 133.232 220.604 124.889C219.747 122.976 219.143 120.636 215.851 120.577L160.593 120.651Z" fill="black"/>
<path d="M134.98 174.214C135.272 174.391 140.356 174.671 140.551 175.289L140.492 179.6C139.577 179.909 135.389 180.233 135 180.542C134.61 180.851 134.26 182.205 134.221 182.396C134.026 183.662 137.512 184.662 138.213 185.751C138.252 185.943 136.071 189.092 135.857 189.239C134.474 190.21 130.773 188.017 129.487 188.65C126.235 190.254 129.001 191.976 129.273 194.139C127.89 194.786 124.988 196.802 123.488 196.037C121.989 195.272 121.541 192.432 117.431 193.815L116.613 196.861C116.71 196.964 120.275 194.904 119.593 196.155L115.249 198.48L110.244 198.141L108.491 193.756C105.257 192.785 103.933 194.625 102.16 196.317C101.518 196.42 97.6415 194.86 97.174 194.448C96.0833 193.491 98.9076 190.887 97.9532 189.651C96.1223 187.282 93.4538 189.548 90.7075 189.489C90.4543 189.43 88.0001 186.487 87.9027 186.193C87.591 185.266 90.9022 183.617 91.7982 183.014L91.1749 180.513L85.5848 179.453L85.7601 175.083L90.8243 174.111C93.6681 171.036 89.6557 170.948 88.1754 169.329C86.6951 167.71 90.4153 165.003 91.2139 165.062C92.889 165.165 94.7588 166.636 96.6287 165.812C99.9983 164.326 96.5897 162.28 96.8429 160.191L101.634 158.292C102.862 158.145 104.244 161.265 106.27 161.265C110.75 161.265 108.51 156.792 110.808 156.468C113.107 156.144 115.522 156.409 115.873 156.6C117.002 157.983 116.048 160.308 118.288 160.985C121.638 162.001 121.755 159.352 124.248 158.248C124.521 158.234 128.767 160.088 128.962 160.279C129.838 161.147 127.111 163.722 128.163 165.106C129.702 167.136 133.071 165.268 135.311 165.091L138.233 168.829L138.116 169.197C137.279 169.653 134.669 171.168 134.337 171.742C134.006 172.316 134.824 174.156 134.961 174.244L134.98 174.214ZM139.733 175.701L134.201 174.376L133.11 171.61C133.831 170.815 137.395 169.314 137.006 168.328C136.616 167.342 135.155 166.003 134.902 165.915L129.877 166.93C129.371 166.886 127.287 165.429 127.033 165.106C126.215 164.061 127.988 162.31 128.163 161.133C128.105 160.205 125.241 159.558 124.287 159.028C121.891 161.03 121.482 162.736 117.548 161.559C115.288 160.882 116.262 158.528 115.132 157.174C108.724 155.997 111.432 159.028 108.861 161.515L105.627 162.089L101.479 159.102L97.9726 160.485L99.3555 164.797C99.3166 164.973 97.0767 166.724 96.804 166.813C95.46 167.284 92.4605 165.827 90.8633 165.827L89.0324 168.74C91.5645 170.874 94.0966 171.566 91.584 174.715L86.5198 175.686L86.3445 178.923L91.9346 179.983C93.0253 183.147 93.0253 183.073 90.1231 185.192C89.8115 185.413 89.4219 185.516 89.0519 185.648C88.6039 186.222 90.649 188.282 91.2334 188.856C95.051 187.944 97.1546 187.002 99.3945 190.21C97.9142 193.094 96.7845 194.389 101.537 195.478L105.335 192.697L109.328 193.227L110.731 197.45L115.327 197.494L116.749 193.3L120.528 192.726C121.794 193.197 123.644 195.625 125.008 195.478C125.358 195.434 128.144 194.139 128.241 193.918L126.858 190.048C129.449 187.031 131.163 188.017 135 188.9L137.201 186.104L133.325 183.102L134.24 180.189L139.83 179.115V175.789L139.733 175.701Z" fill="black"/>
<path d="M132.662 198.274C132.838 199.628 132.838 201.055 135.058 201.114C136.733 198.789 138.019 199.23 140.356 200.79C140.726 201.379 138.701 202.953 139.947 203.645C141.252 204.381 142.304 203.321 143.356 203.351C144.407 203.38 145.148 205.058 145.674 205.749C144.641 206.941 142.674 206.779 143.531 208.516L146.745 209.252L146.94 211.915C139.538 212.96 145.966 214.902 145.654 215.77L143.706 217.978L140.746 217.257C138.759 217.948 140.006 219.243 140.473 220.42L137.376 221.877C134.649 219.699 133.149 219.302 132.682 222.775L128.611 222.804C128.611 219.449 126.566 219.596 124.248 221.936L121.171 220.803L121.852 218.419L120.762 217.301L117.431 217.978L115.892 215.594C116.009 214.49 118.307 214.417 118.054 213.401C117.743 212.15 115.775 212.356 114.412 212.033C114.314 211.944 114.295 209.973 114.373 209.649C114.724 208.251 118.561 209.458 118.035 207.427C117.509 205.396 113.886 205.985 117.626 203.321C118.658 203.101 120.547 204.425 121.521 203.454C122.359 202.659 121.034 201.776 121.093 200.893C121.171 200.187 123.099 199.701 123.917 199.333C125.514 199.333 127.52 203.822 128.942 198.333L132.682 198.215L132.662 198.274ZM131.903 199.142H129.332C129.371 201.158 128.494 202.115 125.748 201.688L124.19 200.275C120.567 200.319 123.313 202.674 122.612 203.498C120.82 205.632 119.924 204.072 118.288 204.189C114.918 205.426 119.009 206.765 119.106 207.442C119.203 208.118 118.502 209.178 118.424 209.237C117.859 209.619 115.483 209.075 115.133 210.282C114.49 212.533 117.801 211.209 118.619 212.474C120.158 214.814 116.983 214.843 117.002 215.932C117.022 217.021 117.743 217.139 117.82 217.168C118.6 217.507 121.755 215.579 122.924 217.948L122.222 220.406C124.482 222.113 124.93 219.744 126.235 219.508C128.494 219.111 129.663 220.759 129.332 222.289L131.903 222.26L132.974 219.744C135.389 219.037 135.74 220.038 137.357 221.068C141.135 220.317 137.863 219.14 139.032 217.61C140.142 216.153 141.661 216.727 143.317 217.168C146.238 215.138 142.81 215.035 142.46 214.181C142.109 213.328 142.732 212.327 142.869 212.165C143.239 211.783 146.044 211.738 146.18 211.371C146.959 208.501 142.869 210.399 142.479 207.927C142.226 206.205 145.81 205.911 143.921 204.602C142.031 203.292 141.233 205.102 139.967 204.499C137.337 203.233 139.772 201.202 139.402 200.82C136.129 199.054 136.246 203.204 132.896 201.335C132.059 200.864 132.175 199.848 131.903 199.127V199.142Z" fill="black"/>
<path d="M188.661 49.5023C217.936 46.9713 222.435 79.0212 195.244 82.1556C165.658 85.5695 160.905 51.9156 188.661 49.5023ZM189.79 50.0762C162.639 52.0039 165.794 83.6124 194.153 81.6258C220.662 79.7717 217.332 48.1191 189.79 50.0762Z" fill="black"/>
<path d="M112.795 114.456C144.914 111.557 145.167 148.389 113.828 146.285C89.2273 144.637 89.1493 116.589 112.795 114.456ZM113.925 115.03C87.9807 117.119 91.3308 147.021 117.548 145.726C144.505 144.387 141.447 112.822 113.925 115.03Z" fill="black"/>
<path d="M127.735 70.398C158.353 67.6168 158.568 103.022 128.767 101.094C104.907 99.5637 104.576 72.5023 127.735 70.398ZM128.494 70.9719C102.219 73.1644 108.218 104.434 134.941 100.138C158.724 96.3116 153.133 68.9264 128.494 70.9719Z" fill="black"/>
<path d="M350.578 86.7027C349.975 86.7763 349.566 86.482 349.118 86.2612C346.936 85.1429 344.54 83.3329 342.32 82.0821C316.454 67.4845 286.419 58.258 253.969 56.4922C253.112 56.448 248.574 56.7424 248.554 56.0655C249.041 55.521 249.47 55.6387 250.171 55.6681C284.16 56.7865 317.057 66.425 343.8 82.0821C345.612 83.1416 348.241 84.569 349.819 85.7168C350.228 86.0111 350.695 86.2171 350.559 86.7027H350.578Z" fill="black"/>
<path d="M331.14 83.8772L317.33 77.7998C301.923 71.5899 285.426 67.3225 268.11 65.2771C265.792 64.9975 263.377 64.9828 261.059 64.659C258.741 64.3353 260.416 64.8503 260.494 64.0999C272.785 64.6737 285.289 66.9399 296.84 70.1037C306.987 72.8702 318.362 77.0052 327.361 81.4933C327.809 81.7141 331.705 83.4505 331.12 83.8625L331.14 83.8772Z" fill="black"/>
<path d="M189.128 311.508C189.011 311.214 189.362 310.728 189.673 310.699C189.985 310.669 193.55 311.773 194.348 311.935C209.697 315.113 218.228 313.348 233.226 312.774C233.868 312.744 234.18 312.421 234.706 313.068C234.706 313.465 231.395 313.671 230.752 313.745C216.553 315.113 202.762 315.113 189.128 311.523V311.508Z" fill="black"/>
<path d="M263.319 126.802H269.668C270.077 126.802 271.83 128.597 271.324 129.156L270.798 129.627H264.448C264.039 129.627 262.286 127.832 262.793 127.273L263.319 126.802Z" fill="black"/>
<path d="M74.2684 203.969C79.878 202.718 81.144 208.987 76.0214 209.266C70.8987 209.546 71.1325 204.675 74.2684 203.969ZM73.723 208.074C76.1188 209.752 80.3259 206.897 77.5601 205.043C74.6969 203.115 71.2688 206.367 73.723 208.074Z" fill="black"/>
<path d="M359.051 92.5446C356.032 95.0315 350.656 91.132 354.299 88.807C357.571 86.7027 361.934 90.1608 359.051 92.5446ZM354.786 89.322C352.448 90.9848 355.896 93.8396 358.253 92.0885C360.746 90.2343 356.772 87.8946 354.786 89.322Z" fill="black"/>
<path d="M244.055 58.7434L237.705 57.4632C237.452 56.7863 240.608 54.6379 241.289 53.9462C242.263 53.7844 244.386 58.4638 244.055 58.7287V58.7434ZM242.945 57.8899L241.27 55.0646C240.491 55.7857 239.03 56.2713 239.205 57.316L242.945 57.8752V57.8899Z" fill="black"/>
<path d="M173.799 180.895C173.838 180.792 174.461 180.38 174.539 180.468C174.87 181.969 175.026 183.47 174.909 184.986H173.799C174.052 183.838 173.449 181.91 173.799 180.895Z" fill="black"/>
<path d="M116.243 226.498C115.717 226.895 111.529 223.996 111.763 223.113C112.172 222.804 115.132 225.174 115.503 225.512C115.873 225.85 116.418 225.968 116.243 226.498Z" fill="black"/>
<path d="M156.23 134.439C155.51 134.998 152.51 131.084 152.491 130.495C153.211 129.951 156.464 134.262 156.23 134.439Z" fill="black"/>
<path d="M135.214 229.117C135.604 229.117 136.052 229.309 136.052 229.47C136.052 229.838 132.137 230.133 131.338 230.147C130.617 230.177 130.189 230.294 129.721 229.75C130.169 229.235 130.715 229.353 131.377 229.309C132.468 229.25 134.279 229.103 135.233 229.103L135.214 229.117Z" fill="black"/>
<path d="M109.874 220.288C108.9 220.42 109.211 220.141 108.958 219.729C108.705 219.317 107.4 216.256 107.634 216.065C108.452 215.947 108.51 216.344 108.744 216.771C109.27 217.742 109.737 219.228 109.874 220.288Z" fill="black"/>
<path d="M108.763 205.043C108.315 204.646 110.867 201.305 111.568 200.82C112.406 201.246 111.899 201.452 111.568 201.938C111.081 202.674 110.419 203.645 109.893 204.351C109.367 205.058 109.581 205.175 108.763 205.043Z" fill="black"/>
<path d="M147.076 123.991C147.368 124.006 149.764 126.611 150.095 127.067C150.426 127.523 150.952 127.42 150.056 127.935C149.063 127.096 147.66 125.889 146.959 124.918C146.258 123.947 146.297 123.932 147.076 123.991Z" fill="black"/>
<path d="M141.213 118.12C141.486 118.267 144.641 121.416 144.271 121.725C142.46 121.195 141.7 119.341 140.161 118.473C139.85 117.928 140.843 117.928 141.213 118.12Z" fill="black"/>
<path d="M173.799 172.846C173.721 174.229 174.423 175.539 174.169 176.952C173.916 178.364 174.306 177.408 173.429 177.364L172.806 173.258L173.799 172.846Z" fill="black"/>
<path d="M137.532 115.515C137.045 115.868 132.838 112.601 133.422 112.131C134.279 112.116 134.941 112.822 135.487 113.249C136.032 113.676 137.785 115.324 137.532 115.515Z" fill="black"/>
<path d="M157.36 220.568C156.834 220.156 160.418 217.36 160.905 216.904C161.762 217.404 161.295 217.316 160.944 217.772C160.593 218.228 157.905 220.994 157.36 220.568Z" fill="black"/>
<path d="M125.573 229.043C125.923 230.147 123.274 229.338 122.573 229.176C121.872 229.014 119.125 228.396 119.963 227.91L125.573 229.043Z" fill="black"/>
<path d="M154.36 222.834C154.984 223.305 150.095 226.056 149.511 225.659C149.335 225.07 149.92 225.012 150.368 224.747C150.816 224.482 154.107 222.642 154.38 222.834H154.36Z" fill="black"/>
<path d="M171.929 165.223L173.059 169.461H171.949C172.066 168.196 171.287 166.872 171.189 165.65C171.092 164.429 171.267 165.209 171.929 165.238V165.223Z" fill="black"/>
<path d="M173.429 196.287C173.234 197.435 173.04 198.892 172.475 199.951C171.91 201.011 172.514 200.643 171.559 200.511C171.754 199.363 172.046 197.921 172.514 196.832C172.981 195.743 172.533 196.155 173.429 196.273V196.287Z" fill="black"/>
<path d="M149.121 198.259C147.816 198.215 146.277 197.42 145.186 196.861C144.096 196.302 143.745 196.376 143.881 195.728C144.213 195.507 148.926 197.538 149.121 198.259Z" fill="black"/>
<path d="M145.771 227.072C145.966 227.807 145.557 227.572 145.05 227.778C144.544 227.984 140.376 229.176 140.181 229.044C140.025 228.44 140.551 228.381 141.096 228.175C141.642 227.969 145.537 226.91 145.79 227.072H145.771Z" fill="black"/>
<path d="M139.791 194.316C139.811 194.831 139.986 194.904 139.246 194.875C138.506 194.845 133.831 194.198 133.831 193.889C134.376 193.241 134.63 193.609 135.253 193.653C136.811 193.756 138.272 194.168 139.811 194.316H139.791Z" fill="black"/>
<path d="M158.84 137.264L161.08 141.223C160.301 141.856 158.314 137.882 157.73 137.691L158.84 137.264Z" fill="black"/>
<path d="M174.539 188.385C174.539 189.71 174.695 190.96 174.228 192.255C173.76 193.55 174.5 193.035 173.429 192.903C173.449 191.549 173.585 190.151 173.799 188.812C173.858 188.429 174.072 187.914 174.539 188.385Z" fill="black"/>
<path d="M169.689 157.601L170.819 161.839C169.787 161.971 170.196 161.677 169.982 161.221C169.631 160.485 169.222 159.293 169.047 158.528C168.871 157.763 168.618 157.454 169.689 157.616V157.601Z" fill="black"/>
<path d="M168.93 207.868C168.034 207.957 168.092 207.824 168.268 207.221C168.618 206 169.631 204.778 170.254 203.63C171.657 204.072 168.93 207.074 168.949 207.868H168.93Z" fill="black"/>
<path d="M107.264 208.575L108.198 208.148C108.062 209.355 108.218 211.032 108.023 212.254C107.945 212.769 108.14 212.71 107.283 212.666V208.575H107.264Z" fill="black"/>
<path d="M130.442 109.865C130.091 110.129 125.982 107.127 125.962 106.907C125.943 106.686 126.313 106.48 126.897 106.76C127.481 107.039 129.176 108.408 129.702 108.879C130.228 109.349 130.617 109.335 130.442 109.865Z" fill="black"/>
<path d="M79.9754 197.42C79.9559 198.127 80.0143 198.833 79.9754 199.539C79.9364 200.246 80.326 200.658 79.43 200.525C78.5535 199.893 78.3003 197.391 79.9754 197.42Z" fill="black"/>
<path d="M79.9754 191.49C79.9559 192.197 80.0143 192.903 79.9754 193.609C79.9364 194.316 80.326 194.728 79.43 194.595C78.5535 193.962 78.3003 191.461 79.9754 191.49Z" fill="black"/>
<path d="M85.5849 195.728C86.1887 196.081 85.5849 196.243 85.0395 196.287C83.9293 196.39 82.6243 196.214 81.4751 196.287C80.8713 195.934 81.4751 195.772 82.0205 195.728C83.1307 195.625 84.4357 195.802 85.5849 195.728Z" fill="black"/>
<path d="M77.7354 195.728C78.3392 196.081 77.7354 196.243 77.19 196.287C76.0798 196.39 74.7748 196.214 73.6256 196.287C73.0218 195.934 73.6256 195.772 74.171 195.728C75.2812 195.625 76.5862 195.802 77.7354 195.728Z" fill="black"/>
<path d="M378.237 101.388C378.607 102.198 375.88 102.683 375.627 102.522C375.257 101.712 377.984 101.227 378.237 101.388Z" fill="black"/>
<path d="M372.627 99.137L372.997 101.388L371.556 99.549L372.627 99.137Z" fill="black"/>
<path d="M375.257 106.48C374.185 106.627 374.653 106.259 374.419 105.862C374.185 105.465 373.504 104.582 374.322 104.229L375.257 106.48Z" fill="black"/>
<path d="M371.517 103.081C371.751 103.949 369.608 104.023 368.907 104.214C368.848 103.257 370.621 103.125 371.517 103.081Z" fill="black"/>
<path d="M261.994 103.081L262.384 104.493H261.254V103.081H261.994Z" fill="black"/>
<path d="M391.228 245.216C390.8 244.892 389.865 244.892 389.281 244.848C380.029 244.245 369.569 245.275 360.2 244.921C358.681 245.172 358.681 246.128 358.058 246.408C357.435 246.687 356.733 246.511 356.188 246.687C350.773 248.541 350.481 251.19 349.663 255.31C349.215 255.796 347.715 255.443 346.839 255.722C345.845 256.046 345.456 257.429 345.281 257.503C344.735 257.768 337.47 257.429 335.853 257.577C331.159 258.003 327.497 260.77 326.173 264.11C323.797 270.129 323.115 277.207 320.972 283.343L320.427 283.785C303.871 285.698 286.926 285.418 270.584 282.696C272.142 278.384 282.329 272.542 275.804 268.172C269.279 263.801 267.487 265.287 267.195 265.008C266.902 264.728 265.169 260.667 265.13 260.402C265.072 259.828 266.045 259.784 265.948 259.239L261.76 248.659C263.747 246.025 266.221 243.597 268.266 240.978C271.967 236.284 274.382 230.339 281.803 228.323C286.478 227.057 291.698 227.822 296.567 227.616C306.988 227.204 323.894 225.968 333.477 223.025C337.412 221.818 337.606 220.214 340.08 218.419C342.554 216.624 341.833 217.639 342.515 217.154C348.709 212.695 350.208 207.854 351.942 201.673C354.279 193.315 354.961 184.736 354.299 176.201L356.909 176.481C357.766 169.947 358.973 163.252 357.026 156.762C356.091 154.982 355.117 153.201 353.851 151.538C352.585 149.875 349.546 147.212 349.468 146.947C349.254 146.226 353.13 145.417 353.929 145.27C385.171 139.516 402.292 156.747 408.388 177.275C415.439 201.07 412.264 226.248 394.676 246.967C394.559 247.026 392.241 246.452 392.066 246.378C391.501 246.099 391.56 245.436 391.228 245.186V245.216ZM355.058 234.974C355.117 233.62 353.675 232.09 352.604 231.045C348.475 227.072 340.684 224.423 334.139 223.967C334.237 224.438 334.86 224.467 335.347 224.614C345.164 227.44 348.339 226.983 354.143 234.429C354.435 234.797 354.084 235.136 355.078 234.989L355.058 234.974ZM333.01 240.345C333.984 240.419 334.061 239.948 334.139 239.374C334.821 234.915 332.25 228.999 328.335 225.674C327.459 226.189 327.945 226.086 328.296 226.542C329.114 227.602 330.146 228.602 330.828 229.706C332.776 232.914 333.75 236.887 333.01 240.345Z" fill="#DFD4FE"/>
<path d="M406.265 258.136C405.583 258.945 405.272 259.754 404.96 260.667C399.195 277.28 396.487 295.248 391.053 312.008C391.053 314.687 392.748 316.438 395.435 317.997H320.875C320.68 317.997 318.479 317.409 318.109 317.262C314.74 315.996 313.805 313.244 314.447 310.581L327.147 263.978C328.082 261.211 332.795 258.106 336.574 258.106H406.285L406.265 258.136ZM394.871 281.857H328.335L327.79 282.283L328.335 282.71H350.208C349.897 284.491 346.741 288.567 349.838 289.626C352.935 290.686 362.168 289.906 363.862 289.788C368.167 289.494 367.485 285.168 368.537 282.725C376.445 282.298 385.229 283.24 393.02 282.725C395.903 282.534 397.364 281.665 398.24 279.605C400.091 275.25 402.603 267.244 403.558 262.727C403.675 262.182 404.123 261.005 402.915 261.241L397.208 279.944C397.052 280.606 395.65 281.724 394.871 281.857ZM387.956 313.215H318.07V313.774H387.956V313.215Z" fill="#E5DBFD"/>
<path d="M308.624 141.296C309.091 141.443 312.246 143.621 313.571 144.18C318.986 146.491 324.887 146.859 330.361 144.431C334.003 142.827 333.711 141.193 338.522 142.253C343.333 143.312 350.812 148.536 353.987 153.157C358.837 160.22 356.753 168.284 356.169 175.936L329.25 171.845C328.725 171.595 329.114 171.433 329.134 171.198C329.348 169.564 330.633 167.622 330.75 165.9C330.789 165.341 330.692 165.459 330.01 165.488C329.893 167.283 328.121 169.932 328.121 171.566C328.121 173.008 329.582 172.272 330.4 172.669C331.198 173.214 330.4 173.994 330.4 174.656C330.146 180.513 329.718 187.208 328.9 193.006C328.082 198.804 327.945 197.185 324.887 197.597C323.329 197.803 320.018 197.906 318.265 197.965C311.974 198.171 303.053 198.436 297.151 196.949C293.061 195.919 289.828 193.536 285.543 193.153C286.594 191.181 288.23 189.371 289.341 187.414C291.795 183.058 293.275 178.129 293.392 173.39L296.002 173.949C295.749 172.14 296.723 170.182 296.762 168.446C296.762 167.872 296.976 167.622 296.002 167.74L295.067 173.111L283.361 168.269C282.679 167.46 286.594 158.057 287.315 156.512C289.438 151.98 294.171 142.915 300.852 141.605C302.254 141.326 307.513 140.928 308.624 141.282V141.296Z" fill="#DED3FE"/>
<path d="M264.623 201.938H216.416L201.652 167.798L202.353 166.327L247.055 166.209C247.6 166.415 248.301 166.607 248.73 166.916C249.684 167.607 252.333 174.023 253.034 175.524C257.086 184.28 260.923 193.094 264.604 201.938H264.623ZM230.888 181.381C226.038 181.734 228.337 188.488 232.992 186.649C236.381 185.31 234.219 181.145 230.888 181.381Z" fill="#DED4FE"/>
<path d="M408.797 258.209C411.329 257.871 415.42 257.827 415.984 260.269L421.613 311.935C422.081 314.937 420.523 317.35 416.413 317.88C413.219 318.292 399.428 318.277 396.682 317.497C393.215 316.511 391.559 313.818 392.124 311.111C397.734 294.865 399.993 277.104 405.798 261.005C406.323 259.548 406.479 258.518 408.817 258.194L408.797 258.209ZM410.764 261.241H410.024V308.683C406.285 310.228 401.999 311.67 398.805 313.759L410.764 309.242V261.226V261.241Z" fill="#DFD5FE"/>
<path d="M352.059 175.966C350.851 183.897 349.683 192.241 346.586 199.893C345.164 203.395 343.469 207.662 338.639 209.134C328.121 212.356 304.67 206.279 294.463 202.703C290.646 201.364 287.705 199.23 283.088 199.127C279.446 199.054 275.999 200.628 272.493 201.085C274.849 199.142 281.257 193.933 284.686 193.756C288.016 193.58 292.905 196.508 296.216 197.42C303.111 199.333 315.304 198.995 322.784 198.554C326.485 198.333 328.861 197.332 329.659 194.419L331.568 172.846L352.098 175.966H352.059Z" fill="#DED4FE"/>
<path d="M224.636 205.882C218.091 210.399 219.474 217.036 221.383 222.893C223.818 230.368 228.765 237.593 233.148 244.48L224.071 260.108C223.272 260.108 220.955 257.003 220.468 256.341C209.833 241.964 208.197 220.641 218.111 205.882H224.655H224.636Z" fill="#DFD5FE"/>
<path d="M292.593 172.89C292.438 177.893 290.899 183.146 288.23 187.723C287.646 188.724 285.27 192.373 284.452 192.976C283.634 193.58 279.563 194.963 277.907 196.008C276.193 197.082 271.499 201.349 270.233 201.791C268.967 202.232 267.078 201.864 265.812 201.894L264.429 197.98C276.232 191.49 283.049 180.924 285.952 170.3L292.613 172.89H292.593Z" fill="#DFD5FE"/>
<path d="M318.81 209.561C325.024 210.576 334.256 211.768 340.08 209.384C346.138 206.912 347.52 199.157 349.293 194.595L353.208 176.23C354.143 183.985 353.539 192.064 351.611 199.731C350.364 204.631 348.397 211.606 343.859 215.344C334.626 222.937 326.037 213.975 318.83 209.561H318.81Z" fill="#DFD5FE"/>
<path d="M357.999 249.424C358.681 249.733 358.038 250.351 360.473 250.513C369.355 251.146 379.503 250.013 388.521 250.513C390.138 250.69 391.072 248.571 392.436 249.807L384.333 257.518H356.987C356.422 256.046 355.312 255.325 353.188 255.59C352.312 254.104 355.623 248.38 357.98 249.424H357.999Z" fill="#DFD5FE"/>
<path d="M292.457 202.497L299.742 205.322H218.832C217.682 205.322 216.183 203.424 216.767 202.497H292.457Z" fill="#DFD5FE"/>
<path d="M247.055 262.094L251.535 267.333L252.06 267.436C255.118 264.552 256.599 269.216 258.839 270.556L255.664 278.752C248.184 276.662 241.231 273.425 235.115 269.57L247.074 262.094H247.055Z" fill="#DFD5FE"/>
<path d="M334.139 141.767C332.036 142.327 330.556 143.769 328.53 144.46C321.946 146.682 315.441 144.872 310.221 141.635C314.506 140.781 316.259 140.414 316.648 136.735C319.434 136.661 322.375 135.425 322.57 133.144C322.687 131.687 321.343 130.304 323.31 129.215C325.277 128.126 325.004 128.479 325.53 129.495C326.894 132.085 325.861 138.957 329.387 140.428C329.932 140.649 334.529 141.341 334.139 141.782V141.767Z" fill="#DFD5FE"/>
<path d="M316.902 120.916L316.61 129.245C316.123 129.715 311.935 130.436 311.058 130.422C310.182 130.407 309.364 129.186 307.961 129.642C308.448 126.905 308.877 124.241 308.409 121.49C311.195 120.474 313.961 119.989 316.902 120.916Z" fill="#DFD5FE"/>
<path d="M221.48 268.039C221.87 267.966 227.402 270.202 228.103 270.6C228.804 270.997 228.824 270.85 228.707 271.247C228.59 271.644 220.935 277.339 220.331 277.619C217.974 278.708 213.709 277.369 214.215 275.559C214.546 274.337 220.448 269.584 221.48 268.024V268.039Z" fill="#DFD5FE"/>
<path d="M264.624 260.681C264.682 262.256 266.455 264.154 266.513 265.64C266.571 267.068 264.955 269.231 265.383 270.864L260.416 270.806L255.333 265.67L264.624 260.696V260.681Z" fill="#DFD5FE"/>
<path d="M281.063 205.896C280.965 206.382 280.323 206.382 279.855 206.529C268.032 210.326 254.32 211.017 247.853 220.465C243.393 226.983 239.419 234.827 235.504 241.64C231.589 248.453 235.485 242.346 234.725 241.89C233.966 241.434 234.609 241.463 234.784 241.095C237.744 235.003 242.828 226.571 246.724 220.744C248.73 217.742 250.736 215.52 254.398 213.548C258.624 211.282 273.525 207 278.803 206.014C279.563 205.867 280.264 205.823 281.043 205.882L281.063 205.896Z" fill="#DFD5FE"/>
<path d="M250.424 286.374C250.249 285.521 250.697 285.918 251.32 285.801C257.164 284.726 262.676 285.815 266.415 281.651C269.493 278.208 271.772 274.264 274.927 270.85L275.823 270.968C272.687 274.47 270.214 278.664 267.019 282.107C262.948 286.492 256.794 285.595 250.424 286.36V286.374Z" fill="white"/>
<path d="M290.042 201.938H276.408C274.44 200.746 280.342 200.01 281.257 199.951C284.062 199.775 288.25 200.172 290.061 201.938H290.042Z" fill="#DFD5FE"/>
<path d="M388.657 257.532C388.307 257.694 386.261 257.635 385.736 257.444L393.02 250.528C394.189 250.499 393.254 254.722 393.04 255.34C392.611 255.811 391.072 255.472 390.215 255.752C389.358 256.032 388.833 257.459 388.657 257.532Z" fill="#DFD5FE"/>
<path d="M220.137 284.962H186.499V285.521H220.137V284.962Z" fill="#DFD5FE"/>
<path d="M395.377 255.266L393.936 255.31C394.734 252.264 395.319 250.175 391.345 248.35L391.715 247.143C397.461 247.585 396.546 252.147 395.377 255.281V255.266Z" fill="#DFD5FE"/>
<path d="M358.058 247.129C358.272 248.791 356.383 248.777 355.097 249.557C353.812 250.337 353.305 251.22 352.935 252.161C352.409 253.53 353.111 255.722 350.598 255.325C351.163 251.587 352.195 247.629 358.077 247.143L358.058 247.129Z" fill="#DFD5FE"/>
<path d="M248.925 260.108L259.949 249.954C260.806 250.454 260.338 250.366 259.988 250.822C258.391 252.853 254.515 256.223 252.294 258.003C251.885 258.327 249.353 260.417 248.925 260.108Z" fill="#DFD5FE"/>
<path d="M318.81 125.109C318.694 123.77 319.064 121.475 321.44 122.137C323.193 123.785 321.479 125.551 318.81 125.109Z" fill="#DFD5FE"/>
<path d="M263.864 277.898C262.091 277.781 259.54 277.398 257.884 276.898C257.28 276.721 256.969 276.927 257.144 276.206C259.267 276.471 262.384 276.721 263.864 277.898Z" fill="white"/>
<path d="M204.068 277.339C204.36 278.354 205.217 279.326 205.567 280.312C205.918 281.297 206.191 281.327 205.392 281.283C204.593 281.239 203.542 278.472 203.405 277.987C203.269 277.501 203.172 277.251 204.068 277.339Z" fill="white"/>
<path d="M260.884 279.605C261.02 280.327 260.767 280.194 259.988 280.15C258.917 280.076 256.969 279.664 256.034 279.179C255.995 278.311 260.397 279.65 260.884 279.605Z" fill="white"/>
<path d="M263.494 197.126L263.124 196.008L265.364 196.42L263.494 197.126Z" fill="white"/>
<path d="M274.713 201.938H273.213V201.659L274.148 201.379L274.713 201.938Z" fill="white"/>
<path d="M99.0439 260.681C96.7845 267.009 102.199 269.408 109.425 270.482C116.379 271.512 121.657 270.438 128.163 273.278C134.221 275.912 138.661 281.003 146.394 278.531C155.042 275.765 160.301 267.141 152.121 261.814L158.665 259.828C163.788 262.948 170.78 263.551 176.779 261.535L173.994 269.731C173.273 270.291 169.845 269.658 168.384 269.731C165.19 269.908 161.548 271.335 161.82 274.102C162.093 276.868 164.158 276.633 164.45 277.795C165.015 280.179 161.879 281.562 165.619 283.976C166.592 284.609 168.131 284.903 168.93 285.433C169.806 286.006 170.8 287.596 171.754 288.376C173.098 289.479 177.227 291.613 177.753 292.878C178.474 294.571 176.117 297.882 176.409 300.104C176.604 301.664 178.182 302.311 178.961 303.547C182.33 308.712 175.572 310.066 172.942 304.136C171.618 301.163 172.455 299.103 171.91 296.454C171.501 294.527 163.515 290.892 161.1 289.935C158.685 288.979 157.068 287.831 156.036 290.642C154.906 293.688 154.575 302.414 155.588 305.401C156.912 309.257 160.418 305.946 163.028 309.374C165.658 312.832 158.139 312.376 155.334 312.097C151.945 311.743 150.874 310.228 149.9 308.006C147.543 302.664 147.134 296.381 145.206 290.936C144.894 290.053 144.563 288.743 143.843 288.008C141.895 286.051 130.831 284.726 127.637 285.006C122.534 285.447 119.807 289.17 116.204 291.333C112.6 293.497 104.4 295.91 102.823 298.176C101.245 300.442 105.842 304.15 107.809 305.637C110.321 307.52 113.613 306.196 116.028 308.462C120.216 312.42 107.848 312.891 104.653 311.405C101.44 309.904 92.8695 300.015 92.0904 297.175C90.8828 292.731 93.3759 293.57 96.7455 291.628C99.4529 290.068 101.362 287.846 99.7646 285.3C103.504 285.815 108.607 282.593 107.322 279.723C105.978 276.706 99.3555 277.678 98.4401 276.25C97.5247 274.823 99.5503 273.131 99.3556 271.63C99.0634 269.334 96.2781 267.421 93.2201 267.495C92.0125 267.524 88.3312 268.642 88.0196 268.598C87.5521 268.525 87.1625 267.877 86.6366 267.671C84.533 266.818 82.0983 266.788 79.4494 265.479C67.3732 259.504 60.9066 244.583 70.6065 235.459C74.8137 231.501 85.8965 226.557 92.6358 226.41C96.2196 226.336 94.6614 228.058 92.7721 229.058C86.2471 232.487 78.495 231.869 73.6645 238.344C65.9124 248.733 83.267 266.553 99.005 260.74L99.0439 260.681Z" fill="#DFD5FE"/>
<path d="M182.389 238.653C183.402 241.772 183.363 245.451 183.148 248.689C182.934 252.044 182.603 255.855 179.759 258.562C173.936 264.11 160.554 262.903 156.951 256.326C153.348 249.748 153.542 245.569 153.581 243.626C153.62 241.684 154.302 239.594 155.665 239.491C156.133 239.447 156.445 239.58 156.795 239.771C158.295 240.61 161.295 245.422 163.573 245.937H174.286C175.727 245.79 176.916 243.259 177.714 242.346C178.513 241.434 181.279 237.961 182.35 238.653H182.389Z" fill="#DFD5FE"/>
<path d="M117.548 312.082C117.353 312.052 117.022 311.714 116.613 311.802C119.496 309.698 116.243 306.843 113.263 306.284C110.283 305.725 110.808 306.372 109.679 305.887C108.062 305.195 102.803 300.221 103.31 298.794C104.595 297.19 107.03 296.072 109.309 295.409C110.614 298.897 113.808 307.594 119.496 308.065C125.183 308.535 124.014 307.005 125.514 309.139C126.352 310.345 125.339 312.067 123.878 312.067C122.417 312.067 119.203 312.258 117.528 312.067L117.548 312.082Z" fill="#DFD5FE"/>
<path d="M160.593 120.651L215.851 120.577C219.143 120.651 219.747 122.976 220.604 124.889C224.305 133.218 226.778 142.135 230.44 150.523C230.888 152.141 229.759 152.671 227.811 152.804C210.963 153.966 191.797 151.891 174.695 152.804C173.02 152.804 171.598 152.009 170.624 151.082C167.294 142.341 163.028 133.379 160.145 124.55C159.717 123.241 158.587 121.489 160.593 120.651ZM220.896 151.376L209.502 121.725C208.664 122.152 209.171 122.255 209.287 122.726C209.502 123.579 209.93 124.536 210.242 125.389C213.203 133.512 216.397 142.886 220.039 150.758C220.253 151.214 219.844 151.509 220.877 151.376H220.896ZM219.026 127.376L217.741 124.241L214.157 123.976C213.884 125.124 216.222 124.197 217.156 124.668L217.897 126.802H214.157C213.923 126.978 215.403 131.202 215.735 131.687C217.176 133.777 222.104 132.467 220.896 131.319C219.689 130.172 220.117 131.849 219.903 131.893C219.494 131.952 217.04 131.952 216.825 131.849L215.657 128.788C215.774 128.7 220.039 129.024 218.637 128.229L215.287 128.509L214.917 127.376H219.026ZM165.755 125.109L165.249 125.757L173.39 146.726L174.715 148.271H215.462C216.28 148.271 215.929 146.918 215.851 146.564C214.917 141.841 210.554 131.908 208.353 127.096C206.152 122.284 207.944 125.639 207.242 125.109H165.755ZM218.539 134.218C215.735 134.836 217.176 138.839 220.877 139.118C226.077 139.516 223.759 133.056 218.539 134.218ZM226.876 146.859C225.123 144.063 226.097 139.398 220.117 140.767C219.552 141.061 219.572 142.473 220.117 142.783L224.227 142.341C225.045 144.828 224.5 143.813 222.162 144.033C221.597 144.092 221.013 144.092 220.877 144.607L224.986 144.328L225.727 146.682L226.856 146.873L226.876 146.859ZM223.175 148.521L222.201 146.579C221.403 146.991 221.734 147.124 221.909 147.639C222.552 149.61 224.168 149.463 226.506 149.39L225.882 148.595L223.195 148.507L223.175 148.521Z" fill="#DFD5FE"/>
<path d="M252.294 141.502H228.181L223.896 130.481C229.798 134.086 229.077 125.198 235.095 127.817C238.095 129.127 241.523 132.188 244.464 133.453C247.405 134.719 245.73 133.865 245.574 133.174C242.594 131.923 236.42 126.861 233.323 126.581C228.882 126.198 228.902 131.908 225.24 130.451C221.422 128.921 222.26 124.55 220.312 122.034C217.098 117.914 205.684 120.562 200.328 119.635L196.978 110.998H236.79C237.764 112.131 237.861 113.308 239.867 113.764C241.874 114.22 241.776 113.573 242.146 114.294L252.294 141.502ZM228.259 115.015C222.961 115.942 225.921 122.078 230.596 123.005C240.744 125.036 237.335 113.426 228.259 115.015Z" fill="#DFD5FE"/>
<path d="M175.299 119.753L170.897 108.231C170.8 107.466 171.481 106.627 172.514 106.48L235.251 106.45L236.595 110.424H195.848L199.218 119.738L195.517 119.709C195.186 116.177 192.011 116.781 188.349 117.031C187.083 117.693 189.381 119.885 187.628 119.738C187.083 116.825 185.427 116.619 181.805 116.898C179.019 117.119 179.74 118.134 180.519 119.738H175.28L175.299 119.753ZM183.324 110.424H177.539C177.071 111.674 178.26 115.059 179.876 115.574C181.493 116.089 185.311 116.133 185.603 114.956C185.895 113.779 184.317 110.63 183.343 110.409L183.324 110.424ZM192.03 110.777C191.31 110.218 186.654 110.276 185.544 110.688C184.979 111.292 186.304 114.691 187.044 115.235C188.096 116.015 192.732 116.089 193.433 115.235C194.134 114.382 192.517 111.159 192.03 110.777Z" fill="#DFD5FE"/>
<path d="M248.925 113.823C249.587 117.87 261.41 143.209 260.241 145.108C260.066 145.402 259.696 145.681 259.306 145.814L229.72 146.035L228.005 142.061H253.229L253.638 141.473L242.945 113.808H248.925V113.823Z" fill="#DFD5FE"/>
<path d="M260.884 108.731C257.319 105.671 256.716 110.041 255.196 110.085C250.6 109.879 243.821 106.848 242.107 103.552C240.393 100.255 243.159 101.845 242.205 100.829C245.594 101.3 254.768 100.094 257.436 101.035C258.917 101.55 260.514 107.304 260.884 108.731Z" fill="#DFD5FE"/>
<path d="M240.14 113.249C239.4 113.131 238.582 112.366 238.27 111.836C237.569 110.644 234.55 102.875 234.472 101.756C234.394 100.638 234.608 100.932 234.92 100.814C235.952 101.462 235.232 103.301 236.985 103.36L236.245 100.814H239.03C238.874 102.492 240.315 102.477 240.997 103.154C243.919 106.068 244.659 108.054 249.723 109.702C252.762 110.688 258.254 110.218 257.943 113.234H240.199L240.14 113.249ZM237.705 104.493L236.576 104.64C236.634 104.905 237.608 108.04 238.446 107.319L237.705 104.493Z" fill="#DFD5FE"/>
<path d="M260.514 111.836L270.408 121.74L268.85 125.36H262.617C260.689 123.8 257.728 122.74 257.845 120.445C257.962 118.149 258.761 114.456 258.994 111.557L261.799 117.487L262.734 117.34L260.494 111.836H260.514ZM261.76 121.916C265.364 124.668 268.928 120.533 264.585 118.782C261.293 117.457 259.54 120.224 261.76 121.916Z" fill="#DFD5FE"/>
<path d="M193.9 117.84L194.738 119.753C191.777 119.577 188.485 120.754 188.758 117.502L193.9 117.84Z" fill="#DFD5FE"/>
<path d="M186.499 119.753H181.259L180.889 117.487C183.635 117.487 186.674 116.884 186.499 119.753Z" fill="#DFD5FE"/>
<path d="M261.624 111.277C260.923 111.777 260.397 109.85 259.209 109.85C258.021 109.85 258.274 110.497 258.274 110.997L256.813 110.688C256.443 110.247 257.397 108.834 257.904 108.584C258.936 108.099 263.065 110.262 261.624 111.277Z" fill="#DFD5FE"/>
<path d="M239.945 101.109C240.257 100.844 241.971 101.477 241.815 102.095C241.095 103.037 239.381 101.58 239.945 101.109Z" fill="white"/>
<path d="M278.063 119.179L276.758 118.914L276.583 118.061L277.888 118.326L278.063 119.179Z" fill="white"/>
<path d="M262.384 111.836H262.014V112.395H262.384V111.836Z" fill="white"/>
<path d="M139.733 175.701V179.026L134.162 180.101L133.247 183.014L137.123 186.016L134.922 188.812C131.085 187.929 129.351 186.943 126.78 189.96L128.163 193.83C128.085 194.051 125.3 195.346 124.93 195.39C123.586 195.552 121.716 193.109 120.45 192.638L116.671 193.212L115.249 197.406L110.653 197.362L109.25 193.138L105.257 192.609L101.459 195.39C96.7066 194.286 97.8363 193.006 99.3166 190.122C97.0767 186.914 94.9731 187.87 91.1555 188.768C90.5906 188.194 88.5455 186.119 88.974 185.56C89.3441 185.428 89.7336 185.325 90.0453 185.104C92.9474 183 92.9474 183.058 91.8567 179.895L86.2666 178.835L86.4419 175.598L91.5061 174.627C94.0187 171.477 91.5061 170.801 88.9545 168.652L90.7854 165.738C92.3826 165.738 95.3821 167.195 96.7261 166.724C98.0701 166.254 99.2387 164.885 99.2777 164.708L97.8948 160.397L101.401 159.014L105.549 162.001L108.783 161.427C111.354 158.955 108.646 155.909 115.055 157.086C116.184 158.44 115.21 160.794 117.47 161.471C121.404 162.648 121.833 160.941 124.209 158.94C125.163 159.455 128.027 160.117 128.085 161.044C127.91 162.222 126.137 163.973 126.955 165.017C127.773 166.062 129.273 166.813 129.799 166.842L134.824 165.827C135.078 165.915 136.831 168.005 136.928 168.24C137.298 169.241 133.753 170.742 133.032 171.522L134.123 174.288L139.655 175.612L139.733 175.701ZM122.826 184.883C135.506 175.436 117.489 160.588 103.894 169.3C89.4609 178.57 109.309 194.948 122.826 184.883Z" fill="#DFD5FE"/>
<path d="M131.903 199.142C132.175 199.863 132.059 200.878 132.896 201.349C136.246 203.204 136.129 199.069 139.402 200.834C139.772 201.217 137.337 203.248 139.967 204.513C141.233 205.131 142.323 203.527 143.921 204.616C145.518 205.705 142.206 206.22 142.479 207.942C142.849 210.414 146.94 208.516 146.18 211.385C146.044 211.753 143.239 211.797 142.869 212.18C142.499 212.562 142.362 213.946 142.46 214.196C142.81 215.049 146.238 215.152 143.317 217.183C141.661 216.756 140.142 216.182 139.032 217.624C137.863 219.155 141.135 220.332 137.357 221.083C135.74 220.038 135.389 219.052 132.974 219.758L131.903 222.275L129.332 222.304C129.663 220.774 128.475 219.125 126.235 219.523C124.93 219.758 124.462 222.127 122.222 220.42L122.924 217.963C121.774 215.579 118.6 217.521 117.82 217.183C117.041 216.845 117.002 216.094 117.002 215.947C116.983 214.873 120.158 214.843 118.619 212.489C117.801 211.238 114.49 212.562 115.133 210.296C115.775 208.03 117.879 209.634 118.424 209.251C118.97 208.869 119.125 207.559 119.106 207.456C119.009 206.779 114.938 205.44 118.288 204.204C119.924 204.086 120.82 205.661 122.612 203.513C123.313 202.688 120.567 200.334 124.19 200.29L125.748 201.703C128.494 202.129 129.371 201.188 129.332 199.142H131.903ZM130.695 204.307C119.262 204.337 119.866 217.757 131.747 216.903C141.603 216.197 141.291 204.278 130.695 204.307Z" fill="#DFD5FE"/>
<path d="M189.79 50.0762C217.351 48.119 220.682 79.7569 194.153 81.6257C165.774 83.6123 162.639 52.0186 189.79 50.0762ZM173.799 64.6737C172.144 77.5938 193.686 84.6865 205.197 74.9892C216.709 65.2918 201.944 47.1037 183.889 53.5195C182.564 53.9904 177.247 56.8452 177.169 57.7575C177.091 58.6699 177.519 58.1843 178.104 57.9047C179.136 57.3897 180.188 56.1683 181.318 55.5208C192.284 49.2374 208.158 54.8292 208.956 65.0858C210.184 80.9783 178.552 84.6277 174.598 67.3225C174.403 66.4543 175.065 65.1152 173.819 64.6737H173.799ZM192.478 58.1843H189.849C190.336 60.7595 189.401 59.7588 187.589 60.8625C185.778 61.9661 185.72 63.0845 186.207 64.4677C186.947 66.675 192.79 66.7927 193.355 67.867C194.543 70.1331 188.407 69.6916 186.869 68.9265C185.817 71.7076 187.258 71.7812 190.589 71.7665L190.979 73.7384L193.218 73.4588C192.79 70.9277 193.589 71.8695 195.478 70.7806C196.452 70.2214 197.231 69.4562 197.348 68.5144C197.854 64.35 190.492 64.7326 189.907 63.3935C189.07 61.4952 194.056 61.7307 195.458 62.4517L195.79 60.2297L192.478 59.906V58.2137V58.1843Z" fill="#DFD5FE"/>
<path d="M113.925 115.029C141.447 112.822 144.505 144.386 117.548 145.726C91.3308 147.021 87.9807 117.119 113.925 115.029ZM119.866 120.945C115.133 123.211 109.192 125.109 104.673 127.537C102.628 128.641 101.654 129.45 102.608 131.599C103.563 133.747 107.322 137.941 108.296 138.883C109.951 140.487 111.023 140.811 113.633 139.957C116.243 139.104 125.378 135.145 128.319 133.541C131.26 131.937 130.773 131.687 130.267 130.201C129.76 128.715 124.677 122.431 123.878 121.754C122.709 120.783 121.541 120.739 119.866 120.96V120.945Z" fill="#DFD5FE"/>
<path d="M128.494 70.972C153.133 68.9266 158.724 96.3117 134.941 100.138C108.218 104.435 102.199 73.1499 128.494 70.972ZM127.735 78.5945C125.709 78.8152 118.639 81.1991 118.833 82.8914C119.028 84.5836 123.411 81.9349 124.521 81.5229C130.5 79.2714 136.266 80.3309 141.155 83.5536C144.115 83.0385 142.401 81.8613 140.882 80.949C137.298 78.8005 132.195 78.1089 127.735 78.5945ZM129.234 82.8178C127.559 82.9797 122.028 84.6278 121.833 85.9963C121.502 88.4538 126.313 85.4371 127.462 85.1428C129.429 84.6425 131.318 84.5248 133.364 84.9074C135.409 85.29 138.097 87.203 139.032 86.8498C141.116 85.7314 137.805 84.2305 136.422 83.7301C134.201 82.9355 131.689 82.5676 129.234 82.8031V82.8178ZM136.714 88.7333C136.188 88.0417 131.864 86.9528 130.637 86.9822C129.059 87.0117 124.638 88.233 124.793 89.6604C124.949 91.0878 127.91 89.5574 128.825 89.3072C132.76 88.1889 134.104 90.4845 135.837 90.3962C137.571 90.3079 137.103 89.2484 136.694 88.7333H136.714ZM132.955 94.5312C135.233 92.3975 130.909 89.6016 128.689 91.5881C126.469 93.5747 130.773 96.5619 132.955 94.5312Z" fill="#DFD5FE"/>
<path d="M73.723 208.074C71.2688 206.353 74.6969 203.115 77.5601 205.043C80.3259 206.897 76.1187 209.752 73.723 208.074Z" fill="#DFD5FE"/>
<path d="M354.786 89.322C356.792 87.8946 360.765 90.2197 358.253 92.0885C355.896 93.8396 352.448 90.9996 354.786 89.322Z" fill="#DFD5FE"/>
<path d="M242.945 57.89L239.205 57.3308C239.03 56.286 240.471 55.8004 241.27 55.0793L242.945 57.9047V57.89Z" fill="white"/>
<path d="M355.058 234.974C354.065 235.136 354.416 234.783 354.123 234.415C348.319 226.969 345.144 227.425 335.327 224.6C325.511 221.774 334.237 224.438 334.12 223.952C340.664 224.408 348.455 227.072 352.585 231.03C353.675 232.075 355.097 233.605 355.039 234.959L355.058 234.974Z" fill="black"/>
<path d="M333.01 240.345C333.75 236.872 332.795 232.899 330.828 229.706C328.861 226.513 329.095 227.602 328.296 226.542C327.497 225.483 327.459 226.189 328.335 225.674C332.269 228.999 334.821 234.93 334.139 239.374C334.042 239.948 333.964 240.419 333.01 240.345Z" fill="black"/>
<path d="M394.871 281.857C395.65 281.724 397.052 280.606 397.208 279.944L402.915 261.241C404.123 261.005 403.675 262.168 403.558 262.727C402.603 267.245 400.11 275.264 398.24 279.605C397.364 281.651 395.903 282.519 393.02 282.725C385.229 283.24 376.445 282.298 368.537 282.725C367.505 285.153 368.167 289.494 363.862 289.788C362.148 289.906 350.715 289.936 349.838 289.627C346.741 288.567 349.877 284.491 350.208 282.71H328.335L327.79 282.284L328.335 281.857H394.871ZM367.777 282.71H350.949C351.046 284.785 347.131 288.832 351.494 289.215C353.286 289.376 363.512 289.376 364.68 288.994C366.901 288.273 366.959 284.285 367.758 282.71H367.777Z" fill="black"/>
<path d="M387.956 313.215H318.07V313.774H387.956V313.215Z" fill="black"/>
<path d="M230.888 181.381C234.219 181.145 236.381 185.31 232.992 186.649C228.337 188.488 226.019 181.734 230.888 181.381Z" fill="black"/>
<path d="M410.764 261.241V309.257L398.805 313.774C401.98 311.67 406.265 310.243 410.024 308.698V261.255H410.764V261.241Z" fill="black"/>
<path d="M165.755 125.109H207.242C207.944 125.624 208.06 126.419 208.353 127.096C210.554 131.908 214.917 141.841 215.851 146.564C215.929 146.917 216.261 148.271 215.462 148.271H174.715L173.39 146.726L165.249 125.757L165.755 125.109ZM197.348 137.249C197.465 137.176 196.627 136.293 196.413 136.116C194.718 134.542 188.563 129.759 186.518 128.626C184.473 127.493 185.759 128.097 184.999 128.214C184.843 128.744 185.388 128.876 185.739 129.2C187.55 130.848 193.686 135.66 195.809 136.837C196.315 137.117 196.588 137.367 197.328 137.249H197.348ZM211.547 144.033L201.652 136.131L191.368 128.788L201.263 136.69L211.547 144.033Z" stroke="black" stroke-width="2" stroke-miterlimit="10"/>
<path d="M220.896 151.376C219.864 151.509 220.273 151.215 220.059 150.758C216.397 142.886 213.202 133.527 210.261 125.389C209.95 124.521 209.502 123.579 209.307 122.726C209.112 121.872 208.684 122.152 209.521 121.725L220.916 151.376H220.896Z" fill="black"/>
<path d="M219.026 127.376H214.917L215.287 128.509L218.637 128.229C220.039 129.038 215.774 128.7 215.657 128.788L216.825 131.849C217.02 131.952 219.494 131.952 219.903 131.893C220.312 131.834 220.292 130.775 220.896 131.319C222.104 132.452 217.195 133.777 215.735 131.687C214.274 129.598 213.923 126.978 214.157 126.802H217.897L217.157 124.668C216.202 124.197 213.884 125.124 214.157 123.976L217.741 124.241L219.026 127.376Z" fill="black"/>
<path d="M226.876 146.859L225.746 146.667L225.006 144.313L220.896 144.592C221.033 144.077 221.636 144.077 222.182 144.019C224.519 143.798 225.064 144.828 224.246 142.326L220.137 142.768C219.591 142.459 219.572 141.046 220.137 140.752C226.097 139.383 225.142 144.048 226.895 146.844L226.876 146.859ZM223.876 142.061L223.253 141.267L220.507 141.223V142.061H223.876Z" fill="black"/>
<path d="M218.539 134.218C223.759 133.07 226.077 139.53 220.877 139.118C217.176 138.839 215.754 134.836 218.539 134.218ZM219.299 134.777C218.793 134.836 218.189 135.101 217.955 135.484C217.234 137.132 220.331 139.045 222.415 138.265C224.11 136.793 221.422 134.542 219.299 134.777Z" fill="black"/>
<path d="M223.175 148.521L225.863 148.61L226.486 149.404C224.149 149.478 222.532 149.61 221.89 147.653C221.247 145.696 221.403 147.006 222.182 146.594L223.156 148.536L223.175 148.521Z" fill="black"/>
<path d="M228.259 115.015C237.335 113.44 240.744 125.051 230.596 123.005C225.921 122.063 222.941 115.927 228.259 115.015ZM228.122 121.063C233.927 125.551 239.595 119.606 232.972 116.413C227.402 113.72 224.168 118.002 228.122 121.063Z" fill="black"/>
<path d="M183.324 110.424C184.317 110.644 185.778 114.191 185.583 114.971C185.291 116.148 180.987 115.942 179.857 115.589C178.24 115.074 177.052 111.689 177.519 110.438H183.304L183.324 110.424ZM184.629 114.941L183.149 111.13L178.279 110.997L179.759 114.809L184.629 114.941Z" fill="black"/>
<path d="M192.03 110.777C192.517 111.159 193.842 114.721 193.433 115.236C192.731 116.104 188.096 116.03 187.044 115.236C185.992 114.441 184.979 111.277 185.544 110.689C186.635 110.277 191.29 110.218 192.03 110.777ZM192.478 114.941L191.212 111.248L186.129 110.998L187.609 114.824L192.478 114.956V114.941Z" fill="black"/>
<path d="M237.705 104.493L238.446 107.319C237.608 108.055 236.634 104.905 236.576 104.641L237.705 104.493Z" fill="black"/>
<path d="M261.76 121.916C259.559 120.239 261.293 117.457 264.585 118.782C268.909 120.533 265.364 124.653 261.76 121.916ZM262.247 119.209C260.689 119.591 262.15 121.681 263.767 121.946C267.623 122.564 265.15 118.473 262.247 119.209Z" fill="black"/>
<path d="M122.826 184.883C109.309 194.948 89.4609 178.57 103.894 169.3C117.489 160.573 135.506 175.436 122.826 184.883ZM110.906 167.548C93.259 169.373 98.8686 190.902 116.905 186.767C131.883 183.338 127.209 165.856 110.906 167.548Z" fill="black"/>
<path d="M130.695 204.307C141.311 204.278 141.622 216.212 131.747 216.903C119.866 217.757 119.262 204.337 130.695 204.307ZM135.915 206.559C128.884 201.276 118.327 209.825 125.573 214.799C132.643 219.67 142.888 211.783 135.915 206.559Z" fill="black"/>
<path d="M193.199 58.1845V59.8767L196.023 60.2005L195.75 62.4225C194.543 61.7014 190.277 61.466 190.998 63.3642C191.719 65.2625 197.815 64.3207 197.367 68.4852C196.919 72.6496 196.588 70.1921 195.77 70.7513C194.153 71.8402 193.472 70.8985 193.842 73.4295L191.933 73.7091L191.602 71.7372C188.758 71.7372 187.531 71.6784 188.427 68.8972C189.732 69.6624 195.01 70.1038 193.978 67.8377C193.491 66.7782 188.505 66.6457 187.862 64.4385C187.453 63.0552 187.784 61.7308 189.05 60.8332C190.316 59.9356 191.388 60.7302 190.978 58.155H193.218L193.199 58.1845Z" stroke="black" stroke-width="2" stroke-miterlimit="10"/>
<path d="M173.799 64.6738C175.046 65.1152 174.384 66.4543 174.578 67.3225C178.513 84.6277 210.164 80.9783 208.937 65.0858C208.138 54.8292 192.264 49.2374 181.298 55.5209C170.332 61.8043 179.117 57.3897 178.084 57.9047C177.052 58.4198 177.13 57.993 177.149 57.7576C177.227 56.86 182.564 53.9905 183.869 53.5196C201.925 47.089 218.189 64.041 205.178 74.9892C192.167 85.9374 172.124 77.5938 173.78 64.6738H173.799Z" fill="black"/>
<path d="M119.866 120.945C121.541 120.724 122.709 120.768 123.878 121.74C125.047 122.711 129.994 129.392 130.267 130.186C130.773 131.672 129.877 132.688 128.319 133.527C125.378 135.131 116.905 138.868 113.633 139.942C110.36 141.017 109.951 140.472 108.296 138.868C107.322 137.926 103.037 132.555 102.608 131.584C101.654 129.436 102.628 128.626 104.673 127.523C109.172 125.095 115.113 123.196 119.866 120.93V120.945ZM120.255 121.489L104.147 128.538C102.803 129.303 102.998 130.363 103.563 131.437C104.128 132.511 108.452 138.177 109.328 138.942C110.205 139.707 111.549 139.869 112.951 139.442C116.243 138.427 124.053 134.836 127.189 133.247C129.195 132.217 129.916 131.717 129.04 129.701C128.689 128.921 124.287 123.299 123.508 122.578C122.729 121.857 121.735 121.239 120.255 121.475V121.489Z" fill="black"/>
<path d="M126.838 79.7613C130.844 79.4332 135.465 79.9004 138.698 81.3518C140.068 81.9682 141.614 82.7734 138.944 83.1114C134.534 80.9343 129.333 80.2186 123.939 81.7395C122.938 82.0179 119.002 84.0061 118.809 82.664C118.616 81.322 125.011 79.9104 126.838 79.7613Z" stroke="black" stroke-miterlimit="10"/>
<path d="M128.189 84.0625C130.643 83.827 133.156 84.1802 135.376 84.9895C136.759 85.4898 140.07 86.9908 137.986 88.1092C137.051 88.477 133.916 86.461 132.318 86.1667C130.721 85.8724 128.384 85.9019 126.417 86.4022C124.449 86.9025 120.456 89.6984 120.788 87.2557C120.963 85.8872 126.514 84.239 128.189 84.0772V84.0625Z" stroke="black" stroke-miterlimit="10"/>
<path d="M136.603 90.3191C136.992 90.6429 136.739 91.3639 135.746 91.3933C134.012 91.4522 132.668 89.9659 128.734 90.687C127.818 90.8489 124.897 92.0555 124.702 90.9224C124.507 89.7894 128.967 89.2008 130.545 89.186C131.753 89.186 136.096 89.8777 136.622 90.3191H136.603Z" stroke="black" stroke-miterlimit="10"/>
<path d="M132.666 97.2733C130.504 99.304 125.81 96.6405 128.401 94.3302C130.991 92.0199 134.945 95.1396 132.666 97.2733Z" stroke="black" stroke-width="3" stroke-miterlimit="10"/>
<path d="M367.777 282.71C366.979 284.285 366.901 288.273 364.7 288.994C363.531 289.376 353.305 289.362 351.513 289.214C347.15 288.832 351.065 284.785 350.968 282.71H367.797H367.777Z" fill="#DFD5FE"/>
<path d="M211.547 144.033L201.263 136.69L191.368 128.788L201.633 136.131L211.547 144.033Z" fill="#DFD5FE"/>
<path d="M197.348 137.25C196.607 137.367 196.335 137.117 195.828 136.838C193.686 135.66 187.55 130.848 185.758 129.2C185.408 128.877 184.843 128.744 185.018 128.214C185.778 128.097 186.012 128.347 186.538 128.626C188.583 129.759 194.738 134.542 196.432 136.117C198.127 137.691 197.465 137.176 197.367 137.25H197.348Z" fill="#DFD5FE"/>
<path d="M223.876 142.062H220.507V141.208L223.253 141.267L223.876 142.062Z" fill="white"/>
<path d="M219.299 134.777C221.403 134.542 224.11 136.793 222.415 138.265C220.331 139.03 217.234 137.132 217.955 135.484C218.169 135.116 218.793 134.836 219.299 134.777Z" fill="#DFD5FE"/>
<path d="M228.122 121.063C224.168 118.002 227.402 113.72 232.972 116.413C239.595 119.606 233.927 125.551 228.122 121.063Z" fill="#DFD5FE"/>
<path d="M184.629 114.941L179.779 114.809L178.279 110.998L183.148 111.13L184.629 114.941Z" fill="#DFD5FE"/>
<path d="M192.478 114.941L187.609 114.824L186.129 110.998L191.212 111.248L192.478 114.941Z" fill="#DFD5FE"/>
<path d="M262.247 119.209C265.15 118.488 267.643 122.578 263.767 121.946C262.15 121.681 260.689 119.591 262.247 119.209Z" fill="#DFD5FE"/>
<path d="M110.906 167.548C127.209 165.856 131.883 183.338 116.905 186.767C98.8686 190.902 93.2591 169.373 110.906 167.548Z" fill="#DFD5FE"/>
<path d="M135.915 206.559C142.888 211.783 132.643 219.67 125.572 214.799C118.327 209.825 128.884 201.276 135.915 206.559Z" fill="#DFD5FE"/>
<path d="M120.255 121.49C121.735 121.254 122.631 121.784 123.508 122.593C124.384 123.403 128.689 128.921 129.04 129.715C129.916 131.717 129.215 132.232 127.189 133.262C124.073 134.851 116.262 138.442 112.951 139.457C109.64 140.472 110.399 139.898 109.328 138.957C108.257 138.015 104.108 132.467 103.563 131.452C103.017 130.436 102.784 129.318 104.147 128.553L120.255 121.504V121.49ZM121.093 124.55C120.099 124.389 120.45 124.742 120.158 125.11C118.775 126.875 117.742 128.877 116.535 130.716C113.535 131.143 110.38 130.186 107.439 130.481C104.498 130.775 106.27 130.687 106.874 131.04L116.593 131.481L121.073 124.55H121.093Z" fill="#DFD5FE"/>
<path d="M121.093 124.55L116.613 131.481L106.893 131.04C106.27 130.687 106.932 130.525 107.458 130.48C110.399 130.201 113.574 131.143 116.554 130.716C117.743 128.877 118.794 126.875 120.177 125.109C121.56 123.344 120.119 124.403 121.112 124.55H121.093Z" fill="#DFD5FE"/>
</svg>
