<svg width="211" height="217" viewBox="0 0 211 217" fill="none" xmlns="http://www.w3.org/2000/svg">
<path d="M51.196 151.753C41.0638 177.17 15.056 168.763 9.31148 152.954C3.567 137.146 11.4257 114.359 36.771 102.9C80.3605 83.2289 132.124 98.2258 119.214 110.755C111.355 118.384 75.9094 89.5913 51.1644 151.753H51.196Z" fill="#F67ADF"/>
<path d="M38.728 91.7987C13.0988 99.5239 3.28206 73.3612 11.7094 58.8841C20.1684 44.4069 42.3888 36.5179 66.8827 49.7625C109.019 72.5171 129.882 123.513 112.333 120.948C101.633 119.39 101.413 72.9392 38.728 91.7987Z" fill="#F67ADF"/>
<path d="M76.5719 44.4059C54.7303 28.5974 68.4917 4.38348 84.7482 2.17442C101.003 -0.0650172 120.856 12.8866 126.063 40.8677C135.027 88.943 109.272 137.503 100.277 121.792C94.816 112.217 129.977 83.0666 76.5403 44.4384L76.5719 44.4059Z" fill="#F67ADF"/>
<path d="M136.164 45.2823C134.554 17.8534 161.541 13.8281 173.377 25.5135C185.213 37.199 187.738 61.2535 169.747 82.8721C138.783 120.04 85.8201 129.615 92.1648 112.607C96.0156 102.251 140.109 112.346 136.164 45.2823Z" fill="#F67ADF"/>
<path d="M172.682 93.7464C192.535 75.3415 212.42 94.5579 210.905 111.341C209.39 128.155 192.694 145.164 165.044 144.159C117.478 142.438 77.1722 105.822 94.0902 100.303C104.38 96.9612 124.169 138.673 172.714 93.7149L172.682 93.7464Z" fill="#F67ADF"/>
<path d="M158.606 153.311C184.961 157.791 182.783 185.74 169.052 195.024C155.322 204.307 131.997 201.483 115.49 178.598C87.1462 139.289 89.8607 84.0404 104.568 94.2004C113.533 100.369 94.1535 142.34 158.574 153.311H158.606Z" fill="#F67ADF"/>
<path d="M104.538 179.151C117.542 203.139 94.9426 218.817 79.3497 213.559C63.7568 208.3 51.3215 187.785 58.4238 160.259C70.6386 112.963 114.322 80.6977 115.774 98.8747C116.658 109.944 72.6895 120.494 104.538 179.151Z" fill="#F67ADF"/>
</svg>
