<svg width="217" height="217" viewBox="0 0 217 217" fill="none" xmlns="http://www.w3.org/2000/svg">
<g clip-path="url(#clip0_846_9)">
<mask id="mask0_846_9" style="mask-type:luminance" maskUnits="userSpaceOnUse" x="-886" y="-9216" width="1920" height="13216">
<path d="M1034 -9216H-886V4000H1034V-9216Z" fill="white"/>
</mask>
<g mask="url(#mask0_846_9)">
<path d="M1034 -9216H-886V4000H1034V-9216Z" fill="#EEE8E0"/>
<path d="M994 -1596H-846C-867.539 -1596 -885 -1578.54 -885 -1557V2808C-885 2829.54 -867.539 2847 -846 2847H994C1015.54 2847 1033 2829.54 1033 2808V-1557C1033 -1578.54 1015.54 -1596 994 -1596Z" stroke="black" stroke-width="2"/>
<path d="M108.5 217C168.423 217 217 168.423 217 108.5C217 48.5771 168.423 0 108.5 0C48.5771 0 0 48.5771 0 108.5C0 168.423 48.5771 217 108.5 217Z" fill="#FEF3C7"/>
<path d="M28.6369 135.675L29.5122 138.112C29.9932 139.452 30.6682 140.4 31.5371 140.955C32.428 141.503 33.4554 141.568 34.6193 141.15C35.8052 140.724 36.5495 140.036 36.8524 139.084C37.1632 138.154 37.0741 137.009 36.5852 135.647C36.4117 135.164 36.2281 134.722 36.0343 134.32C35.8625 133.911 35.6806 133.542 35.4886 133.214L28.6369 135.675ZM26.268 139.538L23.8195 132.719L35.4805 128.532C35.8758 128.39 36.2227 128.389 36.5211 128.53C36.8275 128.693 37.1135 128.937 37.3794 129.263C37.8513 129.887 38.3157 130.662 38.7724 131.589C39.2292 132.516 39.6074 133.397 39.9071 134.231C40.948 137.13 41.1098 139.514 40.3926 141.383C39.6833 143.274 38.2745 144.598 36.1663 145.355C34.7608 145.859 33.4277 145.979 32.1669 145.712C30.906 145.446 29.7694 144.801 28.7568 143.776C27.7442 142.751 26.9146 141.338 26.268 139.538ZM25.6971 132.045L27.1993 136.228L18.7006 139.28C18.5717 139.128 18.4182 138.873 18.2402 138.516C18.0482 138.188 17.8812 137.826 17.7392 137.431C17.4554 136.641 17.3931 136.018 17.5524 135.564C17.7337 135.103 18.1757 134.746 18.8784 134.493L25.6971 132.045ZM33.0144 150.694L34.9584 154.54L27.168 158.967C27.0149 158.839 26.8317 158.634 26.6182 158.353C26.3844 158.083 26.1638 157.766 25.9563 157.401C25.5644 156.711 25.3922 156.125 25.4398 155.641C25.5191 155.167 25.8833 154.745 26.5325 154.376L33.0144 150.694ZM33.0413 155.63L31.0972 151.783L44.7609 144.02C44.8822 144.139 45.0597 144.333 45.2935 144.603C45.5387 144.893 45.7594 145.21 45.9553 145.555C46.3703 146.286 46.5381 146.888 46.4588 147.362C46.3997 147.825 46.0456 148.241 45.3964 148.61L33.0413 155.63ZM36.9154 167.601C37.3549 168.146 37.8049 168.592 38.2655 168.94C38.7261 169.288 39.1005 169.511 39.3888 169.608L42.4942 167.103L40.0462 164.626C39.391 163.925 38.7661 163.485 38.1714 163.305C37.6095 163.129 37.0743 163.246 36.5658 163.656C36.0391 164.081 35.7899 164.627 35.8182 165.293C35.8464 165.96 36.2121 166.729 36.9154 167.601ZM47.9197 158.499C49.3555 160.278 50.1168 162.003 50.2038 163.671C50.309 165.325 49.5534 166.804 47.9371 168.108L41.6718 173.163C41.2359 173.514 40.803 173.684 40.3729 173.671C39.9575 173.676 39.5181 173.596 39.0546 173.43C38.3538 173.156 37.5976 172.702 36.786 172.068C35.9563 171.448 35.1459 170.648 34.3547 169.667C32.8897 167.851 32.0846 166.147 31.9396 164.555C31.8128 162.949 32.4395 161.589 33.8197 160.475C35.0365 159.493 36.2703 159.128 37.5212 159.378C38.805 159.631 40.1129 160.435 41.4449 161.789L44.815 165.186L45.3053 164.79C46.0317 164.204 46.3533 163.525 46.2699 162.753C46.2012 161.999 45.8006 161.168 45.0681 160.26C44.4967 159.551 43.8492 158.934 43.1255 158.409C42.4019 157.884 41.7005 157.46 41.0213 157.139C41.0201 156.84 41.088 156.515 41.2251 156.165C41.3621 155.814 41.5668 155.529 41.8392 155.31C42.493 154.782 43.2673 154.757 44.162 155.234C44.8083 155.553 45.457 156.004 46.1081 156.588C46.7737 157.19 47.3776 157.827 47.9197 158.499ZM62.8228 180.761L60.7143 183.422L57.3402 180.748L59.3401 178.224C59.9778 177.42 60.2129 176.653 60.0456 175.925C59.8927 175.179 59.4323 174.501 58.6642 173.893C58.0973 173.443 57.5273 173.111 56.9542 172.895C56.4138 172.675 55.8975 172.519 55.4051 172.426L52.1009 176.596L48.7269 173.922L52.205 169.533C52.5528 169.094 52.9268 168.81 53.3271 168.681C53.7418 168.533 54.2262 168.485 54.7804 168.537C55.6188 168.606 56.562 168.863 57.6099 169.306C58.6906 169.746 59.7613 170.386 60.8219 171.226C62.669 172.69 63.7785 174.239 64.1504 175.873C64.5407 177.522 64.0981 179.151 62.8228 180.761ZM49.792 172.578L53.1661 175.252L47.5359 182.356C47.3462 182.295 47.0996 182.174 46.7963 181.994C46.4785 181.831 46.1551 181.619 45.8259 181.358C45.2041 180.866 44.8247 180.386 44.6878 179.921C44.5836 179.451 44.7633 178.924 45.2271 178.338L49.792 172.578ZM58.4054 179.404L61.7794 182.077L56.1493 189.182C55.9778 189.136 55.7313 189.015 55.4097 188.819C55.0919 188.657 54.7776 188.452 54.4667 188.206C53.8266 187.699 53.4381 187.212 53.3011 186.746C53.1969 186.277 53.3767 185.749 53.8404 185.164L58.4054 179.404ZM97.0248 199.874C96.6934 201.474 95.839 202.607 94.4615 203.275C93.0888 203.92 91.2714 204.008 89.0095 203.539C87.1816 203.16 85.7419 202.576 84.6903 201.786C83.6387 200.996 83.2075 200.145 83.3969 199.231C83.4774 198.842 83.6422 198.507 83.8912 198.225C84.145 197.92 84.4394 197.707 84.7743 197.586C85.3288 198.13 85.9956 198.649 86.7747 199.144C87.5538 199.639 88.4803 199.998 89.5541 200.221C91.4962 200.623 92.5904 200.23 92.8365 199.042C92.9407 198.539 92.8522 198.104 92.571 197.736C92.2946 197.345 91.8164 197.008 91.1365 196.724L89.2896 195.805C87.6974 195.094 86.5706 194.265 85.909 193.317C85.2703 192.375 85.0859 191.252 85.3557 189.95C85.654 188.511 86.4919 187.457 87.8693 186.789C89.2515 186.099 90.9936 185.971 93.0956 186.407C94.1924 186.634 95.1511 186.952 95.972 187.36C96.7976 187.746 97.4077 188.194 97.8023 188.705C98.2198 189.22 98.3693 189.763 98.2509 190.334C98.1705 190.723 98.0057 191.058 97.7566 191.34C97.5351 191.604 97.2707 191.787 96.9634 191.891C96.7224 191.674 96.3809 191.424 95.939 191.142C95.5246 190.842 95.0323 190.573 94.4619 190.336C93.8962 190.076 93.3164 189.884 92.7223 189.761C91.8313 189.576 91.0922 189.578 90.5052 189.766C89.9457 189.936 89.6115 190.284 89.5026 190.809C89.4221 191.198 89.502 191.56 89.7422 191.896C89.9824 192.231 90.4401 192.552 91.1153 192.859L92.7779 193.633C94.5386 194.45 95.7541 195.369 96.4243 196.39C97.0992 197.388 97.2994 198.549 97.0248 199.874ZM108.623 202.273C109.323 202.273 109.953 202.204 110.514 202.064C111.074 201.925 111.482 201.773 111.739 201.61L111.742 197.62L108.277 197.968C107.32 198.037 106.585 198.246 106.071 198.596C105.581 198.922 105.336 199.412 105.335 200.065C105.335 200.742 105.602 201.279 106.139 201.676C106.675 202.073 107.503 202.272 108.623 202.273ZM108.459 187.993C110.746 187.994 112.565 188.486 113.918 189.467C115.27 190.424 115.946 191.942 115.944 194.018L115.939 202.068C115.938 202.628 115.798 203.071 115.518 203.398C115.261 203.724 114.922 204.016 114.502 204.272C113.848 204.645 113.02 204.948 112.016 205.18C111.013 205.436 109.881 205.564 108.621 205.563C106.288 205.561 104.456 205.116 103.127 204.229C101.798 203.318 101.134 201.976 101.135 200.202C101.136 198.639 101.627 197.449 102.608 196.633C103.611 195.794 105.059 195.282 106.949 195.097L111.709 194.61V193.98C111.71 193.047 111.384 192.37 110.731 191.949C110.101 191.529 109.203 191.318 108.036 191.317C107.126 191.317 106.24 191.433 105.376 191.665C104.513 191.898 103.742 192.178 103.066 192.504C102.832 192.317 102.623 192.06 102.436 191.733C102.25 191.406 102.157 191.068 102.157 190.718C102.157 189.878 102.625 189.26 103.558 188.864C104.212 188.561 104.97 188.34 105.834 188.201C106.72 188.061 107.596 187.992 108.459 187.993ZM133.902 189.059L134.995 192.896L130.855 194.076L129.896 190.71C129.646 189.835 129.195 189.272 128.541 189.022C127.904 188.742 127.181 188.718 126.373 188.948C125.79 189.114 125.277 189.358 124.834 189.678C124.408 189.969 124.058 190.275 123.785 190.595L125.234 195.678L121.094 196.858L119.569 191.506C119.415 190.967 119.403 190.498 119.531 190.097C119.653 189.674 119.897 189.253 120.263 188.833C120.824 188.164 121.568 187.539 122.495 186.96C123.444 186.374 124.468 185.924 125.568 185.611C126.667 185.298 127.725 185.178 128.741 185.253C129.757 185.327 130.649 185.606 131.418 186.091C131.614 186.181 131.798 186.274 131.971 186.37C132.144 186.466 132.301 186.592 132.442 186.745C132.74 187.025 133.02 187.369 133.282 187.78C133.561 188.161 133.767 188.588 133.902 189.059ZM143.725 186.623L144.723 190.124L140.583 191.304L139.624 187.938C139.374 187.063 138.945 186.493 138.336 186.23C137.721 185.945 136.998 185.92 136.168 186.157C135.562 186.329 135.003 186.622 134.49 187.035C133.999 187.442 133.609 187.905 133.32 188.424L130.514 186.494C131.043 185.713 131.722 184.985 132.549 184.313C133.37 183.618 134.431 183.085 135.733 182.714C136.922 182.375 138.054 182.259 139.127 182.365C140.201 182.472 141.14 182.872 141.944 183.564C142.748 184.257 143.342 185.277 143.725 186.623ZM120.633 195.242L124.773 194.062L127.258 202.78C127.098 202.899 126.856 203.028 126.532 203.169C126.214 203.332 125.854 203.472 125.45 203.587C124.687 203.804 124.076 203.833 123.618 203.672C123.176 203.483 122.852 203.029 122.648 202.311L120.633 195.242ZM130.395 192.46L134.535 191.28L137.019 199.998C136.859 200.117 136.606 200.25 136.259 200.397C135.942 200.56 135.593 200.696 135.211 200.805C134.426 201.029 133.815 201.057 133.379 200.89C132.937 200.701 132.614 200.247 132.409 199.529L130.395 192.46ZM140.122 189.688L144.263 188.508L146.747 197.226C146.609 197.338 146.367 197.468 146.021 197.615C145.703 197.778 145.354 197.914 144.972 198.023C144.187 198.247 143.565 198.278 143.107 198.118C142.665 197.928 142.341 197.475 142.137 196.757L140.122 189.688ZM150.517 181.471L152.955 185.6L149.248 187.789L146.632 183.358C146.336 182.856 146.207 182.363 146.246 181.879C146.274 181.375 146.42 180.842 146.684 180.279C147.073 179.562 147.659 178.81 148.44 178.023C149.222 177.236 150.146 176.528 151.21 175.899C153.099 174.784 154.387 174.809 155.076 175.974C155.242 176.255 155.356 176.54 155.418 176.829C155.468 177.097 155.486 177.358 155.472 177.61C155.248 177.688 154.979 177.806 154.665 177.964C154.34 178.102 154.007 178.272 153.666 178.473C152.942 178.901 152.307 179.384 151.759 179.925C151.219 180.433 150.805 180.948 150.517 181.471ZM148.519 186.553L152.332 184.545L156.889 192.26C156.763 192.415 156.562 192.602 156.284 192.82C156.019 193.058 155.705 193.284 155.343 193.498C154.66 193.901 154.077 194.083 153.593 194.044C153.117 193.972 152.689 193.615 152.31 192.972L148.519 186.553ZM160.445 179.079L163.765 176.338L166.395 179.523C166.885 180.117 167.405 180.399 167.955 180.369C168.523 180.323 169.13 180.033 169.778 179.499C170.066 179.261 170.342 178.972 170.607 178.633C170.889 178.279 171.103 177.951 171.248 177.65C171.492 177.69 171.75 177.764 172.022 177.873C172.293 177.982 172.548 178.18 172.785 178.468C173.216 178.99 173.321 179.63 173.099 180.388C172.896 181.131 172.272 181.933 171.228 182.795C169.807 183.968 168.422 184.582 167.075 184.635C165.73 184.656 164.464 183.946 163.275 182.507L160.445 179.079ZM160.197 174.655L158.036 172.037L163.326 167.669C163.502 167.736 163.722 167.857 163.987 168.031C164.27 168.191 164.516 168.396 164.724 168.648C165.095 169.098 165.269 169.529 165.247 169.941C165.209 170.336 165.019 170.674 164.677 170.956L160.197 174.655ZM164.367 177.067L161.047 179.808L153.025 170.091C153.125 169.918 153.287 169.694 153.512 169.417C153.756 169.125 154.03 168.853 154.336 168.601C154.966 168.081 155.521 167.819 156.002 167.815C156.469 167.793 156.939 168.07 157.415 168.646L164.367 177.067ZM174.009 170.881L171.586 169.087L176.52 160.987C175.794 160.473 174.986 160.24 174.096 160.287C173.206 160.334 172.387 160.806 171.639 161.702C170.877 162.615 170.564 163.646 170.701 164.793C170.82 165.925 171.463 166.994 172.631 167.998L174.095 169.084C175.376 169.879 176.585 170.143 177.72 169.875C178.871 169.588 179.909 168.89 180.836 167.779C181.464 167.027 181.939 166.238 182.262 165.414C182.568 164.575 182.743 163.855 182.788 163.254C183.158 163.138 183.529 163.113 183.899 163.179C184.267 163.212 184.594 163.348 184.88 163.587C185.346 163.976 185.577 164.518 185.574 165.214C185.553 165.895 185.34 166.66 184.936 167.508C184.533 168.356 183.957 169.228 183.21 170.124C182.059 171.504 180.784 172.522 179.385 173.178C177.984 173.802 176.518 173.992 174.989 173.749C173.474 173.488 171.956 172.723 170.433 171.452C169.34 170.54 168.523 169.57 167.983 168.542C167.443 167.514 167.143 166.489 167.084 165.468C167.022 164.413 167.178 163.388 167.552 162.394C167.908 161.384 168.437 160.458 169.14 159.616C170.127 158.434 171.228 157.605 172.444 157.131C173.657 156.624 174.894 156.471 176.155 156.672C177.431 156.855 178.615 157.402 179.708 158.314C180.209 158.733 180.473 159.181 180.5 159.659C180.524 160.104 180.368 160.582 180.033 161.093L174.009 170.881ZM181.227 150.175L185.428 152.487L183.352 156.259L178.844 153.778C178.333 153.497 177.972 153.138 177.759 152.702C177.526 152.254 177.38 151.721 177.321 151.102C177.29 150.286 177.411 149.341 177.683 148.266C177.956 147.19 178.39 146.111 178.986 145.027C180.043 143.106 181.165 142.471 182.351 143.124C182.637 143.281 182.88 143.468 183.08 143.685C183.26 143.891 183.408 144.105 183.525 144.329C183.372 144.511 183.2 144.75 183.011 145.045C182.801 145.329 182.601 145.645 182.41 145.993C182.005 146.729 181.704 147.469 181.508 148.213C181.302 148.925 181.208 149.579 181.227 150.175ZM182.095 155.567L184.354 151.897L192.204 156.216C192.176 156.414 192.097 156.677 191.969 157.006C191.862 157.346 191.707 157.7 191.505 158.068C191.122 158.763 190.713 159.217 190.276 159.43C189.83 159.611 189.28 159.521 188.626 159.161L182.095 155.567ZM200.46 146.332C200.986 147.148 201.088 147.956 200.764 148.757C200.485 149.449 200.022 149.942 199.376 150.234C198.758 149.708 198.064 149.152 197.294 148.564C196.555 147.964 195.803 147.396 195.038 146.861C194.281 146.304 193.594 145.826 192.975 145.425C192.95 145.113 192.964 144.766 193.017 144.385C193.058 143.974 193.152 143.584 193.3 143.216C193.519 142.675 193.817 142.28 194.194 142.03C194.581 141.758 195.077 141.744 195.683 141.989C196.202 142.198 196.782 142.57 197.421 143.105C198.07 143.618 198.664 144.173 199.204 144.768C199.765 145.372 200.184 145.893 200.46 146.332ZM180.017 70.2032L177.558 66.5006L188.928 58.9482L190.304 60.5134C190.704 61.1159 190.852 61.718 190.747 62.3197C190.61 62.9148 190.25 63.406 189.667 63.7933L180.017 70.2032ZM190.304 60.5134L187.272 62.5273L181.114 53.2562C181.192 53.0363 181.331 52.8035 181.532 52.5579C181.72 52.2929 181.97 52.0571 182.281 51.8506C182.806 51.502 183.288 51.3637 183.728 51.4356C184.135 51.501 184.475 51.7378 184.746 52.146L190.304 60.5134ZM181.698 63.7507L184.157 67.4533L173.895 74.2699C173.739 74.1208 173.529 73.9101 173.265 73.6378C172.987 73.3461 172.738 73.0351 172.519 72.7047C172.054 72.0049 171.845 71.4157 171.891 70.9369C171.917 70.471 172.261 70.0185 172.922 69.5796L181.698 63.7507ZM165.09 61.7894C164.594 62.249 164.015 62.4659 163.356 62.4403C162.681 62.3975 162.097 62.1106 161.606 61.5797C161.099 61.0316 160.866 60.4364 160.908 59.794C160.933 59.1346 161.195 58.5751 161.691 58.1155C162.171 57.6719 162.749 57.4549 163.426 57.4647C164.069 57.4732 164.645 57.7515 165.152 58.2996C165.643 58.8306 165.884 59.4343 165.874 60.1109C165.831 60.7862 165.57 61.3457 165.09 61.7894ZM173.845 53.2135L170.897 50.0277L177.628 43.8003C177.807 43.8898 178.032 44.0472 178.304 44.2724C178.593 44.4818 178.88 44.7406 179.165 45.0489C179.704 45.6313 180.005 46.1631 180.069 46.6444C180.116 47.1416 179.865 47.6437 179.317 48.1507L173.845 53.2135ZM172.516 48.5303L175.463 51.716L168.578 58.0861C168.4 57.9966 168.175 57.8392 167.903 57.614C167.598 57.3875 167.303 57.1201 167.018 56.8118C166.463 56.2123 166.17 55.6726 166.139 55.1925C166.091 54.7283 166.35 54.2348 166.915 53.7119L172.516 48.5303ZM152.581 44.8503C152.105 44.4747 151.797 44.0541 151.659 43.5887C151.521 43.1232 151.64 42.6523 152.016 42.1759C152.247 41.8827 152.738 41.4674 153.488 40.9301C154.206 40.3966 155.082 39.7945 156.115 39.124C157.149 38.4534 158.241 37.7843 159.392 37.1165C160.524 36.4343 161.629 35.8052 162.707 35.229C163.771 34.6712 164.69 34.222 165.464 33.8812C165.73 33.883 166.082 33.9825 166.521 34.1798C166.941 34.3627 167.371 34.6275 167.811 34.9742C168.324 35.3787 168.706 35.7988 168.957 36.2343C169.222 36.6515 169.313 37.0644 169.228 37.4732C169.126 38.0169 168.957 38.7597 168.719 39.7015C168.463 40.629 168.156 41.6788 167.796 42.8512C167.436 44.0235 167.055 45.2233 166.652 46.4506C166.248 47.6779 165.847 48.8468 165.447 49.9575C165.028 51.0537 164.643 52.013 164.292 52.8354C163.917 52.8964 163.516 52.8774 163.089 52.7784C162.643 52.6649 162.247 52.4709 161.898 52.1965C161.422 51.8208 161.124 51.4075 161.004 50.9565C160.852 50.5094 160.919 49.9531 161.205 49.2879L163.423 43.5928C163.652 43.0008 163.898 42.3486 164.163 41.6361C164.395 40.9275 164.631 40.2516 164.87 39.6086C165.095 38.9838 165.29 38.454 165.455 38.0192L165.345 37.9325C163.524 39.1116 161.671 40.3692 159.785 41.7054C157.881 43.0271 156.087 44.3608 154.402 45.7065C153.774 45.598 153.167 45.3126 152.581 44.8503ZM152.512 32.2729L151.352 35.0557L142.305 32.2078C141.98 33.0356 141.947 33.876 142.207 34.729C142.466 35.582 143.12 36.2639 144.169 36.7747C145.239 37.2956 146.315 37.3522 147.396 36.9443C148.466 36.5574 149.349 35.6768 150.045 34.3024L150.747 32.6201C151.212 31.1856 151.178 29.9493 150.645 28.9113C150.092 27.8632 149.165 27.0224 147.864 26.389C146.983 25.96 146.103 25.6875 145.226 25.5714C144.338 25.4764 143.597 25.479 143.003 25.5791C142.801 25.2473 142.688 24.8937 142.663 24.5182C142.607 24.1536 142.661 23.8034 142.824 23.4678C143.09 22.9223 143.561 22.5678 144.238 22.4042C144.904 22.2615 145.697 22.2845 146.618 22.4731C147.538 22.6617 148.522 23.0114 149.571 23.5222C151.187 24.3088 152.481 25.3023 153.453 26.5026C154.395 27.7137 154.931 29.0907 155.062 30.6338C155.172 32.1667 154.793 33.8247 153.925 35.6079C153.301 36.8876 152.556 37.9128 151.687 38.6838C150.819 39.4547 149.896 39.9913 148.918 40.2938C147.909 40.607 146.877 40.7013 145.821 40.5767C144.756 40.4731 143.73 40.1813 142.744 39.7011C141.36 39.0269 140.291 38.1563 139.539 37.0894C138.756 36.0331 138.31 34.869 138.203 33.597C138.075 32.3148 138.322 31.0338 138.946 29.7542C139.232 29.1668 139.603 28.8028 140.061 28.6624C140.488 28.5327 140.989 28.5692 141.565 28.7718L152.512 32.2729ZM109.919 27.6451L110.089 24.3945L118.547 24.836L118.378 28.0865L109.919 27.6451ZM113.2 24.5569L112.406 27.0038C110.612 26.9102 109.133 26.5877 107.97 26.0363C106.784 25.4838 105.911 24.7606 105.35 23.8668C104.788 22.9963 104.537 21.9902 104.596 20.8484C104.712 18.6348 105.613 17.0346 107.3 16.0478C108.986 15.0844 111.32 14.6805 114.303 14.8362C114.885 14.8666 115.525 14.9233 116.222 15.0064C116.896 15.065 117.58 15.1707 118.273 15.3237C118.942 15.4755 119.564 15.6481 120.138 15.8417C121.259 16.2974 121.794 17.0146 121.743 17.9932L120.848 35.1549C120.826 35.5743 120.692 35.8945 120.447 36.1153C120.177 36.3583 119.841 36.5276 119.439 36.6235C118.634 36.8384 117.704 36.9652 116.651 37.0037C115.596 37.0654 114.509 37.0671 113.391 37.0088C110.595 36.8628 108.453 36.2604 106.966 35.2015C105.48 34.1425 104.788 32.6111 104.893 30.6072C104.949 29.5353 105.301 28.6074 105.95 27.8234C106.573 27.0616 107.491 26.4903 108.703 26.1096C109.891 25.7277 111.37 25.5829 113.141 25.6753L113.31 27.822C112.028 27.7552 111.059 27.9616 110.403 28.4414C109.748 28.9212 109.395 29.6271 109.347 30.5592C109.299 31.468 109.624 32.1742 110.323 32.678C111.019 33.205 112.09 33.5062 113.535 33.5816C114.117 33.612 114.678 33.6179 115.216 33.5993C115.755 33.5806 116.212 33.5461 116.588 33.4956L117.356 18.7807C116.92 18.641 116.388 18.5315 115.761 18.4521C115.135 18.3726 114.518 18.3171 113.913 18.2855C112.468 18.2101 111.324 18.4074 110.482 18.8775C109.615 19.3697 109.153 20.1633 109.096 21.2585C109.044 22.2605 109.365 23.0366 110.061 23.587C110.755 24.1606 111.802 24.4839 113.2 24.5569ZM98.0068 21.6129L98.7193 24.5426L89.743 27.6037C89.971 28.4634 90.4421 29.1602 91.1562 29.694C91.8703 30.2278 92.8012 30.39 93.9489 30.1806C95.1195 29.9669 96.0197 29.3757 96.6494 28.407C97.2832 27.4612 97.4734 26.2287 97.2199 24.7095L96.7898 22.9379C96.3152 21.5065 95.5559 20.5303 94.5121 20.0092C93.4453 19.4923 92.2003 19.3637 90.7772 19.6234C89.8131 19.7994 88.943 20.1005 88.1669 20.5267C87.395 20.9759 86.7995 21.4166 86.3803 21.8489C86.0212 21.701 85.7205 21.4831 85.4782 21.1952C85.2172 20.9345 85.0532 20.6205 84.9862 20.2533C84.8772 19.6564 85.047 19.0918 85.4953 18.5593C85.9479 18.0498 86.6008 17.5986 87.4542 17.2057C88.3075 16.8128 89.308 16.5116 90.4557 16.3022C92.2232 15.9797 93.8542 16.0141 95.3488 16.4055C96.8245 16.824 98.072 17.6163 99.0912 18.7823C100.087 19.9524 100.764 21.5131 101.12 23.4642C101.375 24.8644 101.381 26.1322 101.138 27.2677C100.894 28.4032 100.468 29.3823 99.8593 30.2049C99.2316 31.0548 98.4557 31.7419 97.5315 32.2663C96.6115 32.8137 95.6121 33.1858 94.5332 33.3827C93.0182 33.6591 91.6418 33.5901 90.404 33.1756C89.1473 32.7882 88.0992 32.1137 87.2596 31.1522C86.3971 30.1948 85.8381 29.016 85.5825 27.6158C85.4653 26.9731 85.5495 26.4596 85.8351 26.0754C86.102 25.7184 86.5276 25.451 87.1119 25.2732L98.0068 21.6129ZM81.9595 28.1987L77.9435 29.7494L76.4559 25.8966C76.1785 25.1783 75.7742 24.7466 75.2429 24.6016C74.6899 24.465 74.0216 24.5479 73.238 24.8505C72.8897 24.985 72.5365 25.1714 72.1783 25.4098C71.7984 25.6565 71.4921 25.8998 71.2596 26.1397C71.04 26.0244 70.8186 25.8722 70.5956 25.6832C70.3725 25.4942 70.1938 25.2256 70.0593 24.8773C69.8155 24.2461 69.9186 23.606 70.3683 22.9571C70.7964 22.3166 71.6416 21.7526 72.9041 21.2651C74.6237 20.6011 76.1312 20.4567 77.4267 20.8319C78.7088 21.2373 79.686 22.3107 80.3584 24.0521L81.9595 28.1987ZM80.7967 32.4746L82.0196 35.6417L75.6201 38.1127C75.4742 37.994 75.3031 37.8099 75.1068 37.5606C74.8887 37.3196 74.7208 37.0468 74.6031 36.742C74.393 36.1979 74.3639 35.7339 74.5159 35.35C74.6762 34.988 74.9632 34.7271 75.3767 34.5674L80.7967 32.4746ZM77.6031 28.8678L81.6191 27.3171L86.1578 39.0713C86.0089 39.2038 85.7838 39.3658 85.4825 39.5571C85.1594 39.7569 84.8129 39.9283 84.4429 40.0711C83.681 40.3653 83.0713 40.4382 82.6138 40.2897C82.1647 40.1629 81.8056 39.7513 81.5367 39.0548L77.6031 28.8678ZM69.6358 33.3561L65.9119 35.5162L63.8396 31.9437C63.4533 31.2777 62.9864 30.9146 62.439 30.8545C61.8714 30.8061 61.2243 30.9926 60.4977 31.4141C60.1748 31.6014 59.8551 31.8409 59.5386 32.1323C59.202 32.4355 58.9376 32.7238 58.7454 32.9971C58.5105 32.9176 58.2681 32.8019 58.0182 32.6501C57.7683 32.4984 57.5497 32.261 57.3624 31.9381C57.0228 31.3528 57.0244 30.7045 57.3671 29.9932C57.6896 29.2936 58.4361 28.6042 59.6068 27.9252C61.2013 27.0002 62.6676 26.6217 64.0058 26.7895C65.3356 26.9893 66.4687 27.8965 67.4054 29.5111L69.6358 33.3561ZM69.1565 37.7613L70.86 40.6979L64.9261 44.1401C64.7634 44.0456 64.5656 43.8906 64.3326 43.6751C64.0795 43.4712 63.871 43.228 63.7071 42.9455C63.4144 42.4409 63.313 41.9872 63.403 41.5843C63.5047 41.2016 63.7473 40.899 64.1308 40.6766L69.1565 37.7613ZM65.4378 34.6988L69.1616 32.5386L75.4839 43.4376C75.3576 43.5918 75.1606 43.787 74.893 44.0232C74.6052 44.2711 74.2897 44.4945 73.9466 44.6936C73.2402 45.1034 72.6494 45.2707 72.1742 45.1957C71.7108 45.1408 71.2918 44.7904 70.9171 44.1446L65.4378 34.6988ZM54.9108 39.2267L57.0087 41.3923L50.8184 48.5772C51.4503 49.2031 52.2094 49.5654 53.0954 49.6641C53.9815 49.7628 54.8664 49.4313 55.75 48.6695C56.6513 47.8925 57.1282 46.9269 57.1806 45.7727C57.2482 44.6361 56.7881 43.477 55.8003 42.2954L54.5324 40.9855C53.3983 39.9915 52.2492 39.5342 51.0852 39.6134C49.9036 39.7079 48.7649 40.2274 47.6692 41.172C46.9269 41.8119 46.3291 42.5121 45.8757 43.2727C45.4376 44.0509 45.1472 44.7325 45.0046 45.3175C44.62 45.3718 44.2504 45.3361 43.8958 45.2106C43.5386 45.118 43.2382 44.9303 42.9944 44.6475C42.5983 44.188 42.4588 43.6152 42.5758 42.929C42.708 42.2605 43.0426 41.5407 43.5794 40.7698C44.1163 39.9989 44.8266 39.2326 45.7102 38.4708C47.071 37.2977 48.4949 36.5015 49.9819 36.0822C51.4664 35.6958 52.9433 35.7473 54.4126 36.2367C55.8642 36.7412 57.2375 37.7446 58.5325 39.2468C59.4619 40.3249 60.1091 41.4151 60.4741 42.5175C60.8392 43.6199 60.9675 44.68 60.859 45.6977C60.7481 46.7483 60.4269 47.7338 59.8955 48.654C59.3794 49.5919 58.706 50.4188 57.8754 51.1349C56.709 52.1404 55.4871 52.7779 54.2098 53.0472C52.93 53.3495 51.6847 53.2986 50.4738 52.8946C49.2452 52.5058 48.1662 51.7724 47.2369 50.6944C46.8103 50.1995 46.6229 49.7141 46.6747 49.2382C46.724 48.7951 46.9556 48.349 47.3694 47.8999L54.9108 39.2267ZM44.3909 58.4697L40.632 55.4927L43.3048 52.1179L47.3381 55.3122C47.7954 55.6744 48.0926 56.0884 48.2297 56.5542C48.3851 57.0344 48.4406 57.5844 48.3963 58.2041C48.291 59.0136 48.0148 59.926 47.5679 60.9412C47.1211 61.9565 46.5137 62.9489 45.7459 63.9183C44.3842 65.6377 43.1728 66.0773 42.1119 65.2371C41.8558 65.0343 41.647 64.8093 41.4855 64.5623C41.3422 64.3298 41.2317 64.0935 41.154 63.8534C41.3355 63.6994 41.544 63.4925 41.7796 63.2326C42.0335 62.9872 42.2836 62.709 42.5298 62.3981C43.0514 61.7396 43.4707 61.0597 43.788 60.3585C44.109 59.6901 44.31 59.0605 44.3909 58.4697ZM44.4297 53.0089L41.5923 56.2533L34.5684 50.6904C34.6294 50.5006 34.7503 50.254 34.931 49.9507C35.0934 49.6328 35.305 49.3093 35.5658 48.98C36.0583 48.3581 36.5375 47.9786 37.0032 47.8415C37.4728 47.7372 38.0003 47.9168 38.5856 48.3804L44.4297 53.0089Z" fill="black"/>
<path d="M82.8077 127.736C78.2938 138.746 66.7074 135.104 64.1482 128.257C61.5891 121.409 65.0901 111.538 76.3814 106.574C95.8004 98.053 118.861 104.549 113.11 109.977C109.608 113.281 93.8174 100.809 82.7936 127.736H82.8077Z" fill="#F67ADF"/>
<path d="M77.2532 101.765C65.8355 105.112 61.4622 93.7786 65.2165 87.5074C68.985 81.2361 78.8842 77.8188 89.7961 83.5561C108.568 93.4129 117.862 115.503 110.044 114.392C105.277 113.717 105.179 93.5957 77.2532 101.765Z" fill="#F67ADF"/>
<path d="M94.1126 81.2361C84.3822 74.3882 90.5129 63.8992 97.7551 62.9422C104.996 61.9722 113.841 67.5826 116.161 79.7034C120.154 100.529 108.68 121.564 104.673 114.758C102.24 110.611 117.904 97.9831 94.0985 81.2502L94.1126 81.2361Z" fill="#F67ADF"/>
<path d="M120.661 81.6155C119.943 69.7339 131.966 67.9902 137.239 73.0521C142.512 78.114 143.637 88.5339 135.622 97.8986C121.828 113.999 98.2326 118.147 101.059 110.779C102.775 106.293 122.418 110.666 120.661 81.6155Z" fill="#F67ADF"/>
<path d="M136.93 102.609C145.774 94.6363 154.633 102.961 153.958 110.231C153.283 117.514 145.845 124.882 133.527 124.447C112.336 123.701 94.38 107.84 101.917 105.449C106.501 104.002 115.317 122.07 136.944 102.595L136.93 102.609Z" fill="#F67ADF"/>
<path d="M130.658 128.412C142.399 130.352 141.429 142.459 135.312 146.481C129.196 150.502 118.804 149.279 111.45 139.365C98.8234 122.337 100.033 98.4049 106.585 102.806C110.579 105.478 101.945 123.659 130.644 128.412H130.658Z" fill="#F67ADF"/>
<path d="M106.571 139.605C112.365 149.996 102.297 156.788 95.3501 154.51C88.4035 152.232 82.8636 143.345 86.0276 131.421C91.4693 110.934 110.93 96.9571 111.577 104.831C111.971 109.626 92.383 114.196 106.571 139.605Z" fill="#F67ADF"/>
</g>
</g>
<defs>
<clipPath id="clip0_846_9">
<rect width="217" height="217" fill="white"/>
</clipPath>
</defs>
</svg>
